<svg width="420" height="220" viewBox="0 0 420 220" fill="none" xmlns="http://www.w3.org/2000/svg">
<rect width="420" height="220" fill="#E6E3DE"/>
<rect x="85.4668" y="79.6046" width="249.558" height="61.0465" stroke="#26260E" stroke-opacity="0.5" stroke-width="0.976744" stroke-linecap="round" stroke-dasharray="3.91 3.91"/>
<rect x="335.023" y="47.8605" width="21.9767" height="31.7442" stroke="#26260E" stroke-opacity="0.5" stroke-width="0.976744" stroke-linecap="round" stroke-dasharray="3.91 3.91"/>
<path d="M88.8848 47.3721C88.615 47.3721 88.3964 47.5908 88.3964 47.8605C88.3964 48.1302 88.615 48.3488 88.8848 48.3488V47.8605V47.3721ZM331.606 48.3488C331.875 48.3488 332.094 48.1302 332.094 47.8605C332.094 47.5908 331.875 47.3721 331.606 47.3721V47.8605V48.3488ZM329.648 47.3721C329.379 47.3721 329.16 47.5908 329.16 47.8605C329.16 48.1302 329.379 48.3488 329.648 48.3488V47.8605V47.3721ZM325.733 48.3488C326.003 48.3488 326.222 48.1302 326.222 47.8605C326.222 47.5908 326.003 47.3721 325.733 47.3721V47.8605V48.3488ZM321.819 47.3721C321.549 47.3721 321.33 47.5908 321.33 47.8605C321.33 48.1302 321.549 48.3488 321.819 48.3488V47.8605V47.3721ZM317.904 48.3488C318.173 48.3488 318.392 48.1302 318.392 47.8605C318.392 47.5908 318.173 47.3721 317.904 47.3721V47.8605V48.3488ZM313.989 47.3721C313.719 47.3721 313.5 47.5908 313.5 47.8605C313.5 48.1302 313.719 48.3488 313.989 48.3488V47.8605V47.3721ZM310.074 48.3488C310.344 48.3488 310.562 48.1302 310.562 47.8605C310.562 47.5908 310.344 47.3721 310.074 47.3721V47.8605V48.3488ZM306.159 47.3721C305.889 47.3721 305.671 47.5908 305.671 47.8605C305.671 48.1302 305.889 48.3488 306.159 48.3488V47.8605V47.3721ZM302.244 48.3488C302.514 48.3488 302.733 48.1302 302.733 47.8605C302.733 47.5908 302.514 47.3721 302.244 47.3721V47.8605V48.3488ZM298.329 47.3721C298.06 47.3721 297.841 47.5908 297.841 47.8605C297.841 48.1302 298.06 48.3488 298.329 48.3488V47.8605V47.3721ZM294.415 48.3488C294.684 48.3488 294.903 48.1302 294.903 47.8605C294.903 47.5908 294.684 47.3721 294.415 47.3721V47.8605V48.3488ZM290.5 47.3721C290.23 47.3721 290.011 47.5908 290.011 47.8605C290.011 48.1302 290.23 48.3488 290.5 48.3488V47.8605V47.3721ZM286.585 48.3488C286.855 48.3488 287.073 48.1302 287.073 47.8605C287.073 47.5908 286.855 47.3721 286.585 47.3721V47.8605V48.3488ZM282.67 47.3721C282.4 47.3721 282.182 47.5908 282.182 47.8605C282.182 48.1302 282.4 48.3488 282.67 48.3488V47.8605V47.3721ZM278.755 48.3488C279.025 48.3488 279.244 48.1302 279.244 47.8605C279.244 47.5908 279.025 47.3721 278.755 47.3721V47.8605V48.3488ZM274.84 47.3721C274.571 47.3721 274.352 47.5908 274.352 47.8605C274.352 48.1302 274.571 48.3488 274.84 48.3488V47.8605V47.3721ZM270.925 48.3488C271.195 48.3488 271.414 48.1302 271.414 47.8605C271.414 47.5908 271.195 47.3721 270.925 47.3721V47.8605V48.3488ZM267.011 47.3721C266.741 47.3721 266.522 47.5908 266.522 47.8605C266.522 48.1302 266.741 48.3488 267.011 48.3488V47.8605V47.3721ZM263.096 48.3488C263.365 48.3488 263.584 48.1302 263.584 47.8605C263.584 47.5908 263.365 47.3721 263.096 47.3721V47.8605V48.3488ZM259.181 47.3721C258.911 47.3721 258.693 47.5908 258.693 47.8605C258.693 48.1302 258.911 48.3488 259.181 48.3488V47.8605V47.3721ZM255.266 48.3488C255.536 48.3488 255.754 48.1302 255.754 47.8605C255.754 47.5908 255.536 47.3721 255.266 47.3721V47.8605V48.3488ZM251.351 47.3721C251.081 47.3721 250.863 47.5908 250.863 47.8605C250.863 48.1302 251.081 48.3488 251.351 48.3488V47.8605V47.3721ZM247.436 48.3488C247.706 48.3488 247.925 48.1302 247.925 47.8605C247.925 47.5908 247.706 47.3721 247.436 47.3721V47.8605V48.3488ZM243.521 47.3721C243.252 47.3721 243.033 47.5908 243.033 47.8605C243.033 48.1302 243.252 48.3488 243.521 48.3488V47.8605V47.3721ZM239.607 48.3488C239.876 48.3488 240.095 48.1302 240.095 47.8605C240.095 47.5908 239.876 47.3721 239.607 47.3721V47.8605V48.3488ZM235.692 47.3721C235.422 47.3721 235.203 47.5908 235.203 47.8605C235.203 48.1302 235.422 48.3488 235.692 48.3488V47.8605V47.3721ZM231.777 48.3488C232.047 48.3488 232.265 48.1302 232.265 47.8605C232.265 47.5908 232.047 47.3721 231.777 47.3721V47.8605V48.3488ZM227.862 47.3721C227.592 47.3721 227.374 47.5908 227.374 47.8605C227.374 48.1302 227.592 48.3488 227.862 48.3488V47.8605V47.3721ZM223.947 48.3488C224.217 48.3488 224.436 48.1302 224.436 47.8605C224.436 47.5908 224.217 47.3721 223.947 47.3721V47.8605V48.3488ZM220.032 47.3721C219.763 47.3721 219.544 47.5908 219.544 47.8605C219.544 48.1302 219.763 48.3488 220.032 48.3488V47.8605V47.3721ZM216.117 48.3488C216.387 48.3488 216.606 48.1302 216.606 47.8605C216.606 47.5908 216.387 47.3721 216.117 47.3721V47.8605V48.3488ZM212.203 47.3721C211.933 47.3721 211.714 47.5908 211.714 47.8605C211.714 48.1302 211.933 48.3488 212.203 48.3488V47.8605V47.3721ZM208.288 48.3488C208.557 48.3488 208.776 48.1302 208.776 47.8605C208.776 47.5908 208.557 47.3721 208.288 47.3721V47.8605V48.3488ZM204.373 47.3721C204.103 47.3721 203.885 47.5908 203.885 47.8605C203.885 48.1302 204.103 48.3488 204.373 48.3488V47.8605V47.3721ZM200.458 48.3488C200.728 48.3488 200.946 48.1302 200.946 47.8605C200.946 47.5908 200.728 47.3721 200.458 47.3721V47.8605V48.3488ZM196.543 47.3721C196.273 47.3721 196.055 47.5908 196.055 47.8605C196.055 48.1302 196.273 48.3488 196.543 48.3488V47.8605V47.3721ZM192.628 48.3488C192.898 48.3488 193.117 48.1302 193.117 47.8605C193.117 47.5908 192.898 47.3721 192.628 47.3721V47.8605V48.3488ZM188.714 47.3721C188.444 47.3721 188.225 47.5908 188.225 47.8605C188.225 48.1302 188.444 48.3488 188.714 48.3488V47.8605V47.3721ZM184.799 48.3488C185.068 48.3488 185.287 48.1302 185.287 47.8605C185.287 47.5908 185.068 47.3721 184.799 47.3721V47.8605V48.3488ZM180.884 47.3721C180.614 47.3721 180.395 47.5908 180.395 47.8605C180.395 48.1302 180.614 48.3488 180.884 48.3488V47.8605V47.3721ZM176.969 48.3488C177.239 48.3488 177.457 48.1302 177.457 47.8605C177.457 47.5908 177.239 47.3721 176.969 47.3721V47.8605V48.3488ZM173.054 47.3721C172.784 47.3721 172.566 47.5908 172.566 47.8605C172.566 48.1302 172.784 48.3488 173.054 48.3488V47.8605V47.3721ZM169.139 48.3488C169.409 48.3488 169.628 48.1302 169.628 47.8605C169.628 47.5908 169.409 47.3721 169.139 47.3721V47.8605V48.3488ZM165.224 47.3721C164.955 47.3721 164.736 47.5908 164.736 47.8605C164.736 48.1302 164.955 48.3488 165.224 48.3488V47.8605V47.3721ZM161.31 48.3488C161.579 48.3488 161.798 48.1302 161.798 47.8605C161.798 47.5908 161.579 47.3721 161.31 47.3721V47.8605V48.3488ZM157.395 47.3721C157.125 47.3721 156.906 47.5908 156.906 47.8605C156.906 48.1302 157.125 48.3488 157.395 48.3488V47.8605V47.3721ZM153.48 48.3488C153.75 48.3488 153.968 48.1302 153.968 47.8605C153.968 47.5908 153.75 47.3721 153.48 47.3721V47.8605V48.3488ZM149.565 47.3721C149.295 47.3721 149.077 47.5908 149.077 47.8605C149.077 48.1302 149.295 48.3488 149.565 48.3488V47.8605V47.3721ZM145.65 48.3488C145.92 48.3488 146.138 48.1302 146.138 47.8605C146.138 47.5908 145.92 47.3721 145.65 47.3721V47.8605V48.3488ZM141.735 47.3721C141.466 47.3721 141.247 47.5908 141.247 47.8605C141.247 48.1302 141.466 48.3488 141.735 48.3488V47.8605V47.3721ZM137.82 48.3488C138.09 48.3488 138.309 48.1302 138.309 47.8605C138.309 47.5908 138.09 47.3721 137.82 47.3721V47.8605V48.3488ZM133.906 47.3721C133.636 47.3721 133.417 47.5908 133.417 47.8605C133.417 48.1302 133.636 48.3488 133.906 48.3488V47.8605V47.3721ZM129.991 48.3488C130.26 48.3488 130.479 48.1302 130.479 47.8605C130.479 47.5908 130.26 47.3721 129.991 47.3721V47.8605V48.3488ZM126.076 47.3721C125.806 47.3721 125.587 47.5908 125.587 47.8605C125.587 48.1302 125.806 48.3488 126.076 48.3488V47.8605V47.3721ZM122.161 48.3488C122.431 48.3488 122.649 48.1302 122.649 47.8605C122.649 47.5908 122.431 47.3721 122.161 47.3721V47.8605V48.3488ZM118.246 47.3721C117.976 47.3721 117.758 47.5908 117.758 47.8605C117.758 48.1302 117.976 48.3488 118.246 48.3488V47.8605V47.3721ZM114.331 48.3488C114.601 48.3488 114.82 48.1302 114.82 47.8605C114.82 47.5908 114.601 47.3721 114.331 47.3721V47.8605V48.3488ZM110.416 47.3721C110.147 47.3721 109.928 47.5908 109.928 47.8605C109.928 48.1302 110.147 48.3488 110.416 48.3488V47.8605V47.3721ZM106.502 48.3488C106.771 48.3488 106.99 48.1302 106.99 47.8605C106.99 47.5908 106.771 47.3721 106.502 47.3721V47.8605V48.3488ZM102.587 47.3721C102.317 47.3721 102.098 47.5908 102.098 47.8605C102.098 48.1302 102.317 48.3488 102.587 48.3488V47.8605V47.3721ZM98.6718 48.3488C98.9415 48.3488 99.1602 48.1302 99.1602 47.8605C99.1602 47.5908 98.9415 47.3721 98.6718 47.3721V47.8605V48.3488ZM94.757 47.3721C94.4872 47.3721 94.2686 47.5908 94.2686 47.8605C94.2686 48.1302 94.4872 48.3488 94.757 48.3488V47.8605V47.3721ZM90.8421 48.3488C91.1118 48.3488 91.3305 48.1302 91.3305 47.8605C91.3305 47.5908 91.1118 47.3721 90.8421 47.3721V47.8605V48.3488ZM331.606 47.8605V47.3721H329.648V47.8605V48.3488H331.606V47.8605ZM325.733 47.8605V47.3721H321.819V47.8605V48.3488H325.733V47.8605ZM317.904 47.8605V47.3721H313.989V47.8605V48.3488H317.904V47.8605ZM310.074 47.8605V47.3721H306.159V47.8605V48.3488H310.074V47.8605ZM302.244 47.8605V47.3721H298.329V47.8605V48.3488H302.244V47.8605ZM294.415 47.8605V47.3721H290.5V47.8605V48.3488H294.415V47.8605ZM286.585 47.8605V47.3721H282.67V47.8605V48.3488H286.585V47.8605ZM278.755 47.8605V47.3721H274.84V47.8605V48.3488H278.755V47.8605ZM270.925 47.8605V47.3721H267.011V47.8605V48.3488H270.925V47.8605ZM263.096 47.8605V47.3721H259.181V47.8605V48.3488H263.096V47.8605ZM255.266 47.8605V47.3721H251.351V47.8605V48.3488H255.266V47.8605ZM247.436 47.8605V47.3721H243.521V47.8605V48.3488H247.436V47.8605ZM239.607 47.8605V47.3721H235.692V47.8605V48.3488H239.607V47.8605ZM231.777 47.8605V47.3721H227.862V47.8605V48.3488H231.777V47.8605ZM223.947 47.8605V47.3721H220.032V47.8605V48.3488H223.947V47.8605ZM216.117 47.8605V47.3721H212.203V47.8605V48.3488H216.117V47.8605ZM208.288 47.8605V47.3721H204.373V47.8605V48.3488H208.288V47.8605ZM200.458 47.8605V47.3721H196.543V47.8605V48.3488H200.458V47.8605ZM192.628 47.8605V47.3721H188.714V47.8605V48.3488H192.628V47.8605ZM184.799 47.8605V47.3721H180.884V47.8605V48.3488H184.799V47.8605ZM176.969 47.8605V47.3721H173.054V47.8605V48.3488H176.969V47.8605ZM169.139 47.8605V47.3721H165.224V47.8605V48.3488H169.139V47.8605ZM161.31 47.8605V47.3721H157.395V47.8605V48.3488H161.31V47.8605ZM153.48 47.8605V47.3721H149.565V47.8605V48.3488H153.48V47.8605ZM145.65 47.8605V47.3721H141.735V47.8605V48.3488H145.65V47.8605ZM137.82 47.8605V47.3721H133.906V47.8605V48.3488H137.82V47.8605ZM129.991 47.8605V47.3721H126.076V47.8605V48.3488H129.991V47.8605ZM122.161 47.8605V47.3721H118.246V47.8605V48.3488H122.161V47.8605ZM114.331 47.8605V47.3721H110.416V47.8605V48.3488H114.331V47.8605ZM106.502 47.8605V47.3721H102.587V47.8605V48.3488H106.502V47.8605ZM98.6718 47.8605V47.3721H94.757V47.8605V48.3488H98.6718V47.8605ZM90.8421 47.8605V47.3721H88.8848V47.8605V48.3488H90.8421V47.8605Z" fill="#26260E" fill-opacity="0.5"/>
<path d="M357.488 82.5349C357.488 82.2652 357.27 82.0465 357 82.0465C356.73 82.0465 356.512 82.2652 356.512 82.5349L357 82.5349L357.488 82.5349ZM356.512 137.721C356.512 137.991 356.73 138.209 357 138.209C357.27 138.209 357.488 137.991 357.488 137.721L357 137.721L356.512 137.721ZM357.488 135.75C357.488 135.48 357.27 135.262 357 135.262C356.73 135.262 356.512 135.48 356.512 135.75L357 135.75L357.488 135.75ZM356.512 131.808C356.512 132.078 356.73 132.297 357 132.297C357.27 132.297 357.488 132.078 357.488 131.808L357 131.808L356.512 131.808ZM357.488 127.866C357.488 127.597 357.27 127.378 357 127.378C356.73 127.378 356.512 127.597 356.512 127.866L357 127.866L357.488 127.866ZM356.512 123.924C356.512 124.194 356.73 124.413 357 124.413C357.27 124.413 357.488 124.194 357.488 123.924L357 123.924L356.512 123.924ZM357.488 119.983C357.488 119.713 357.27 119.494 357 119.494C356.73 119.494 356.512 119.713 356.512 119.983L357 119.983L357.488 119.983ZM356.512 116.041C356.512 116.31 356.73 116.529 357 116.529C357.27 116.529 357.488 116.31 357.488 116.041L357 116.041L356.512 116.041ZM357.488 112.099C357.488 111.829 357.27 111.61 357 111.61C356.73 111.61 356.512 111.829 356.512 112.099L357 112.099L357.488 112.099ZM356.512 108.157C356.512 108.427 356.73 108.645 357 108.645C357.27 108.645 357.488 108.427 357.488 108.157L357 108.157L356.512 108.157ZM357.488 104.215C357.488 103.945 357.27 103.727 357 103.727C356.73 103.727 356.512 103.945 356.512 104.215L357 104.215L357.488 104.215ZM356.512 100.273C356.512 100.543 356.73 100.762 357 100.762C357.27 100.762 357.488 100.543 357.488 100.273L357 100.273L356.512 100.273ZM357.488 96.3314C357.488 96.0617 357.27 95.8431 357 95.8431C356.73 95.8431 356.512 96.0617 356.512 96.3314L357 96.3314L357.488 96.3314ZM356.512 92.3896C356.512 92.6593 356.73 92.8779 357 92.8779C357.27 92.8779 357.488 92.6593 357.488 92.3896L357 92.3896L356.512 92.3896ZM357.488 88.4477C357.488 88.178 357.27 87.9593 357 87.9593C356.73 87.9593 356.512 88.178 356.512 88.4477L357 88.4477L357.488 88.4477ZM356.512 84.5058C356.512 84.7756 356.73 84.9942 357 84.9942C357.27 84.9942 357.488 84.7756 357.488 84.5058L357 84.5058L356.512 84.5058ZM357 137.721L357.488 137.721L357.488 135.75L357 135.75L356.512 135.75L356.512 137.721L357 137.721ZM357 131.808L357.488 131.808L357.488 127.866L357 127.866L356.512 127.866L356.512 131.808L357 131.808ZM357 123.924L357.488 123.924L357.488 119.983L357 119.983L356.512 119.983L356.512 123.924L357 123.924ZM357 116.041L357.488 116.041L357.488 112.099L357 112.099L356.512 112.099L356.512 116.041L357 116.041ZM357 108.157L357.488 108.157L357.488 104.215L357 104.215L356.512 104.215L356.512 108.157L357 108.157ZM357 100.273L357.488 100.273L357.488 96.3314L357 96.3314L356.512 96.3314L356.512 100.273L357 100.273ZM357 92.3896L357.488 92.3896L357.488 88.4477L357 88.4477L356.512 88.4477L356.512 92.3896L357 92.3896ZM357 84.5058L357.488 84.5058L357.488 82.5349L357 82.5349L356.512 82.5349L356.512 84.5058L357 84.5058Z" fill="#26260E" fill-opacity="0.5"/>
<path d="M62.9999 82.5349C62.9999 82.2652 63.2186 82.0465 63.4883 82.0465C63.758 82.0465 63.9767 82.2652 63.9767 82.5349L63.4883 82.5349L62.9999 82.5349ZM63.9767 137.721C63.9767 137.991 63.758 138.209 63.4883 138.209C63.2186 138.209 62.9999 137.991 62.9999 137.721L63.4883 137.721L63.9767 137.721ZM62.9999 135.75C62.9999 135.48 63.2186 135.262 63.4883 135.262C63.758 135.262 63.9767 135.48 63.9767 135.75L63.4883 135.75L62.9999 135.75ZM63.9767 131.808C63.9767 132.078 63.758 132.297 63.4883 132.297C63.2186 132.297 62.9999 132.078 62.9999 131.808L63.4883 131.808L63.9767 131.808ZM62.9999 127.866C62.9999 127.597 63.2186 127.378 63.4883 127.378C63.758 127.378 63.9767 127.597 63.9767 127.866L63.4883 127.866L62.9999 127.866ZM63.9767 123.924C63.9767 124.194 63.758 124.413 63.4883 124.413C63.2186 124.413 62.9999 124.194 62.9999 123.924L63.4883 123.924L63.9767 123.924ZM62.9999 119.983C62.9999 119.713 63.2186 119.494 63.4883 119.494C63.758 119.494 63.9767 119.713 63.9767 119.983L63.4883 119.983L62.9999 119.983ZM63.9767 116.041C63.9767 116.31 63.758 116.529 63.4883 116.529C63.2186 116.529 62.9999 116.31 62.9999 116.041L63.4883 116.041L63.9767 116.041ZM62.9999 112.099C62.9999 111.829 63.2186 111.61 63.4883 111.61C63.758 111.61 63.9767 111.829 63.9767 112.099L63.4883 112.099L62.9999 112.099ZM63.9767 108.157C63.9767 108.427 63.758 108.645 63.4883 108.645C63.2186 108.645 62.9999 108.427 62.9999 108.157L63.4883 108.157L63.9767 108.157ZM62.9999 104.215C62.9999 103.945 63.2186 103.727 63.4883 103.727C63.758 103.727 63.9767 103.945 63.9767 104.215L63.4883 104.215L62.9999 104.215ZM63.9767 100.273C63.9767 100.543 63.758 100.762 63.4883 100.762C63.2186 100.762 62.9999 100.543 62.9999 100.273L63.4883 100.273L63.9767 100.273ZM62.9999 96.3314C62.9999 96.0617 63.2186 95.8431 63.4883 95.8431C63.758 95.8431 63.9767 96.0617 63.9767 96.3314L63.4883 96.3314L62.9999 96.3314ZM63.9767 92.3896C63.9767 92.6593 63.758 92.8779 63.4883 92.8779C63.2186 92.8779 62.9999 92.6593 62.9999 92.3896L63.4883 92.3896L63.9767 92.3896ZM62.9999 88.4477C62.9999 88.178 63.2186 87.9593 63.4883 87.9593C63.758 87.9593 63.9767 88.178 63.9767 88.4477L63.4883 88.4477L62.9999 88.4477ZM63.9767 84.5058C63.9767 84.7756 63.758 84.9942 63.4883 84.9942C63.2186 84.9942 62.9999 84.7756 62.9999 84.5058L63.4883 84.5058L63.9767 84.5058ZM63.4883 137.721L62.9999 137.721L62.9999 135.75L63.4883 135.75L63.9767 135.75L63.9767 137.721L63.4883 137.721ZM63.4883 131.808L62.9999 131.808L62.9999 127.866L63.4883 127.866L63.9767 127.866L63.9767 131.808L63.4883 131.808ZM63.4883 123.924L62.9999 123.924L62.9999 119.983L63.4883 119.983L63.9767 119.983L63.9767 123.924L63.4883 123.924ZM63.4883 116.041L62.9999 116.041L62.9999 112.099L63.4883 112.099L63.9767 112.099L63.9767 116.041L63.4883 116.041ZM63.4883 108.157L62.9999 108.157L62.9999 104.215L63.4883 104.215L63.9767 104.215L63.9767 108.157L63.4883 108.157ZM63.4883 100.273L62.9999 100.273L62.9999 96.3314L63.4883 96.3314L63.9767 96.3314L63.9767 100.273L63.4883 100.273ZM63.4883 92.3896L62.9999 92.3896L62.9999 88.4477L63.4883 88.4477L63.9767 88.4477L63.9767 92.3896L63.4883 92.3896ZM63.4883 84.5058L62.9999 84.5058L62.9999 82.5349L63.4883 82.5349L63.9767 82.5349L63.9767 84.5058L63.4883 84.5058Z" fill="#26260E" fill-opacity="0.5"/>
<path d="M331.605 172.884C331.875 172.884 332.094 172.665 332.094 172.396C332.094 172.126 331.875 171.907 331.605 171.907V172.396V172.884ZM88.8845 171.907C88.6148 171.907 88.3962 172.126 88.3962 172.396C88.3962 172.665 88.6148 172.884 88.8845 172.884V172.396V171.907ZM90.842 172.884C91.1117 172.884 91.3303 172.665 91.3303 172.396C91.3303 172.126 91.1117 171.907 90.842 171.907V172.396V172.884ZM94.7568 171.907C94.4871 171.907 94.2684 172.126 94.2684 172.396C94.2684 172.665 94.4871 172.884 94.7568 172.884V172.396V171.907ZM98.6717 172.884C98.9414 172.884 99.16 172.665 99.16 172.396C99.16 172.126 98.9414 171.907 98.6717 171.907V172.396V172.884ZM102.587 171.907C102.317 171.907 102.098 172.126 102.098 172.396C102.098 172.665 102.317 172.884 102.587 172.884V172.396V171.907ZM106.501 172.884C106.771 172.884 106.99 172.665 106.99 172.396C106.99 172.126 106.771 171.907 106.501 171.907V172.396V172.884ZM110.416 171.907C110.147 171.907 109.928 172.126 109.928 172.396C109.928 172.665 110.147 172.884 110.416 172.884V172.396V171.907ZM114.331 172.884C114.601 172.884 114.819 172.665 114.819 172.396C114.819 172.126 114.601 171.907 114.331 171.907V172.396V172.884ZM118.246 171.907C117.976 171.907 117.758 172.126 117.758 172.396C117.758 172.665 117.976 172.884 118.246 172.884V172.396V171.907ZM122.161 172.884C122.431 172.884 122.649 172.665 122.649 172.396C122.649 172.126 122.431 171.907 122.161 171.907V172.396V172.884ZM126.076 171.907C125.806 171.907 125.587 172.126 125.587 172.396C125.587 172.665 125.806 172.884 126.076 172.884V172.396V171.907ZM129.99 172.884C130.26 172.884 130.479 172.665 130.479 172.396C130.479 172.126 130.26 171.907 129.99 171.907V172.396V172.884ZM133.905 171.907C133.636 171.907 133.417 172.126 133.417 172.396C133.417 172.665 133.636 172.884 133.905 172.884V172.396V171.907ZM137.82 172.884C138.09 172.884 138.309 172.665 138.309 172.396C138.309 172.126 138.09 171.907 137.82 171.907V172.396V172.884ZM141.735 171.907C141.465 171.907 141.247 172.126 141.247 172.396C141.247 172.665 141.465 172.884 141.735 172.884V172.396V171.907ZM145.65 172.884C145.92 172.884 146.138 172.665 146.138 172.396C146.138 172.126 145.92 171.907 145.65 171.907V172.396V172.884ZM149.565 171.907C149.295 171.907 149.076 172.126 149.076 172.396C149.076 172.665 149.295 172.884 149.565 172.884V172.396V171.907ZM153.48 172.884C153.749 172.884 153.968 172.665 153.968 172.396C153.968 172.126 153.749 171.907 153.48 171.907V172.396V172.884ZM157.394 171.907C157.125 171.907 156.906 172.126 156.906 172.396C156.906 172.665 157.125 172.884 157.394 172.884V172.396V171.907ZM161.309 172.884C161.579 172.884 161.798 172.665 161.798 172.396C161.798 172.126 161.579 171.907 161.309 171.907V172.396V172.884ZM165.224 171.907C164.954 171.907 164.736 172.126 164.736 172.396C164.736 172.665 164.954 172.884 165.224 172.884V172.396V171.907ZM169.139 172.884C169.409 172.884 169.627 172.665 169.627 172.396C169.627 172.126 169.409 171.907 169.139 171.907V172.396V172.884ZM173.054 171.907C172.784 171.907 172.566 172.126 172.566 172.396C172.566 172.665 172.784 172.884 173.054 172.884V172.396V171.907ZM176.969 172.884C177.238 172.884 177.457 172.665 177.457 172.396C177.457 172.126 177.238 171.907 176.969 171.907V172.396V172.884ZM180.884 171.907C180.614 171.907 180.395 172.126 180.395 172.396C180.395 172.665 180.614 172.884 180.884 172.884V172.396V171.907ZM184.798 172.884C185.068 172.884 185.287 172.665 185.287 172.396C185.287 172.126 185.068 171.907 184.798 171.907V172.396V172.884ZM188.713 171.907C188.444 171.907 188.225 172.126 188.225 172.396C188.225 172.665 188.444 172.884 188.713 172.884V172.396V171.907ZM192.628 172.884C192.898 172.884 193.117 172.665 193.117 172.396C193.117 172.126 192.898 171.907 192.628 171.907V172.396V172.884ZM196.543 171.907C196.273 171.907 196.055 172.126 196.055 172.396C196.055 172.665 196.273 172.884 196.543 172.884V172.396V171.907ZM200.458 172.884C200.728 172.884 200.946 172.665 200.946 172.396C200.946 172.126 200.728 171.907 200.458 171.907V172.396V172.884ZM204.373 171.907C204.103 171.907 203.884 172.126 203.884 172.396C203.884 172.665 204.103 172.884 204.373 172.884V172.396V171.907ZM208.288 172.884C208.557 172.884 208.776 172.665 208.776 172.396C208.776 172.126 208.557 171.907 208.288 171.907V172.396V172.884ZM212.202 171.907C211.933 171.907 211.714 172.126 211.714 172.396C211.714 172.665 211.933 172.884 212.202 172.884V172.396V171.907ZM216.117 172.884C216.387 172.884 216.606 172.665 216.606 172.396C216.606 172.126 216.387 171.907 216.117 171.907V172.396V172.884ZM220.032 171.907C219.762 171.907 219.544 172.126 219.544 172.396C219.544 172.665 219.762 172.884 220.032 172.884V172.396V171.907ZM223.947 172.884C224.217 172.884 224.435 172.665 224.435 172.396C224.435 172.126 224.217 171.907 223.947 171.907V172.396V172.884ZM227.862 171.907C227.592 171.907 227.373 172.126 227.373 172.396C227.373 172.665 227.592 172.884 227.862 172.884V172.396V171.907ZM231.777 172.884C232.046 172.884 232.265 172.665 232.265 172.396C232.265 172.126 232.046 171.907 231.777 171.907V172.396V172.884ZM235.692 171.907C235.422 171.907 235.203 172.126 235.203 172.396C235.203 172.665 235.422 172.884 235.692 172.884V172.396V171.907ZM239.606 172.884C239.876 172.884 240.095 172.665 240.095 172.396C240.095 172.126 239.876 171.907 239.606 171.907V172.396V172.884ZM243.521 171.907C243.252 171.907 243.033 172.126 243.033 172.396C243.033 172.665 243.252 172.884 243.521 172.884V172.396V171.907ZM247.436 172.884C247.706 172.884 247.925 172.665 247.925 172.396C247.925 172.126 247.706 171.907 247.436 171.907V172.396V172.884ZM251.351 171.907C251.081 171.907 250.863 172.126 250.863 172.396C250.863 172.665 251.081 172.884 251.351 172.884V172.396V171.907ZM255.266 172.884C255.536 172.884 255.754 172.665 255.754 172.396C255.754 172.126 255.536 171.907 255.266 171.907V172.396V172.884ZM259.181 171.907C258.911 171.907 258.692 172.126 258.692 172.396C258.692 172.665 258.911 172.884 259.181 172.884V172.396V171.907ZM263.096 172.884C263.365 172.884 263.584 172.665 263.584 172.396C263.584 172.126 263.365 171.907 263.096 171.907V172.396V172.884ZM267.01 171.907C266.741 171.907 266.522 172.126 266.522 172.396C266.522 172.665 266.741 172.884 267.01 172.884V172.396V171.907ZM270.925 172.884C271.195 172.884 271.414 172.665 271.414 172.396C271.414 172.126 271.195 171.907 270.925 171.907V172.396V172.884ZM274.84 171.907C274.57 171.907 274.352 172.126 274.352 172.396C274.352 172.665 274.57 172.884 274.84 172.884V172.396V171.907ZM278.755 172.884C279.025 172.884 279.243 172.665 279.243 172.396C279.243 172.126 279.025 171.907 278.755 171.907V172.396V172.884ZM282.67 171.907C282.4 171.907 282.181 172.126 282.181 172.396C282.181 172.665 282.4 172.884 282.67 172.884V172.396V171.907ZM286.585 172.884C286.854 172.884 287.073 172.665 287.073 172.396C287.073 172.126 286.854 171.907 286.585 171.907V172.396V172.884ZM290.5 171.907C290.23 171.907 290.011 172.126 290.011 172.396C290.011 172.665 290.23 172.884 290.5 172.884V172.396V171.907ZM294.414 172.884C294.684 172.884 294.903 172.665 294.903 172.396C294.903 172.126 294.684 171.907 294.414 171.907V172.396V172.884ZM298.329 171.907C298.06 171.907 297.841 172.126 297.841 172.396C297.841 172.665 298.06 172.884 298.329 172.884V172.396V171.907ZM302.244 172.884C302.514 172.884 302.733 172.665 302.733 172.396C302.733 172.126 302.514 171.907 302.244 171.907V172.396V172.884ZM306.159 171.907C305.889 171.907 305.671 172.126 305.671 172.396C305.671 172.665 305.889 172.884 306.159 172.884V172.396V171.907ZM310.074 172.884C310.344 172.884 310.562 172.665 310.562 172.396C310.562 172.126 310.344 171.907 310.074 171.907V172.396V172.884ZM313.989 171.907C313.719 171.907 313.5 172.126 313.5 172.396C313.5 172.665 313.719 172.884 313.989 172.884V172.396V171.907ZM317.904 172.884C318.173 172.884 318.392 172.665 318.392 172.396C318.392 172.126 318.173 171.907 317.904 171.907V172.396V172.884ZM321.818 171.907C321.549 171.907 321.33 172.126 321.33 172.396C321.33 172.665 321.549 172.884 321.818 172.884V172.396V171.907ZM325.733 172.884C326.003 172.884 326.222 172.665 326.222 172.396C326.222 172.126 326.003 171.907 325.733 171.907V172.396V172.884ZM329.648 171.907C329.378 171.907 329.16 172.126 329.16 172.396C329.16 172.665 329.378 172.884 329.648 172.884V172.396V171.907ZM88.8845 172.396V172.884H90.842V172.396V171.907H88.8845V172.396ZM94.7568 172.396V172.884H98.6717V172.396V171.907H94.7568V172.396ZM102.587 172.396V172.884H106.501V172.396V171.907H102.587V172.396ZM110.416 172.396V172.884H114.331V172.396V171.907H110.416V172.396ZM118.246 172.396V172.884H122.161V172.396V171.907H118.246V172.396ZM126.076 172.396V172.884H129.99V172.396V171.907H126.076V172.396ZM133.905 172.396V172.884H137.82V172.396V171.907H133.905V172.396ZM141.735 172.396V172.884H145.65V172.396V171.907H141.735V172.396ZM149.565 172.396V172.884H153.48V172.396V171.907H149.565V172.396ZM157.394 172.396V172.884H161.309V172.396V171.907H157.394V172.396ZM165.224 172.396V172.884H169.139V172.396V171.907H165.224V172.396ZM173.054 172.396V172.884H176.969V172.396V171.907H173.054V172.396ZM180.884 172.396V172.884H184.798V172.396V171.907H180.884V172.396ZM188.713 172.396V172.884H192.628V172.396V171.907H188.713V172.396ZM196.543 172.396V172.884H200.458V172.396V171.907H196.543V172.396ZM204.373 172.396V172.884H208.288V172.396V171.907H204.373V172.396ZM212.202 172.396V172.884H216.117V172.396V171.907H212.202V172.396ZM220.032 172.396V172.884H223.947V172.396V171.907H220.032V172.396ZM227.862 172.396V172.884H231.777V172.396V171.907H227.862V172.396ZM235.692 172.396V172.884H239.606V172.396V171.907H235.692V172.396ZM243.521 172.396V172.884H247.436V172.396V171.907H243.521V172.396ZM251.351 172.396V172.884H255.266V172.396V171.907H251.351V172.396ZM259.181 172.396V172.884H263.096V172.396V171.907H259.181V172.396ZM267.01 172.396V172.884H270.925V172.396V171.907H267.01V172.396ZM274.84 172.396V172.884H278.755V172.396V171.907H274.84V172.396ZM282.67 172.396V172.884H286.585V172.396V171.907H282.67V172.396ZM290.5 172.396V172.884H294.414V172.396V171.907H290.5V172.396ZM298.329 172.396V172.884H302.244V172.396V171.907H298.329V172.396ZM306.159 172.396V172.884H310.074V172.396V171.907H306.159V172.396ZM313.989 172.396V172.884H317.904V172.396V171.907H313.989V172.396ZM321.818 172.396V172.884H325.733V172.396V171.907H321.818V172.396ZM329.648 172.396V172.884H331.605V172.396V171.907H329.648V172.396Z" fill="#26260E" fill-opacity="0.5"/>
<path d="M107.888 98.9513H110.137V110.24C109.137 110.936 107.769 111.495 106.031 111.924C104.293 112.352 102.306 112.566 100.056 112.566C97.0871 112.566 94.5759 111.888 92.5408 110.525C90.4997 109.163 88.9704 107.36 87.9588 105.11C86.9472 102.861 86.4414 100.391 86.4414 97.6957C86.4414 95.0001 86.971 92.5782 88.0243 90.3467C89.0775 88.1093 90.6783 86.33 92.8145 84.9911C94.9508 83.6582 97.5632 82.9917 100.646 82.9917C102.591 82.9917 104.406 83.3487 106.102 84.0569C107.798 84.765 109.215 85.7706 110.351 87.0738L108.768 88.4901C107.882 87.3773 106.691 86.5085 105.204 85.8837C103.716 85.2589 102.199 84.9435 100.64 84.9435C98.1106 84.9435 95.9624 85.4969 94.1832 86.6097C92.404 87.7225 91.0591 89.2399 90.1427 91.1738C89.2263 93.1018 88.7681 95.2917 88.7681 97.7374C88.7681 100.183 89.2025 102.426 90.0832 104.384C90.9579 106.342 92.2433 107.877 93.9333 108.984C95.6292 110.097 97.6703 110.65 100.056 110.65C103.442 110.65 106.055 110.192 107.888 109.276V98.9454V98.9513Z" fill="#26260E"/>
<path d="M118.674 83.5808H121.006V111.906H118.674V83.5808Z" fill="#26260E"/>
<path d="M133.344 85.4969V96.3687H145.133V98.2848H133.344V111.906H131.012V83.5808H146.799V85.4969H133.344Z" fill="#26260E"/>
<path d="M172.619 85.4969H162.33V111.906H159.998V85.4969H149.709V83.5808H172.619V85.4969Z" fill="#26260E"/>
<path d="M255.639 83.5808L246.683 112.281H244.684L236.353 87.4963L227.981 112.281H225.981L217.4 83.5808H219.775L227.023 108.823L235.478 83.5808H237.228L245.725 108.823L253.348 83.5808H255.639Z" fill="#26260E"/>
<path d="M269.968 98.5764H264.428V111.906H262.096V83.5808H270.843C272.789 83.5808 274.437 83.9081 275.8 84.5627C277.163 85.2172 278.186 86.1039 278.882 87.2286C279.579 88.3532 279.924 89.6207 279.924 91.0429C279.924 93.0721 279.287 94.7383 278.008 96.0415C276.728 97.3446 274.884 98.1242 272.468 98.3741L282.34 111.912H279.674L269.968 98.5824V98.5764ZM264.428 96.6603H270.843C273.039 96.6603 274.711 96.1962 275.865 95.2679C277.02 94.3396 277.591 92.9412 277.591 91.0786C277.591 89.3827 277.002 88.0319 275.818 87.0143C274.64 86.0027 272.979 85.4969 270.843 85.4969H264.428V96.6603Z" fill="#26260E"/>
<path d="M303.456 102.159H291.501L287.752 111.906H285.461L296.499 83.2061H298.499L309.579 111.906H307.205L303.456 102.159ZM302.706 100.243L297.457 86.5384L292.209 100.243H302.706Z" fill="#26260E"/>
<path d="M329.555 84.5985C330.984 85.2768 332.061 86.217 332.787 87.4072C333.507 88.6032 333.87 89.9481 333.87 91.4477C333.87 93.8636 333.048 95.7916 331.412 97.2376C329.776 98.6836 327.425 99.4037 324.372 99.4037H317.958V111.9H315.625V83.575H324.372C326.402 83.575 328.127 83.9141 329.555 84.5985ZM329.704 95.9701C330.924 94.9585 331.537 93.4649 331.537 91.4953C331.537 89.6625 330.912 88.2046 329.663 87.1215C328.413 86.0385 326.652 85.497 324.372 85.497H317.958V97.4935H324.372C326.705 97.4935 328.484 96.9877 329.704 95.9761V95.9701Z" fill="#26260E"/>
<path d="M204.7 107.372C203.968 109.746 201.576 111.21 199.326 111.924C197.856 112.388 196.339 112.608 194.798 112.566C193.072 112.519 191.442 112.055 189.93 111.251C187.722 110.073 185.467 108.264 184.2 106.08C183.081 104.164 182.837 101.968 183.724 99.8916C184.551 97.9457 186.229 96.4878 188.026 95.4345C189.168 94.7681 190.347 94.2325 191.584 93.7624L194.53 92.6496C193.84 91.0668 193.381 89.4422 193.483 87.7165C193.637 84.7055 195.857 82.0932 198.731 81.3077C200.487 80.8257 202.581 81.028 203.914 82.361C205.063 83.5094 204.991 85.1935 204.354 86.5978C203.67 88.1033 202.254 89.3113 200.879 90.198C199.237 91.2334 197.541 91.9474 195.702 92.6377C196.631 94.7681 198.059 96.6247 199.564 98.3979L202.052 101.171C203.593 102.885 205.497 104.854 204.717 107.377H204.7V107.372ZM202.117 87.9724C202.754 87.175 203.206 86.2943 203.402 85.2887C203.688 83.8248 203.295 82.2955 201.796 81.7004C200.778 81.2958 199.648 81.3256 198.63 81.7421C196.999 82.4026 195.762 83.8367 195.179 85.4851C194.375 87.6213 194.691 90.1801 195.536 92.2688C197.928 91.281 200.487 90.0016 202.117 87.9724ZM199.57 110.692C200.647 110.127 201.57 109.347 202.26 108.347C203.2 106.979 203.706 105.122 202.807 103.629C202.236 102.676 201.54 101.837 200.802 101.01L199.207 99.2132C197.517 97.309 195.839 95.2679 194.673 92.9829L193.078 93.6612C192.001 94.1194 190.983 94.6371 189.978 95.2441C188.062 96.3985 186.288 97.8386 185.485 99.9987C184.527 102.569 185.271 105.253 186.919 107.354C188.068 108.818 189.531 110.008 191.192 110.853C193.822 112.192 196.988 112.049 199.564 110.692H199.57Z" fill="#26260E" stroke="#26260E" stroke-width="0.74383" stroke-miterlimit="10"/>
<path opacity="0.5" d="M122.224 126.711V130.192H126.163V131.234H122.224V135.786H120.855V125.67H126.764V126.711H122.224Z" fill="#26260E"/>
<path opacity="0.5" d="M132.037 135.322C131.287 134.852 130.727 134.215 130.347 133.412C129.972 132.608 129.781 131.722 129.781 130.746C129.781 129.77 129.972 128.889 130.347 128.092C130.721 127.294 131.287 126.658 132.037 126.187C132.786 125.717 133.685 125.479 134.738 125.479C135.791 125.479 136.69 125.717 137.44 126.187C138.19 126.658 138.749 127.294 139.13 128.092C139.505 128.889 139.695 129.77 139.695 130.734C139.695 131.698 139.505 132.608 139.13 133.412C138.755 134.215 138.19 134.852 137.44 135.322C136.69 135.792 135.791 136.03 134.738 136.03C133.685 136.03 132.786 135.792 132.037 135.322ZM136.666 134.411C137.202 134.048 137.606 133.548 137.886 132.906C138.166 132.263 138.303 131.543 138.303 130.74C138.303 129.936 138.166 129.216 137.886 128.586C137.606 127.949 137.202 127.449 136.66 127.086C136.119 126.717 135.476 126.539 134.732 126.539C133.988 126.539 133.334 126.723 132.792 127.086C132.251 127.455 131.84 127.955 131.566 128.586C131.287 129.222 131.15 129.942 131.15 130.74C131.15 131.537 131.287 132.263 131.566 132.906C131.846 133.548 132.251 134.048 132.792 134.411C133.334 134.774 133.982 134.953 134.732 134.953C135.482 134.953 136.131 134.774 136.666 134.411Z" fill="#26260E"/>
<path opacity="0.5" d="M147.163 131.341H145.318V135.792H143.949V125.676H147.341C148.49 125.676 149.364 125.926 149.959 126.42C150.554 126.914 150.852 127.592 150.852 128.455C150.852 129.181 150.656 129.77 150.275 130.234C149.888 130.698 149.317 131.002 148.561 131.15L151.864 135.792H150.275L147.163 131.341ZM145.312 130.299H147.335C148.763 130.299 149.477 129.698 149.477 128.502C149.477 127.937 149.293 127.497 148.93 127.175C148.561 126.86 148.031 126.699 147.341 126.699H145.318V130.299H145.312Z" fill="#26260E"/>
<path opacity="0.5" d="M162.062 134.762V135.792H155.861V125.676H161.764V126.699H157.23V129.925H161.169V130.954H157.23V134.762H162.062Z" fill="#26260E"/>
<path opacity="0.5" d="M174.273 125.67L170.358 135.905H169.037L165.109 125.67H166.508L169.709 134.37L172.911 125.67H174.279H174.273Z" fill="#26260E"/>
<path opacity="0.5" d="M184.318 134.762V135.792H178.117V125.676H184.02V126.699H179.486V129.925H183.425V130.954H179.486V134.762H184.318Z" fill="#26260E"/>
<path opacity="0.5" d="M191.813 131.341H189.968V135.792H188.6V125.676H191.991C193.14 125.676 194.015 125.926 194.61 126.42C195.205 126.914 195.502 127.592 195.502 128.455C195.502 129.181 195.306 129.77 194.919 130.234C194.532 130.698 193.961 131.002 193.205 131.15L196.508 135.792H194.913L191.807 131.341H191.813ZM189.968 130.299H191.991C193.42 130.299 194.134 129.698 194.134 128.502C194.134 127.937 193.949 127.497 193.58 127.175C193.211 126.86 192.682 126.699 191.991 126.699H189.968V130.299Z" fill="#26260E"/>
<path opacity="0.5" d="M203.629 139.285L203.79 138.256C204.039 138.303 204.266 138.327 204.474 138.327C205.021 138.327 205.414 138.142 205.658 137.779C205.902 137.416 206.021 136.839 206.021 136.066V125.67H207.408V136.095C207.408 137.167 207.175 137.988 206.717 138.547C206.253 139.112 205.557 139.398 204.611 139.398C204.325 139.398 203.998 139.356 203.629 139.279V139.285Z" fill="#26260E"/>
<path opacity="0.5" d="M218.695 134.762V135.792H212.494V125.676H218.397V126.699H213.863V129.925H217.802V130.954H213.863V134.762H218.695Z" fill="#26260E"/>
<path opacity="0.5" d="M236.161 125.67L232.876 135.905H231.567L228.871 127.544L226.181 135.905H224.872L221.748 125.67H223.146L225.556 134.251L228.276 125.67H229.484L232.233 134.281L234.762 125.67H236.161Z" fill="#26260E"/>
<path opacity="0.5" d="M246.206 134.762V135.792H240.006V125.676H245.909V126.699H241.374V129.925H245.314V130.954H241.374V134.762H246.206Z" fill="#26260E"/>
<path opacity="0.5" d="M256.689 134.762V135.792H250.482V125.676H251.851V134.762H256.689Z" fill="#26260E"/>
<path opacity="0.5" d="M266.806 134.762V135.792H260.6V125.676H261.968V134.762H266.806Z" fill="#26260E"/>
<path opacity="0.5" d="M276.929 134.762V135.792H270.723V125.676H276.632V126.699H272.097V129.925H276.037V130.954H272.097V134.762H276.929Z" fill="#26260E"/>
<path opacity="0.5" d="M284.42 131.341H282.576V135.792H281.207V125.676H284.599C285.747 125.676 286.622 125.926 287.217 126.42C287.812 126.914 288.11 127.592 288.11 128.455C288.11 129.181 287.913 129.77 287.527 130.234C287.14 130.698 286.569 131.002 285.813 131.15L289.115 135.792H287.521L284.414 131.341H284.42ZM282.582 130.299H284.605C286.033 130.299 286.747 129.698 286.747 128.502C286.747 127.937 286.563 127.497 286.194 127.175C285.825 126.86 285.295 126.699 284.605 126.699H282.582V130.299Z" fill="#26260E"/>
<path opacity="0.5" d="M296.971 131.68V135.786H295.602V131.692L291.871 125.67H293.371L296.304 130.609L299.232 125.67H300.72L296.971 131.68Z" fill="#26260E"/>
<path d="M356.537 74.1622C355.806 76.5365 353.413 78.0003 351.164 78.7144C349.694 79.1786 348.177 79.3987 346.636 79.3571C344.91 79.3095 343.279 78.8453 341.768 78.042C339.56 76.8638 337.305 75.0548 336.038 72.8709C334.919 70.9548 334.675 68.759 335.561 66.6822C336.389 64.7363 338.067 63.2784 339.864 62.2252C341.006 61.5587 342.185 61.0231 343.422 60.553L346.368 59.4403C345.678 57.8574 345.219 56.2329 345.321 54.5072C345.475 51.4962 347.695 48.8838 350.569 48.0983C352.324 47.6163 354.419 47.8187 355.752 49.1516C356.9 50.3001 356.829 51.9841 356.192 53.3885C355.508 54.894 354.092 56.102 352.717 56.9886C351.075 58.024 349.379 58.7381 347.54 59.4284C348.468 61.5587 349.897 63.4153 351.402 65.1886L353.889 67.9616C355.431 69.6754 357.335 71.645 356.555 74.1681H356.537V74.1622ZM353.955 54.7631C354.592 53.9657 355.044 53.085 355.24 52.0793C355.526 50.6155 355.133 49.0862 353.634 48.4911C352.616 48.0864 351.485 48.1162 350.468 48.5327C348.837 49.1933 347.6 50.6274 347.016 52.2757C346.213 54.412 346.529 56.9708 347.373 59.0594C349.766 58.0716 352.324 56.7922 353.955 54.7631ZM351.408 77.4826C352.485 76.9173 353.407 76.1378 354.098 75.1381C355.038 73.7694 355.544 71.9128 354.645 70.4192C354.074 69.4671 353.378 68.6281 352.64 67.8009L351.045 66.0038C349.355 64.0996 347.677 62.0586 346.511 59.7735L344.916 60.4519C343.839 60.9101 342.821 61.4278 341.816 62.0348C339.899 63.1892 338.126 64.6292 337.323 66.7893C336.365 69.36 337.109 72.0437 338.757 74.1443C339.905 75.6082 341.369 76.7983 343.03 77.6433C345.66 78.9822 348.825 78.8394 351.402 77.4826H351.408Z" fill="#C9C9C3" stroke="#C9C9C3" stroke-width="0.74383" stroke-miterlimit="10"/>
<rect x="335.023" y="140.651" width="21.9767" height="31.7442" stroke="#26260E" stroke-opacity="0.5" stroke-width="0.976744" stroke-linecap="round" stroke-dasharray="3.91 3.91"/>
<path d="M356.537 166.953C355.806 169.327 353.413 170.791 351.164 171.505C349.694 171.969 348.177 172.189 346.636 172.148C344.91 172.1 343.279 171.636 341.768 170.833C339.56 169.655 337.305 167.846 336.038 165.662C334.919 163.746 334.675 161.55 335.561 159.473C336.389 157.527 338.067 156.069 339.864 155.016C341.006 154.349 342.185 153.814 343.422 153.344L346.368 152.231C345.678 150.648 345.219 149.024 345.321 147.298C345.475 144.287 347.695 141.675 350.569 140.889C352.324 140.407 354.419 140.609 355.752 141.942C356.9 143.091 356.829 144.775 356.192 146.179C355.508 147.685 354.092 148.893 352.717 149.779C351.075 150.815 349.379 151.529 347.54 152.219C348.468 154.349 349.897 156.206 351.402 157.979L353.889 160.752C355.431 162.466 357.335 164.436 356.555 166.959H356.537V166.953ZM353.955 147.554C354.592 146.756 355.044 145.876 355.24 144.87C355.526 143.406 355.133 141.877 353.634 141.282C352.616 140.877 351.485 140.907 350.468 141.324C348.837 141.984 347.6 143.418 347.016 145.066C346.213 147.203 346.529 149.762 347.373 151.85C349.766 150.862 352.324 149.583 353.955 147.554ZM351.408 170.273C352.485 169.708 353.407 168.929 354.098 167.929C355.038 166.56 355.544 164.704 354.645 163.21C354.074 162.258 353.378 161.419 352.64 160.592L351.045 158.795C349.355 156.89 347.677 154.849 346.511 152.564L344.916 153.243C343.839 153.701 342.821 154.219 341.816 154.826C339.899 155.98 338.126 157.42 337.323 159.58C336.365 162.151 337.109 164.835 338.757 166.935C339.905 168.399 341.369 169.589 343.03 170.434C345.66 171.773 348.825 171.63 351.402 170.273H351.408Z" fill="#C9C9C3" stroke="#C9C9C3" stroke-width="0.74383" stroke-miterlimit="10"/>
<rect x="63.4883" y="47.8605" width="21.9767" height="31.7442" stroke="#26260E" stroke-opacity="0.5" stroke-width="0.976744" stroke-linecap="round" stroke-dasharray="3.91 3.91"/>
<path d="M85.0023 74.1622C84.2704 76.5365 81.8782 78.0003 79.6289 78.7144C78.1591 79.1786 76.6417 79.3987 75.1005 79.3571C73.3748 79.3095 71.7443 78.8453 70.2328 78.042C68.0252 76.8638 65.7699 75.0548 64.5024 72.8709C63.3837 70.9548 63.1397 68.759 64.0263 66.6822C64.8535 64.7363 66.5315 63.2784 68.3286 62.2252C69.4712 61.5587 70.6494 61.0231 71.8871 60.553L74.8327 59.4403C74.1424 57.8574 73.6842 56.2329 73.7854 54.5072C73.9401 51.4962 76.1597 48.8838 79.0338 48.0983C80.7893 47.6163 82.8839 47.8187 84.2169 49.1516C85.3653 50.3001 85.2939 51.9841 84.6572 53.3885C83.9729 54.894 82.5566 56.102 81.182 56.9886C79.5396 58.024 77.8437 58.7381 76.005 59.4284C76.9333 61.5587 78.3614 63.4153 79.8669 65.1886L82.3543 67.9616C83.8955 69.6754 85.7997 71.645 85.0202 74.1681H85.0023V74.1622ZM82.4198 54.7631C83.0565 53.9657 83.5087 53.085 83.7051 52.0793C83.9907 50.6155 83.598 49.0862 82.0984 48.4911C81.0809 48.0864 79.9502 48.1162 78.9327 48.5327C77.3022 49.1933 76.0645 50.6274 75.4813 52.2757C74.678 54.412 74.9933 56.9708 75.8383 59.0594C78.2305 58.0716 80.7893 56.7922 82.4198 54.7631ZM79.8729 77.4826C80.9499 76.9173 81.8723 76.1378 82.5626 75.1381C83.5028 73.7694 84.0086 71.9128 83.11 70.4192C82.5388 69.4671 81.8425 68.6281 81.1047 67.8009L79.5099 66.0038C77.8199 64.0996 76.1418 62.0586 74.9755 59.7735L73.3807 60.4519C72.3037 60.9101 71.2861 61.4278 70.2804 62.0348C68.3643 63.1892 66.5911 64.6292 65.7877 66.7893C64.8297 69.36 65.5735 72.0437 67.2218 74.1443C68.3703 75.6082 69.8342 76.7983 71.4944 77.6433C74.1246 78.9822 77.2903 78.8394 79.8669 77.4826H79.8729Z" fill="#C9C9C3" stroke="#C9C9C3" stroke-width="0.74383" stroke-miterlimit="10"/>
<rect x="63.4883" y="140.651" width="21.9767" height="31.7442" stroke="#26260E" stroke-opacity="0.5" stroke-width="0.976744" stroke-linecap="round" stroke-dasharray="3.91 3.91"/>
<path d="M85.0023 166.953C84.2704 169.327 81.8782 170.791 79.6289 171.505C78.1591 171.969 76.6417 172.189 75.1005 172.148C73.3748 172.1 71.7443 171.636 70.2328 170.833C68.0252 169.655 65.7699 167.846 64.5024 165.662C63.3837 163.746 63.1397 161.55 64.0263 159.473C64.8535 157.527 66.5315 156.069 68.3286 155.016C69.4712 154.349 70.6494 153.814 71.8871 153.344L74.8327 152.231C74.1424 150.648 73.6842 149.024 73.7854 147.298C73.9401 144.287 76.1597 141.675 79.0338 140.889C80.7893 140.407 82.8839 140.609 84.2169 141.942C85.3653 143.091 85.2939 144.775 84.6572 146.179C83.9729 147.685 82.5566 148.893 81.182 149.779C79.5396 150.815 77.8437 151.529 76.005 152.219C76.9333 154.349 78.3614 156.206 79.8669 157.979L82.3543 160.752C83.8955 162.466 85.7997 164.436 85.0202 166.959H85.0023V166.953ZM82.4198 147.554C83.0565 146.756 83.5087 145.876 83.7051 144.87C83.9907 143.406 83.598 141.877 82.0984 141.282C81.0809 140.877 79.9502 140.907 78.9327 141.324C77.3022 141.984 76.0645 143.418 75.4813 145.066C74.678 147.203 74.9933 149.762 75.8383 151.85C78.2305 150.862 80.7893 149.583 82.4198 147.554ZM79.8729 170.273C80.9499 169.708 81.8723 168.929 82.5626 167.929C83.5028 166.56 84.0086 164.704 83.11 163.21C82.5388 162.258 81.8425 161.419 81.1047 160.592L79.5099 158.795C77.8199 156.89 76.1418 154.849 74.9755 152.564L73.3807 153.243C72.3037 153.701 71.2861 154.219 70.2804 154.826C68.3643 155.98 66.5911 157.42 65.7877 159.58C64.8297 162.151 65.5735 164.835 67.2218 166.935C68.3703 168.399 69.8342 169.589 71.4944 170.434C74.1246 171.773 77.2903 171.63 79.8669 170.273H79.8729Z" fill="#C9C9C3" stroke="#C9C9C3" stroke-width="0.74383" stroke-miterlimit="10"/>
</svg>
