<svg width="420" height="220" viewBox="0 0 420 220" fill="none" xmlns="http://www.w3.org/2000/svg">
<rect width="420" height="220" fill="#E6E3DE"/>
<rect x="139.604" y="84.4243" width="140.791" height="50.3885" stroke="#26260E" stroke-opacity="0.5" stroke-width="1.44755" stroke-linecap="round" stroke-dasharray="5.79 5.79"/>
<rect x="280.396" y="37" width="32.5699" height="47.0453" stroke="#26260E" stroke-opacity="0.5" stroke-width="1.44755" stroke-linecap="round" stroke-dasharray="5.79 5.79"/>
<path d="M144.051 36.2762C143.651 36.2762 143.327 36.6003 143.327 37C143.327 37.3997 143.651 37.7238 144.051 37.7238V37V36.2762ZM275.95 37.7238C276.35 37.7238 276.674 37.3997 276.674 37C276.674 36.6003 276.35 36.2762 275.95 36.2762V37V37.7238ZM272.952 36.2762C272.553 36.2762 272.229 36.6003 272.229 37C272.229 37.3997 272.553 37.7238 272.952 37.7238V37V36.2762ZM266.957 37.7238C267.357 37.7238 267.681 37.3997 267.681 37C267.681 36.6003 267.357 36.2762 266.957 36.2762V37V37.7238ZM260.962 36.2762C260.562 36.2762 260.238 36.6003 260.238 37C260.238 37.3997 260.562 37.7238 260.962 37.7238V37V36.2762ZM254.966 37.7238C255.366 37.7238 255.69 37.3997 255.69 37C255.69 36.6003 255.366 36.2762 254.966 36.2762V37V37.7238ZM248.971 36.2762C248.571 36.2762 248.247 36.6003 248.247 37C248.247 37.3997 248.571 37.7238 248.971 37.7238V37V36.2762ZM242.975 37.7238C243.375 37.7238 243.699 37.3997 243.699 37C243.699 36.6003 243.375 36.2762 242.975 36.2762V37V37.7238ZM236.98 36.2762C236.58 36.2762 236.256 36.6003 236.256 37C236.256 37.3997 236.58 37.7238 236.98 37.7238V37V36.2762ZM230.984 37.7238C231.384 37.7238 231.708 37.3997 231.708 37C231.708 36.6003 231.384 36.2762 230.984 36.2762V37V37.7238ZM224.989 36.2762C224.589 36.2762 224.265 36.6003 224.265 37C224.265 37.3997 224.589 37.7238 224.989 37.7238V37V36.2762ZM218.994 37.7238C219.393 37.7238 219.717 37.3997 219.717 37C219.717 36.6003 219.393 36.2762 218.994 36.2762V37V37.7238ZM212.998 36.2762C212.598 36.2762 212.274 36.6003 212.274 37C212.274 37.3997 212.598 37.7238 212.998 37.7238V37V36.2762ZM207.003 37.7238C207.402 37.7238 207.726 37.3997 207.726 37C207.726 36.6003 207.402 36.2762 207.003 36.2762V37V37.7238ZM201.007 36.2762C200.608 36.2762 200.284 36.6003 200.284 37C200.284 37.3997 200.608 37.7238 201.007 37.7238V37V36.2762ZM195.012 37.7238C195.412 37.7238 195.736 37.3997 195.736 37C195.736 36.6003 195.412 36.2762 195.012 36.2762V37V37.7238ZM189.016 36.2762C188.617 36.2762 188.293 36.6003 188.293 37C188.293 37.3997 188.617 37.7238 189.016 37.7238V37V36.2762ZM183.021 37.7238C183.421 37.7238 183.745 37.3997 183.745 37C183.745 36.6003 183.421 36.2762 183.021 36.2762V37V37.7238ZM177.026 36.2762C176.626 36.2762 176.302 36.6003 176.302 37C176.302 37.3997 176.626 37.7238 177.026 37.7238V37V36.2762ZM171.03 37.7238C171.43 37.7238 171.754 37.3997 171.754 37C171.754 36.6003 171.43 36.2762 171.03 36.2762V37V37.7238ZM165.035 36.2762C164.635 36.2762 164.311 36.6003 164.311 37C164.311 37.3997 164.635 37.7238 165.035 37.7238V37V36.2762ZM159.039 37.7238C159.439 37.7238 159.763 37.3997 159.763 37C159.763 36.6003 159.439 36.2762 159.039 36.2762V37V37.7238ZM153.044 36.2762C152.644 36.2762 152.32 36.6003 152.32 37C152.32 37.3997 152.644 37.7238 153.044 37.7238V37V36.2762ZM147.048 37.7238C147.448 37.7238 147.772 37.3997 147.772 37C147.772 36.6003 147.448 36.2762 147.048 36.2762V37V37.7238ZM275.95 37V36.2762H272.952V37V37.7238H275.95V37ZM266.957 37V36.2762H260.962V37V37.7238H266.957V37ZM254.966 37V36.2762H248.971V37V37.7238H254.966V37ZM242.975 37V36.2762H236.98V37V37.7238H242.975V37ZM230.984 37V36.2762H224.989V37V37.7238H230.984V37ZM218.994 37V36.2762H212.998V37V37.7238H218.994V37ZM207.003 37V36.2762H201.007V37V37.7238H207.003V37ZM195.012 37V36.2762H189.016V37V37.7238H195.012V37ZM183.021 37V36.2762H177.026V37V37.7238H183.021V37ZM171.03 37V36.2762H165.035V37V37.7238H171.03V37ZM159.039 37V36.2762H153.044V37V37.7238H159.039V37ZM147.048 37V36.2762H144.051V37V37.7238H147.048V37Z" fill="#26260E" fill-opacity="0.5"/>
<path d="M144.051 182.961C143.651 182.961 143.327 182.637 143.327 182.237C143.327 181.838 143.651 181.514 144.051 181.514V182.237V182.961ZM275.95 181.514C276.35 181.514 276.674 181.838 276.674 182.237C276.674 182.637 276.35 182.961 275.95 182.961V182.237V181.514ZM272.952 182.961C272.553 182.961 272.229 182.637 272.229 182.237C272.229 181.838 272.553 181.514 272.952 181.514V182.237V182.961ZM266.957 181.514C267.357 181.514 267.681 181.838 267.681 182.237C267.681 182.637 267.357 182.961 266.957 182.961V182.237V181.514ZM260.962 182.961C260.562 182.961 260.238 182.637 260.238 182.237C260.238 181.838 260.562 181.514 260.962 181.514V182.237V182.961ZM254.966 181.514C255.366 181.514 255.69 181.838 255.69 182.237C255.69 182.637 255.366 182.961 254.966 182.961V182.237V181.514ZM248.971 182.961C248.571 182.961 248.247 182.637 248.247 182.237C248.247 181.838 248.571 181.514 248.971 181.514V182.237V182.961ZM242.975 181.514C243.375 181.514 243.699 181.838 243.699 182.237C243.699 182.637 243.375 182.961 242.975 182.961V182.237V181.514ZM236.98 182.961C236.58 182.961 236.256 182.637 236.256 182.237C236.256 181.838 236.58 181.514 236.98 181.514V182.237V182.961ZM230.984 181.514C231.384 181.514 231.708 181.838 231.708 182.237C231.708 182.637 231.384 182.961 230.984 182.961V182.237V181.514ZM224.989 182.961C224.589 182.961 224.265 182.637 224.265 182.237C224.265 181.838 224.589 181.514 224.989 181.514V182.237V182.961ZM218.994 181.514C219.393 181.514 219.717 181.838 219.717 182.237C219.717 182.637 219.393 182.961 218.994 182.961V182.237V181.514ZM212.998 182.961C212.598 182.961 212.274 182.637 212.274 182.237C212.274 181.838 212.598 181.514 212.998 181.514V182.237V182.961ZM207.003 181.514C207.402 181.514 207.726 181.838 207.726 182.237C207.726 182.637 207.402 182.961 207.003 182.961V182.237V181.514ZM201.007 182.961C200.608 182.961 200.284 182.637 200.284 182.237C200.284 181.838 200.608 181.514 201.007 181.514V182.237V182.961ZM195.012 181.514C195.412 181.514 195.736 181.838 195.736 182.237C195.736 182.637 195.412 182.961 195.012 182.961V182.237V181.514ZM189.016 182.961C188.617 182.961 188.293 182.637 188.293 182.237C188.293 181.838 188.617 181.514 189.016 181.514V182.237V182.961ZM183.021 181.514C183.421 181.514 183.745 181.838 183.745 182.237C183.745 182.637 183.421 182.961 183.021 182.961V182.237V181.514ZM177.026 182.961C176.626 182.961 176.302 182.637 176.302 182.237C176.302 181.838 176.626 181.514 177.026 181.514V182.237V182.961ZM171.03 181.514C171.43 181.514 171.754 181.838 171.754 182.237C171.754 182.637 171.43 182.961 171.03 182.961V182.237V181.514ZM165.035 182.961C164.635 182.961 164.311 182.637 164.311 182.237C164.311 181.838 164.635 181.514 165.035 181.514V182.237V182.961ZM159.039 181.514C159.439 181.514 159.763 181.838 159.763 182.237C159.763 182.637 159.439 182.961 159.039 182.961V182.237V181.514ZM153.044 182.961C152.644 182.961 152.32 182.637 152.32 182.237C152.32 181.838 152.644 181.514 153.044 181.514V182.237V182.961ZM147.048 181.514C147.448 181.514 147.772 181.838 147.772 182.237C147.772 182.637 147.448 182.961 147.048 182.961V182.237V181.514ZM275.95 182.237V182.961H272.952V182.237V181.514H275.95V182.237ZM266.957 182.237V182.961H260.962V182.237V181.514H266.957V182.237ZM254.966 182.237V182.961H248.971V182.237V181.514H254.966V182.237ZM242.975 182.237V182.961H236.98V182.237V181.514H242.975V182.237ZM230.984 182.237V182.961H224.989V182.237V181.514H230.984V182.237ZM218.994 182.237V182.961H212.998V182.237V181.514H218.994V182.237ZM207.003 182.237V182.961H201.007V182.237V181.514H207.003V182.237ZM195.012 182.237V182.961H189.016V182.237V181.514H195.012V182.237ZM183.021 182.237V182.961H177.026V182.237V181.514H183.021V182.237ZM171.03 182.237V182.961H165.035V182.237V181.514H171.03V182.237ZM159.039 182.237V182.961H153.044V182.237V181.514H159.039V182.237ZM147.048 182.237V182.961H144.051V182.237V181.514H147.048V182.237Z" fill="#26260E" fill-opacity="0.5"/>
<path d="M106.276 88.8705C106.276 88.4708 106.6 88.1467 107 88.1467C107.4 88.1467 107.724 88.4708 107.724 88.8705L107 88.8705L106.276 88.8705ZM107.724 130.367C107.724 130.767 107.4 131.091 107 131.091C106.6 131.091 106.276 130.767 106.276 130.367L107 130.367L107.724 130.367ZM106.276 127.773C106.276 127.374 106.6 127.05 107 127.05C107.4 127.05 107.724 127.374 107.724 127.773L107 127.773L106.276 127.773ZM107.724 122.586C107.724 122.986 107.4 123.31 107 123.31C106.6 123.31 106.276 122.986 106.276 122.586L107 122.586L107.724 122.586ZM106.276 117.399C106.276 117 106.6 116.675 107 116.675C107.4 116.675 107.724 117 107.724 117.399L107 117.399L106.276 117.399ZM107.724 112.212C107.724 112.612 107.4 112.936 107 112.936C106.6 112.936 106.276 112.612 106.276 112.212L107 112.212L107.724 112.212ZM106.276 107.025C106.276 106.625 106.6 106.301 107 106.301C107.4 106.301 107.724 106.625 107.724 107.025L107 107.025L106.276 107.025ZM107.724 101.838C107.724 102.238 107.4 102.562 107 102.562C106.6 102.562 106.276 102.238 106.276 101.838L107 101.838L107.724 101.838ZM106.276 96.6511C106.276 96.2513 106.6 95.9273 107 95.9273C107.4 95.9273 107.724 96.2513 107.724 96.6511L107 96.6511L106.276 96.6511ZM107.724 91.464C107.724 91.8637 107.4 92.1878 107 92.1878C106.6 92.1878 106.276 91.8637 106.276 91.464L107 91.464L107.724 91.464ZM107 130.367L106.276 130.367L106.276 127.773L107 127.773L107.724 127.773L107.724 130.367L107 130.367ZM107 122.586L106.276 122.586L106.276 117.399L107 117.399L107.724 117.399L107.724 122.586L107 122.586ZM107 112.212L106.276 112.212L106.276 107.025L107 107.025L107.724 107.025L107.724 112.212L107 112.212ZM107 101.838L106.276 101.838L106.276 96.6511L107 96.6511L107.724 96.6511L107.724 101.838L107 101.838ZM107 91.464L106.276 91.464L106.276 88.8705L107 88.8705L107.724 88.8705L107.724 91.464L107 91.464Z" fill="#26260E" fill-opacity="0.5"/>
<path d="M313.724 88.8705C313.724 88.4708 313.4 88.1467 313 88.1467C312.6 88.1467 312.276 88.4708 312.276 88.8705L313 88.8705L313.724 88.8705ZM312.276 130.367C312.276 130.767 312.6 131.091 313 131.091C313.4 131.091 313.724 130.767 313.724 130.367L313 130.367L312.276 130.367ZM313.724 127.773C313.724 127.374 313.4 127.05 313 127.05C312.6 127.05 312.276 127.374 312.276 127.773L313 127.773L313.724 127.773ZM312.276 122.586C312.276 122.986 312.6 123.31 313 123.31C313.4 123.31 313.724 122.986 313.724 122.586L313 122.586L312.276 122.586ZM313.724 117.399C313.724 117 313.4 116.675 313 116.675C312.6 116.675 312.276 117 312.276 117.399L313 117.399L313.724 117.399ZM312.276 112.212C312.276 112.612 312.6 112.936 313 112.936C313.4 112.936 313.724 112.612 313.724 112.212L313 112.212L312.276 112.212ZM313.724 107.025C313.724 106.625 313.4 106.301 313 106.301C312.6 106.301 312.276 106.625 312.276 107.025L313 107.025L313.724 107.025ZM312.276 101.838C312.276 102.238 312.6 102.562 313 102.562C313.4 102.562 313.724 102.238 313.724 101.838L313 101.838L312.276 101.838ZM313.724 96.6511C313.724 96.2513 313.4 95.9273 313 95.9273C312.6 95.9273 312.276 96.2513 312.276 96.6511L313 96.6511L313.724 96.6511ZM312.276 91.464C312.276 91.8637 312.6 92.1878 313 92.1878C313.4 92.1878 313.724 91.8637 313.724 91.464L313 91.464L312.276 91.464ZM313 130.367L313.724 130.367L313.724 127.773L313 127.773L312.276 127.773L312.276 130.367L313 130.367ZM313 122.586L313.724 122.586L313.724 117.399L313 117.399L312.276 117.399L312.276 122.586L313 122.586ZM313 112.212L313.724 112.212L313.724 107.025L313 107.025L312.276 107.025L312.276 112.212L313 112.212ZM313 101.838L313.724 101.838L313.724 96.6511L313 96.6511L312.276 96.6511L312.276 101.838L313 101.838ZM313 91.464L313.724 91.464L313.724 88.8705L313 88.8705L312.276 88.8705L312.276 91.464L313 91.464Z" fill="#26260E" fill-opacity="0.5"/>
<path d="M312.281 75.9795C311.196 79.4982 307.651 81.6677 304.317 82.726C302.139 83.4138 299.89 83.7401 297.606 83.6784C295.048 83.6079 292.632 82.92 290.392 81.7294C287.12 79.9833 283.778 77.3023 281.899 74.0658C280.241 71.2261 279.88 67.9719 281.194 64.8941C282.42 62.0103 284.907 59.8496 287.57 58.2887C289.263 57.301 291.009 56.5073 292.844 55.8106L297.209 54.1614C296.186 51.8156 295.507 49.408 295.657 46.8505C295.886 42.3881 299.176 38.5166 303.435 37.3525C306.037 36.6382 309.141 36.938 311.117 38.9135C312.819 40.6155 312.713 43.1113 311.769 45.1926C310.755 47.4238 308.656 49.214 306.619 50.528C304.185 52.0625 301.671 53.1208 298.946 54.1438C300.322 57.301 302.439 60.0525 304.67 62.6805L308.356 66.7901C310.64 69.33 313.462 72.2491 312.307 75.9883H312.281V75.9795ZM308.453 47.2297C309.397 46.048 310.067 44.7428 310.358 43.2524C310.781 41.0829 310.199 38.8165 307.977 37.9346C306.469 37.3349 304.793 37.379 303.285 37.9963C300.869 38.9752 299.035 41.1006 298.17 43.5434C296.98 46.7094 297.447 50.5016 298.699 53.597C302.245 52.1331 306.037 50.237 308.453 47.2297ZM304.679 80.9004C306.275 80.0626 307.642 78.9074 308.665 77.4258C310.058 75.3974 310.808 72.6459 309.476 70.4324C308.63 69.0213 307.598 67.7779 306.504 66.552L304.141 63.8887C301.636 61.0667 299.149 58.0418 297.421 54.6553L295.057 55.6607C293.461 56.3397 291.953 57.107 290.463 58.0065C287.623 59.7174 284.995 61.8515 283.804 65.0528C282.384 68.8626 283.487 72.8399 285.93 75.953C287.632 78.1225 289.801 79.8863 292.262 81.1386C296.16 83.1228 300.851 82.9112 304.67 80.9004H304.679Z" fill="#C9C9C3" stroke="#C9C9C3" stroke-width="1.10237" stroke-miterlimit="10"/>
<rect x="280.396" y="134.813" width="32.5699" height="47.0453" stroke="#26260E" stroke-opacity="0.5" stroke-width="1.44755" stroke-linecap="round" stroke-dasharray="5.79 5.79"/>
<path d="M312.281 173.792C311.196 177.311 307.651 179.481 304.317 180.539C302.139 181.227 299.89 181.553 297.606 181.491C295.048 181.421 292.632 180.733 290.392 179.542C287.12 177.796 283.778 175.115 281.899 171.879C280.241 169.039 279.88 165.785 281.194 162.707C282.42 159.823 284.907 157.663 287.57 156.102C289.263 155.114 291.009 154.32 292.844 153.624L297.209 151.974C296.186 149.629 295.507 147.221 295.657 144.664C295.886 140.201 299.176 136.33 303.435 135.166C306.037 134.451 309.141 134.751 311.117 136.726C312.819 138.429 312.713 140.924 311.769 143.006C310.755 145.237 308.656 147.027 306.619 148.341C304.185 149.876 301.671 150.934 298.946 151.957C300.322 155.114 302.439 157.865 304.67 160.494L308.356 164.603C310.64 167.143 313.462 170.062 312.307 173.801H312.281V173.792ZM308.453 145.043C309.397 143.861 310.067 142.556 310.358 141.065C310.781 138.896 310.199 136.629 307.977 135.748C306.469 135.148 304.793 135.192 303.285 135.809C300.869 136.788 299.035 138.914 298.17 141.356C296.98 144.522 297.447 148.315 298.699 151.41C302.245 149.946 306.037 148.05 308.453 145.043ZM304.679 178.713C306.275 177.876 307.642 176.72 308.665 175.239C310.058 173.21 310.808 170.459 309.476 168.245C308.63 166.834 307.598 165.591 306.504 164.365L304.141 161.702C301.636 158.88 299.149 155.855 297.421 152.468L295.057 153.474C293.461 154.153 291.953 154.92 290.463 155.819C287.623 157.53 284.995 159.665 283.804 162.866C282.384 166.676 283.487 170.653 285.93 173.766C287.632 175.935 289.801 177.699 292.262 178.952C296.16 180.936 300.851 180.724 304.67 178.713H304.679Z" fill="#C9C9C3" stroke="#C9C9C3" stroke-width="1.10237" stroke-miterlimit="10"/>
<rect x="107" y="37" width="32.5699" height="47.0453" stroke="#26260E" stroke-opacity="0.5" stroke-width="1.44755" stroke-linecap="round" stroke-dasharray="5.79 5.79"/>
<path d="M138.884 75.9795C137.799 79.4982 134.254 81.6677 130.921 82.726C128.742 83.4138 126.494 83.7401 124.209 83.6784C121.652 83.6079 119.236 82.92 116.996 81.7294C113.724 79.9833 110.381 77.3023 108.503 74.0658C106.845 71.2261 106.483 67.9719 107.797 64.8941C109.023 62.0103 111.51 59.8496 114.173 58.2887C115.867 57.301 117.613 56.5073 119.447 55.8106L123.813 54.1614C122.79 51.8156 122.111 49.408 122.26 46.8505C122.49 42.3881 125.779 38.5166 130.039 37.3525C132.64 36.6382 135.745 36.938 137.72 38.9135C139.422 40.6155 139.316 43.1113 138.373 45.1926C137.358 47.4238 135.26 49.214 133.222 50.528C130.788 52.0625 128.275 53.1208 125.55 54.1438C126.926 57.301 129.042 60.0525 131.273 62.6805L134.96 66.7901C137.244 69.33 140.066 72.2491 138.911 75.9883H138.884V75.9795ZM135.057 47.2297C136 46.048 136.671 44.7428 136.962 43.2524C137.385 41.0829 136.803 38.8165 134.581 37.9346C133.072 37.3349 131.397 37.379 129.889 37.9963C127.472 38.9752 125.638 41.1006 124.774 43.5434C123.583 46.7094 124.051 50.5016 125.303 53.597C128.848 52.1331 132.64 50.237 135.057 47.2297ZM131.282 80.9004C132.878 80.0626 134.245 78.9074 135.268 77.4258C136.662 75.3974 137.411 72.6459 136.08 70.4324C135.233 69.0213 134.201 67.7779 133.108 66.552L130.744 63.8887C128.24 61.0667 125.753 58.0418 124.024 54.6553L121.661 55.6607C120.065 56.3397 118.556 57.107 117.066 58.0065C114.226 59.7174 111.598 61.8515 110.408 65.0528C108.988 68.8626 110.09 72.8399 112.533 75.953C114.235 78.1225 116.405 79.8863 118.865 81.1386C122.763 83.1228 127.455 82.9112 131.273 80.9004H131.282Z" fill="#C9C9C3" stroke="#C9C9C3" stroke-width="1.10237" stroke-miterlimit="10"/>
<rect x="107" y="134.813" width="32.5699" height="47.0453" stroke="#26260E" stroke-opacity="0.5" stroke-width="1.44755" stroke-linecap="round" stroke-dasharray="5.79 5.79"/>
<path d="M138.884 173.792C137.799 177.311 134.254 179.481 130.921 180.539C128.742 181.227 126.494 181.553 124.209 181.491C121.652 181.421 119.236 180.733 116.996 179.542C113.724 177.796 110.381 175.115 108.503 171.879C106.845 169.039 106.483 165.785 107.797 162.707C109.023 159.823 111.51 157.663 114.173 156.102C115.867 155.114 117.613 154.32 119.447 153.623L123.813 151.974C122.79 149.628 122.111 147.221 122.26 144.663C122.49 140.201 125.779 136.33 130.039 135.165C132.64 134.451 135.745 134.751 137.72 136.726C139.422 138.428 139.316 140.924 138.373 143.005C137.358 145.237 135.26 147.027 133.222 148.341C130.788 149.875 128.275 150.934 125.55 151.957C126.926 155.114 129.042 157.865 131.273 160.493L134.96 164.603C137.244 167.143 140.066 170.062 138.911 173.801H138.884V173.792ZM135.057 145.043C136 143.861 136.671 142.556 136.962 141.065C137.385 138.896 136.803 136.629 134.581 135.747C133.072 135.148 131.397 135.192 129.889 135.809C127.472 136.788 125.638 138.913 124.774 141.356C123.583 144.522 124.051 148.314 125.303 151.41C128.848 149.946 132.64 148.05 135.057 145.043ZM131.282 178.713C132.878 177.876 134.245 176.72 135.268 175.239C136.662 173.21 137.411 170.459 136.08 168.245C135.233 166.834 134.201 165.591 133.108 164.365L130.744 161.702C128.24 158.88 125.753 155.855 124.024 152.468L121.661 153.474C120.065 154.153 118.556 154.92 117.066 155.819C114.226 157.53 111.598 159.664 110.408 162.866C108.988 166.675 110.09 170.653 112.533 173.766C114.235 175.935 116.405 177.699 118.865 178.951C122.763 180.936 127.455 180.724 131.273 178.713H131.282Z" fill="#C9C9C3" stroke="#C9C9C3" stroke-width="1.10237" stroke-miterlimit="10"/>
<path d="M175.834 111.412H179.168V128.142C177.686 129.173 175.658 130.002 173.083 130.637C170.508 131.272 167.562 131.59 164.229 131.59C159.828 131.59 156.106 130.585 153.09 128.565C150.065 126.545 147.799 123.873 146.3 120.54C144.8 117.206 144.051 113.546 144.051 109.551C144.051 105.556 144.836 101.967 146.397 98.66C147.958 95.3441 150.33 92.7072 153.496 90.7229C156.662 88.7475 160.533 87.7598 165.102 87.7598C167.985 87.7598 170.675 88.2889 173.189 89.3384C175.702 90.3878 177.801 91.8782 179.485 93.8096L177.139 95.9085C175.825 94.2593 174.062 92.9718 171.857 92.0458C169.652 91.1198 167.403 90.6524 165.093 90.6524C161.345 90.6524 158.161 91.4725 155.524 93.1217C152.887 94.7708 150.894 97.0196 149.536 99.8858C148.178 102.743 147.499 105.989 147.499 109.613C147.499 113.238 148.143 116.562 149.448 119.464C150.744 122.365 152.649 124.641 155.154 126.281C157.667 127.93 160.692 128.75 164.229 128.75C169.246 128.75 173.118 128.071 175.834 126.713V111.403V111.412Z" fill="#26260E"/>
<path d="M275.745 88.6327L262.472 131.166H259.509L247.163 94.4355L234.754 131.166H231.791L219.074 88.6327H222.593L233.334 126.043L245.866 88.6327H248.459L261.052 126.043L272.349 88.6327H275.745Z" fill="#26260E"/>
<path d="M215.176 124.411C214.144 127.753 210.784 129.808 207.618 130.814C205.555 131.466 203.42 131.775 201.242 131.713C198.817 131.651 196.524 130.999 194.39 129.861C191.277 128.203 188.111 125.654 186.32 122.585C184.751 119.887 184.398 116.8 185.65 113.881C186.814 111.147 189.169 109.093 191.7 107.611C193.314 106.676 194.963 105.918 196.709 105.256L200.854 103.686C199.884 101.464 199.24 99.1712 199.381 96.746C199.602 92.5129 202.724 88.8354 206.763 87.7242C209.232 87.0452 212.178 87.3274 214.056 89.2058C215.67 90.8197 215.564 93.192 214.673 95.1674C213.712 97.2928 211.719 98.986 209.788 100.229C207.477 101.685 205.096 102.69 202.503 103.66C203.817 106.65 205.819 109.269 207.936 111.765L211.437 115.671C213.597 118.088 216.278 120.848 215.185 124.402L215.176 124.411ZM211.551 97.1164C212.451 95.9964 213.086 94.7529 213.359 93.3419C213.756 91.2871 213.209 89.1264 211.102 88.2974C209.664 87.733 208.077 87.7771 206.648 88.3504C204.355 89.2764 202.609 91.3047 201.798 93.6153C200.669 96.6225 201.11 100.221 202.3 103.157C205.669 101.773 209.267 99.9649 211.56 97.1164H211.551ZM207.971 129.076C209.488 128.283 210.784 127.189 211.754 125.778C213.077 123.855 213.791 121.245 212.53 119.137C211.728 117.797 210.749 116.624 209.708 115.451L207.459 112.929C205.078 110.257 202.724 107.382 201.083 104.163L198.843 105.115C197.326 105.759 195.898 106.482 194.487 107.338C191.788 108.96 189.301 110.989 188.164 114.031C186.814 117.647 187.864 121.421 190.183 124.376C191.797 126.439 193.861 128.106 196.189 129.297C199.884 131.175 204.338 130.972 207.971 129.076Z" fill="#26260E" stroke="#26260E" stroke-width="1.10237" stroke-miterlimit="10"/>
</svg>
