<svg width="420" height="220" viewBox="0 0 420 220" fill="none" xmlns="http://www.w3.org/2000/svg">
<rect width="420" height="220" fill="#26260E"/>
<rect x="85.4648" y="79.6046" width="249.558" height="61.0465" stroke="#E6E3DE" stroke-opacity="0.5" stroke-width="0.976744" stroke-linecap="round" stroke-dasharray="3.91 3.91"/>
<rect x="335.025" y="47.8602" width="21.9767" height="31.7442" stroke="#E6E3DE" stroke-opacity="0.5" stroke-width="0.976744" stroke-linecap="round" stroke-dasharray="3.91 3.91"/>
<path d="M88.8828 47.3719C88.6131 47.3719 88.3944 47.5905 88.3944 47.8602C88.3944 48.1299 88.6131 48.3486 88.8828 48.3486V47.8602V47.3719ZM331.604 48.3486C331.873 48.3486 332.092 48.1299 332.092 47.8602C332.092 47.5905 331.873 47.3719 331.604 47.3719V47.8602V48.3486ZM329.646 47.3719C329.377 47.3719 329.158 47.5905 329.158 47.8602C329.158 48.1299 329.377 48.3486 329.646 48.3486V47.8602V47.3719ZM325.731 48.3486C326.001 48.3486 326.22 48.1299 326.22 47.8602C326.22 47.5905 326.001 47.3719 325.731 47.3719V47.8602V48.3486ZM321.817 47.3719C321.547 47.3719 321.328 47.5905 321.328 47.8602C321.328 48.1299 321.547 48.3486 321.817 48.3486V47.8602V47.3719ZM317.902 48.3486C318.171 48.3486 318.39 48.1299 318.39 47.8602C318.39 47.5905 318.171 47.3719 317.902 47.3719V47.8602V48.3486ZM313.987 47.3719C313.717 47.3719 313.499 47.5905 313.499 47.8602C313.499 48.1299 313.717 48.3486 313.987 48.3486V47.8602V47.3719ZM310.072 48.3486C310.342 48.3486 310.56 48.1299 310.56 47.8602C310.56 47.5905 310.342 47.3719 310.072 47.3719V47.8602V48.3486ZM306.157 47.3719C305.887 47.3719 305.669 47.5905 305.669 47.8602C305.669 48.1299 305.887 48.3486 306.157 48.3486V47.8602V47.3719ZM302.242 48.3486C302.512 48.3486 302.731 48.1299 302.731 47.8602C302.731 47.5905 302.512 47.3719 302.242 47.3719V47.8602V48.3486ZM298.327 47.3719C298.058 47.3719 297.839 47.5905 297.839 47.8602C297.839 48.1299 298.058 48.3486 298.327 48.3486V47.8602V47.3719ZM294.413 48.3486C294.682 48.3486 294.901 48.1299 294.901 47.8602C294.901 47.5905 294.682 47.3719 294.413 47.3719V47.8602V48.3486ZM290.498 47.3719C290.228 47.3719 290.009 47.5905 290.009 47.8602C290.009 48.1299 290.228 48.3486 290.498 48.3486V47.8602V47.3719ZM286.583 48.3486C286.853 48.3486 287.071 48.1299 287.071 47.8602C287.071 47.5905 286.853 47.3719 286.583 47.3719V47.8602V48.3486ZM282.668 47.3719C282.398 47.3719 282.18 47.5905 282.18 47.8602C282.18 48.1299 282.398 48.3486 282.668 48.3486V47.8602V47.3719ZM278.753 48.3486C279.023 48.3486 279.242 48.1299 279.242 47.8602C279.242 47.5905 279.023 47.3719 278.753 47.3719V47.8602V48.3486ZM274.838 47.3719C274.569 47.3719 274.35 47.5905 274.35 47.8602C274.35 48.1299 274.569 48.3486 274.838 48.3486V47.8602V47.3719ZM270.924 48.3486C271.193 48.3486 271.412 48.1299 271.412 47.8602C271.412 47.5905 271.193 47.3719 270.924 47.3719V47.8602V48.3486ZM267.009 47.3719C266.739 47.3719 266.52 47.5905 266.52 47.8602C266.52 48.1299 266.739 48.3486 267.009 48.3486V47.8602V47.3719ZM263.094 48.3486C263.364 48.3486 263.582 48.1299 263.582 47.8602C263.582 47.5905 263.364 47.3719 263.094 47.3719V47.8602V48.3486ZM259.179 47.3719C258.909 47.3719 258.691 47.5905 258.691 47.8602C258.691 48.1299 258.909 48.3486 259.179 48.3486V47.8602V47.3719ZM255.264 48.3486C255.534 48.3486 255.752 48.1299 255.752 47.8602C255.752 47.5905 255.534 47.3719 255.264 47.3719V47.8602V48.3486ZM251.349 47.3719C251.08 47.3719 250.861 47.5905 250.861 47.8602C250.861 48.1299 251.08 48.3486 251.349 48.3486V47.8602V47.3719ZM247.434 48.3486C247.704 48.3486 247.923 48.1299 247.923 47.8602C247.923 47.5905 247.704 47.3719 247.434 47.3719V47.8602V48.3486ZM243.52 47.3719C243.25 47.3719 243.031 47.5905 243.031 47.8602C243.031 48.1299 243.25 48.3486 243.52 48.3486V47.8602V47.3719ZM239.605 48.3486C239.874 48.3486 240.093 48.1299 240.093 47.8602C240.093 47.5905 239.874 47.3719 239.605 47.3719V47.8602V48.3486ZM235.69 47.3719C235.42 47.3719 235.201 47.5905 235.201 47.8602C235.201 48.1299 235.42 48.3486 235.69 48.3486V47.8602V47.3719ZM231.775 48.3486C232.045 48.3486 232.263 48.1299 232.263 47.8602C232.263 47.5905 232.045 47.3719 231.775 47.3719V47.8602V48.3486ZM227.86 47.3719C227.59 47.3719 227.372 47.5905 227.372 47.8602C227.372 48.1299 227.59 48.3486 227.86 48.3486V47.8602V47.3719ZM223.945 48.3486C224.215 48.3486 224.434 48.1299 224.434 47.8602C224.434 47.5905 224.215 47.3719 223.945 47.3719V47.8602V48.3486ZM220.03 47.3719C219.761 47.3719 219.542 47.5905 219.542 47.8602C219.542 48.1299 219.761 48.3486 220.03 48.3486V47.8602V47.3719ZM216.116 48.3486C216.385 48.3486 216.604 48.1299 216.604 47.8602C216.604 47.5905 216.385 47.3719 216.116 47.3719V47.8602V48.3486ZM212.201 47.3719C211.931 47.3719 211.712 47.5905 211.712 47.8602C211.712 48.1299 211.931 48.3486 212.201 48.3486V47.8602V47.3719ZM208.286 48.3486C208.556 48.3486 208.774 48.1299 208.774 47.8602C208.774 47.5905 208.556 47.3719 208.286 47.3719V47.8602V48.3486ZM204.371 47.3719C204.101 47.3719 203.883 47.5905 203.883 47.8602C203.883 48.1299 204.101 48.3486 204.371 48.3486V47.8602V47.3719ZM200.456 48.3486C200.726 48.3486 200.944 48.1299 200.944 47.8602C200.944 47.5905 200.726 47.3719 200.456 47.3719V47.8602V48.3486ZM196.541 47.3719C196.272 47.3719 196.053 47.5905 196.053 47.8602C196.053 48.1299 196.272 48.3486 196.541 48.3486V47.8602V47.3719ZM192.626 48.3486C192.896 48.3486 193.115 48.1299 193.115 47.8602C193.115 47.5905 192.896 47.3719 192.626 47.3719V47.8602V48.3486ZM188.712 47.3719C188.442 47.3719 188.223 47.5905 188.223 47.8602C188.223 48.1299 188.442 48.3486 188.712 48.3486V47.8602V47.3719ZM184.797 48.3486C185.066 48.3486 185.285 48.1299 185.285 47.8602C185.285 47.5905 185.066 47.3719 184.797 47.3719V47.8602V48.3486ZM180.882 47.3719C180.612 47.3719 180.393 47.5905 180.393 47.8602C180.393 48.1299 180.612 48.3486 180.882 48.3486V47.8602V47.3719ZM176.967 48.3486C177.237 48.3486 177.455 48.1299 177.455 47.8602C177.455 47.5905 177.237 47.3719 176.967 47.3719V47.8602V48.3486ZM173.052 47.3719C172.782 47.3719 172.564 47.5905 172.564 47.8602C172.564 48.1299 172.782 48.3486 173.052 48.3486V47.8602V47.3719ZM169.137 48.3486C169.407 48.3486 169.626 48.1299 169.626 47.8602C169.626 47.5905 169.407 47.3719 169.137 47.3719V47.8602V48.3486ZM165.222 47.3719C164.953 47.3719 164.734 47.5905 164.734 47.8602C164.734 48.1299 164.953 48.3486 165.222 48.3486V47.8602V47.3719ZM161.308 48.3486C161.577 48.3486 161.796 48.1299 161.796 47.8602C161.796 47.5905 161.577 47.3719 161.308 47.3719V47.8602V48.3486ZM157.393 47.3719C157.123 47.3719 156.904 47.5905 156.904 47.8602C156.904 48.1299 157.123 48.3486 157.393 48.3486V47.8602V47.3719ZM153.478 48.3486C153.748 48.3486 153.966 48.1299 153.966 47.8602C153.966 47.5905 153.748 47.3719 153.478 47.3719V47.8602V48.3486ZM149.563 47.3719C149.293 47.3719 149.075 47.5905 149.075 47.8602C149.075 48.1299 149.293 48.3486 149.563 48.3486V47.8602V47.3719ZM145.648 48.3486C145.918 48.3486 146.136 48.1299 146.136 47.8602C146.136 47.5905 145.918 47.3719 145.648 47.3719V47.8602V48.3486ZM141.733 47.3719C141.464 47.3719 141.245 47.5905 141.245 47.8602C141.245 48.1299 141.464 48.3486 141.733 48.3486V47.8602V47.3719ZM137.818 48.3486C138.088 48.3486 138.307 48.1299 138.307 47.8602C138.307 47.5905 138.088 47.3719 137.818 47.3719V47.8602V48.3486ZM133.904 47.3719C133.634 47.3719 133.415 47.5905 133.415 47.8602C133.415 48.1299 133.634 48.3486 133.904 48.3486V47.8602V47.3719ZM129.989 48.3486C130.258 48.3486 130.477 48.1299 130.477 47.8602C130.477 47.5905 130.258 47.3719 129.989 47.3719V47.8602V48.3486ZM126.074 47.3719C125.804 47.3719 125.585 47.5905 125.585 47.8602C125.585 48.1299 125.804 48.3486 126.074 48.3486V47.8602V47.3719ZM122.159 48.3486C122.429 48.3486 122.647 48.1299 122.647 47.8602C122.647 47.5905 122.429 47.3719 122.159 47.3719V47.8602V48.3486ZM118.244 47.3719C117.974 47.3719 117.756 47.5905 117.756 47.8602C117.756 48.1299 117.974 48.3486 118.244 48.3486V47.8602V47.3719ZM114.329 48.3486C114.599 48.3486 114.818 48.1299 114.818 47.8602C114.818 47.5905 114.599 47.3719 114.329 47.3719V47.8602V48.3486ZM110.414 47.3719C110.145 47.3719 109.926 47.5905 109.926 47.8602C109.926 48.1299 110.145 48.3486 110.414 48.3486V47.8602V47.3719ZM106.5 48.3486C106.769 48.3486 106.988 48.1299 106.988 47.8602C106.988 47.5905 106.769 47.3719 106.5 47.3719V47.8602V48.3486ZM102.585 47.3719C102.315 47.3719 102.096 47.5905 102.096 47.8602C102.096 48.1299 102.315 48.3486 102.585 48.3486V47.8602V47.3719ZM98.6699 48.3486C98.9396 48.3486 99.1582 48.1299 99.1582 47.8602C99.1582 47.5905 98.9396 47.3719 98.6699 47.3719V47.8602V48.3486ZM94.755 47.3719C94.4853 47.3719 94.2666 47.5905 94.2666 47.8602C94.2666 48.1299 94.4853 48.3486 94.755 48.3486V47.8602V47.3719ZM90.8401 48.3486C91.1099 48.3486 91.3285 48.1299 91.3285 47.8602C91.3285 47.5905 91.1099 47.3719 90.8401 47.3719V47.8602V48.3486ZM331.604 47.8602V47.3719H329.646V47.8602V48.3486H331.604V47.8602ZM325.731 47.8602V47.3719H321.817V47.8602V48.3486H325.731V47.8602ZM317.902 47.8602V47.3719H313.987V47.8602V48.3486H317.902V47.8602ZM310.072 47.8602V47.3719H306.157V47.8602V48.3486H310.072V47.8602ZM302.242 47.8602V47.3719H298.327V47.8602V48.3486H302.242V47.8602ZM294.413 47.8602V47.3719H290.498V47.8602V48.3486H294.413V47.8602ZM286.583 47.8602V47.3719H282.668V47.8602V48.3486H286.583V47.8602ZM278.753 47.8602V47.3719H274.838V47.8602V48.3486H278.753V47.8602ZM270.924 47.8602V47.3719H267.009V47.8602V48.3486H270.924V47.8602ZM263.094 47.8602V47.3719H259.179V47.8602V48.3486H263.094V47.8602ZM255.264 47.8602V47.3719H251.349V47.8602V48.3486H255.264V47.8602ZM247.434 47.8602V47.3719H243.52V47.8602V48.3486H247.434V47.8602ZM239.605 47.8602V47.3719H235.69V47.8602V48.3486H239.605V47.8602ZM231.775 47.8602V47.3719H227.86V47.8602V48.3486H231.775V47.8602ZM223.945 47.8602V47.3719H220.03V47.8602V48.3486H223.945V47.8602ZM216.116 47.8602V47.3719H212.201V47.8602V48.3486H216.116V47.8602ZM208.286 47.8602V47.3719H204.371V47.8602V48.3486H208.286V47.8602ZM200.456 47.8602V47.3719H196.541V47.8602V48.3486H200.456V47.8602ZM192.626 47.8602V47.3719H188.712V47.8602V48.3486H192.626V47.8602ZM184.797 47.8602V47.3719H180.882V47.8602V48.3486H184.797V47.8602ZM176.967 47.8602V47.3719H173.052V47.8602V48.3486H176.967V47.8602ZM169.137 47.8602V47.3719H165.222V47.8602V48.3486H169.137V47.8602ZM161.308 47.8602V47.3719H157.393V47.8602V48.3486H161.308V47.8602ZM153.478 47.8602V47.3719H149.563V47.8602V48.3486H153.478V47.8602ZM145.648 47.8602V47.3719H141.733V47.8602V48.3486H145.648V47.8602ZM137.818 47.8602V47.3719H133.904V47.8602V48.3486H137.818V47.8602ZM129.989 47.8602V47.3719H126.074V47.8602V48.3486H129.989V47.8602ZM122.159 47.8602V47.3719H118.244V47.8602V48.3486H122.159V47.8602ZM114.329 47.8602V47.3719H110.414V47.8602V48.3486H114.329V47.8602ZM106.5 47.8602V47.3719H102.585V47.8602V48.3486H106.5V47.8602ZM98.6699 47.8602V47.3719H94.755V47.8602V48.3486H98.6699V47.8602ZM90.8401 47.8602V47.3719H88.8828V47.8602V48.3486H90.8401V47.8602Z" fill="#E6E3DE" fill-opacity="0.5"/>
<path d="M357.486 82.5348C357.486 82.2651 357.268 82.0464 356.998 82.0464C356.728 82.0464 356.51 82.2651 356.51 82.5348L356.998 82.5348L357.486 82.5348ZM356.51 137.721C356.51 137.991 356.728 138.209 356.998 138.209C357.268 138.209 357.486 137.991 357.486 137.721L356.998 137.721L356.51 137.721ZM357.486 135.75C357.486 135.48 357.268 135.262 356.998 135.262C356.728 135.262 356.51 135.48 356.51 135.75L356.998 135.75L357.486 135.75ZM356.51 131.808C356.51 132.078 356.728 132.296 356.998 132.296C357.268 132.296 357.486 132.078 357.486 131.808L356.998 131.808L356.51 131.808ZM357.486 127.866C357.486 127.596 357.268 127.378 356.998 127.378C356.728 127.378 356.51 127.596 356.51 127.866L356.998 127.866L357.486 127.866ZM356.51 123.924C356.51 124.194 356.728 124.413 356.998 124.413C357.268 124.413 357.486 124.194 357.486 123.924L356.998 123.924L356.51 123.924ZM357.486 119.982C357.486 119.713 357.268 119.494 356.998 119.494C356.728 119.494 356.51 119.713 356.51 119.982L356.998 119.982L357.486 119.982ZM356.51 116.041C356.51 116.31 356.728 116.529 356.998 116.529C357.268 116.529 357.486 116.31 357.486 116.041L356.998 116.041L356.51 116.041ZM357.486 112.099C357.486 111.829 357.268 111.61 356.998 111.61C356.728 111.61 356.51 111.829 356.51 112.099L356.998 112.099L357.486 112.099ZM356.51 108.157C356.51 108.427 356.728 108.645 356.998 108.645C357.268 108.645 357.486 108.427 357.486 108.157L356.998 108.157L356.51 108.157ZM357.486 104.215C357.486 103.945 357.268 103.727 356.998 103.727C356.728 103.727 356.51 103.945 356.51 104.215L356.998 104.215L357.486 104.215ZM356.51 100.273C356.51 100.543 356.728 100.762 356.998 100.762C357.268 100.762 357.486 100.543 357.486 100.273L356.998 100.273L356.51 100.273ZM357.486 96.3313C357.486 96.0616 357.268 95.8429 356.998 95.8429C356.728 95.8429 356.51 96.0616 356.51 96.3313L356.998 96.3313L357.486 96.3313ZM356.51 92.3894C356.51 92.6592 356.728 92.8778 356.998 92.8778C357.268 92.8778 357.486 92.6592 357.486 92.3894L356.998 92.3894L356.51 92.3894ZM357.486 88.4476C357.486 88.1779 357.268 87.9592 356.998 87.9592C356.728 87.9592 356.51 88.1779 356.51 88.4476L356.998 88.4476L357.486 88.4476ZM356.51 84.5057C356.51 84.7754 356.728 84.9941 356.998 84.9941C357.268 84.9941 357.486 84.7754 357.486 84.5057L356.998 84.5057L356.51 84.5057ZM356.998 137.721L357.486 137.721L357.486 135.75L356.998 135.75L356.51 135.75L356.51 137.721L356.998 137.721ZM356.998 131.808L357.486 131.808L357.486 127.866L356.998 127.866L356.51 127.866L356.51 131.808L356.998 131.808ZM356.998 123.924L357.486 123.924L357.486 119.982L356.998 119.982L356.51 119.982L356.51 123.924L356.998 123.924ZM356.998 116.041L357.486 116.041L357.486 112.099L356.998 112.099L356.51 112.099L356.51 116.041L356.998 116.041ZM356.998 108.157L357.486 108.157L357.486 104.215L356.998 104.215L356.51 104.215L356.51 108.157L356.998 108.157ZM356.998 100.273L357.486 100.273L357.486 96.3313L356.998 96.3313L356.51 96.3313L356.51 100.273L356.998 100.273ZM356.998 92.3894L357.486 92.3894L357.486 88.4476L356.998 88.4476L356.51 88.4476L356.51 92.3894L356.998 92.3894ZM356.998 84.5057L357.486 84.5057L357.486 82.5348L356.998 82.5348L356.51 82.5348L356.51 84.5057L356.998 84.5057Z" fill="#E6E3DE" fill-opacity="0.5"/>
<path d="M62.9999 82.5348C62.9999 82.2651 63.2186 82.0464 63.4883 82.0464C63.758 82.0464 63.9767 82.2651 63.9767 82.5348L63.4883 82.5348L62.9999 82.5348ZM63.9767 137.721C63.9767 137.991 63.758 138.209 63.4883 138.209C63.2186 138.209 62.9999 137.991 62.9999 137.721L63.4883 137.721L63.9767 137.721ZM62.9999 135.75C62.9999 135.48 63.2186 135.262 63.4883 135.262C63.758 135.262 63.9767 135.48 63.9767 135.75L63.4883 135.75L62.9999 135.75ZM63.9767 131.808C63.9767 132.078 63.758 132.296 63.4883 132.296C63.2186 132.296 62.9999 132.078 62.9999 131.808L63.4883 131.808L63.9767 131.808ZM62.9999 127.866C62.9999 127.596 63.2186 127.378 63.4883 127.378C63.758 127.378 63.9767 127.596 63.9767 127.866L63.4883 127.866L62.9999 127.866ZM63.9767 123.924C63.9767 124.194 63.758 124.413 63.4883 124.413C63.2186 124.413 62.9999 124.194 62.9999 123.924L63.4883 123.924L63.9767 123.924ZM62.9999 119.982C62.9999 119.713 63.2186 119.494 63.4883 119.494C63.758 119.494 63.9767 119.713 63.9767 119.982L63.4883 119.982L62.9999 119.982ZM63.9767 116.041C63.9767 116.31 63.758 116.529 63.4883 116.529C63.2186 116.529 62.9999 116.31 62.9999 116.041L63.4883 116.041L63.9767 116.041ZM62.9999 112.099C62.9999 111.829 63.2186 111.61 63.4883 111.61C63.758 111.61 63.9767 111.829 63.9767 112.099L63.4883 112.099L62.9999 112.099ZM63.9767 108.157C63.9767 108.427 63.758 108.645 63.4883 108.645C63.2186 108.645 62.9999 108.427 62.9999 108.157L63.4883 108.157L63.9767 108.157ZM62.9999 104.215C62.9999 103.945 63.2186 103.727 63.4883 103.727C63.758 103.727 63.9767 103.945 63.9767 104.215L63.4883 104.215L62.9999 104.215ZM63.9767 100.273C63.9767 100.543 63.758 100.762 63.4883 100.762C63.2186 100.762 62.9999 100.543 62.9999 100.273L63.4883 100.273L63.9767 100.273ZM62.9999 96.3313C62.9999 96.0616 63.2186 95.8429 63.4883 95.8429C63.758 95.8429 63.9767 96.0616 63.9767 96.3313L63.4883 96.3313L62.9999 96.3313ZM63.9767 92.3894C63.9767 92.6592 63.758 92.8778 63.4883 92.8778C63.2186 92.8778 62.9999 92.6592 62.9999 92.3894L63.4883 92.3894L63.9767 92.3894ZM62.9999 88.4476C62.9999 88.1779 63.2186 87.9592 63.4883 87.9592C63.758 87.9592 63.9767 88.1779 63.9767 88.4476L63.4883 88.4476L62.9999 88.4476ZM63.9767 84.5057C63.9767 84.7754 63.758 84.9941 63.4883 84.9941C63.2186 84.9941 62.9999 84.7754 62.9999 84.5057L63.4883 84.5057L63.9767 84.5057ZM63.4883 137.721L62.9999 137.721L62.9999 135.75L63.4883 135.75L63.9767 135.75L63.9767 137.721L63.4883 137.721ZM63.4883 131.808L62.9999 131.808L62.9999 127.866L63.4883 127.866L63.9767 127.866L63.9767 131.808L63.4883 131.808ZM63.4883 123.924L62.9999 123.924L62.9999 119.982L63.4883 119.982L63.9767 119.982L63.9767 123.924L63.4883 123.924ZM63.4883 116.041L62.9999 116.041L62.9999 112.099L63.4883 112.099L63.9767 112.099L63.9767 116.041L63.4883 116.041ZM63.4883 108.157L62.9999 108.157L62.9999 104.215L63.4883 104.215L63.9767 104.215L63.9767 108.157L63.4883 108.157ZM63.4883 100.273L62.9999 100.273L62.9999 96.3313L63.4883 96.3313L63.9767 96.3313L63.9767 100.273L63.4883 100.273ZM63.4883 92.3894L62.9999 92.3894L62.9999 88.4476L63.4883 88.4476L63.9767 88.4476L63.9767 92.3894L63.4883 92.3894ZM63.4883 84.5057L62.9999 84.5057L62.9999 82.5348L63.4883 82.5348L63.9767 82.5348L63.9767 84.5057L63.4883 84.5057Z" fill="#E6E3DE" fill-opacity="0.5"/>
<path d="M331.604 172.884C331.873 172.884 332.092 172.665 332.092 172.395C332.092 172.125 331.873 171.907 331.604 171.907V172.395V172.884ZM88.8826 171.907C88.6129 171.907 88.3942 172.125 88.3942 172.395C88.3942 172.665 88.6129 172.884 88.8826 172.884V172.395V171.907ZM90.84 172.884C91.1097 172.884 91.3284 172.665 91.3284 172.395C91.3284 172.125 91.1097 171.907 90.84 171.907V172.395V172.884ZM94.7549 171.907C94.4852 171.907 94.2665 172.125 94.2665 172.395C94.2665 172.665 94.4852 172.884 94.7549 172.884V172.395V171.907ZM98.6697 172.884C98.9395 172.884 99.1581 172.665 99.1581 172.395C99.1581 172.125 98.9395 171.907 98.6697 171.907V172.395V172.884ZM102.585 171.907C102.315 171.907 102.096 172.125 102.096 172.395C102.096 172.665 102.315 172.884 102.585 172.884V172.395V171.907ZM106.499 172.884C106.769 172.884 106.988 172.665 106.988 172.395C106.988 172.125 106.769 171.907 106.499 171.907V172.395V172.884ZM110.414 171.907C110.145 171.907 109.926 172.125 109.926 172.395C109.926 172.665 110.145 172.884 110.414 172.884V172.395V171.907ZM114.329 172.884C114.599 172.884 114.818 172.665 114.818 172.395C114.818 172.125 114.599 171.907 114.329 171.907V172.395V172.884ZM118.244 171.907C117.974 171.907 117.756 172.125 117.756 172.395C117.756 172.665 117.974 172.884 118.244 172.884V172.395V171.907ZM122.159 172.884C122.429 172.884 122.647 172.665 122.647 172.395C122.647 172.125 122.429 171.907 122.159 171.907V172.395V172.884ZM126.074 171.907C125.804 171.907 125.585 172.125 125.585 172.395C125.585 172.665 125.804 172.884 126.074 172.884V172.395V171.907ZM129.989 172.884C130.258 172.884 130.477 172.665 130.477 172.395C130.477 172.125 130.258 171.907 129.989 171.907V172.395V172.884ZM133.903 171.907C133.634 171.907 133.415 172.125 133.415 172.395C133.415 172.665 133.634 172.884 133.903 172.884V172.395V171.907ZM137.818 172.884C138.088 172.884 138.307 172.665 138.307 172.395C138.307 172.125 138.088 171.907 137.818 171.907V172.395V172.884ZM141.733 171.907C141.463 171.907 141.245 172.125 141.245 172.395C141.245 172.665 141.463 172.884 141.733 172.884V172.395V171.907ZM145.648 172.884C145.918 172.884 146.136 172.665 146.136 172.395C146.136 172.125 145.918 171.907 145.648 171.907V172.395V172.884ZM149.563 171.907C149.293 171.907 149.074 172.125 149.074 172.395C149.074 172.665 149.293 172.884 149.563 172.884V172.395V171.907ZM153.478 172.884C153.747 172.884 153.966 172.665 153.966 172.395C153.966 172.125 153.747 171.907 153.478 171.907V172.395V172.884ZM157.393 171.907C157.123 171.907 156.904 172.125 156.904 172.395C156.904 172.665 157.123 172.884 157.393 172.884V172.395V171.907ZM161.307 172.884C161.577 172.884 161.796 172.665 161.796 172.395C161.796 172.125 161.577 171.907 161.307 171.907V172.395V172.884ZM165.222 171.907C164.953 171.907 164.734 172.125 164.734 172.395C164.734 172.665 164.953 172.884 165.222 172.884V172.395V171.907ZM169.137 172.884C169.407 172.884 169.625 172.665 169.625 172.395C169.625 172.125 169.407 171.907 169.137 171.907V172.395V172.884ZM173.052 171.907C172.782 171.907 172.564 172.125 172.564 172.395C172.564 172.665 172.782 172.884 173.052 172.884V172.395V171.907ZM176.967 172.884C177.237 172.884 177.455 172.665 177.455 172.395C177.455 172.125 177.237 171.907 176.967 171.907V172.395V172.884ZM180.882 171.907C180.612 171.907 180.393 172.125 180.393 172.395C180.393 172.665 180.612 172.884 180.882 172.884V172.395V171.907ZM184.797 172.884C185.066 172.884 185.285 172.665 185.285 172.395C185.285 172.125 185.066 171.907 184.797 171.907V172.395V172.884ZM188.711 171.907C188.442 171.907 188.223 172.125 188.223 172.395C188.223 172.665 188.442 172.884 188.711 172.884V172.395V171.907ZM192.626 172.884C192.896 172.884 193.115 172.665 193.115 172.395C193.115 172.125 192.896 171.907 192.626 171.907V172.395V172.884ZM196.541 171.907C196.271 171.907 196.053 172.125 196.053 172.395C196.053 172.665 196.271 172.884 196.541 172.884V172.395V171.907ZM200.456 172.884C200.726 172.884 200.944 172.665 200.944 172.395C200.944 172.125 200.726 171.907 200.456 171.907V172.395V172.884ZM204.371 171.907C204.101 171.907 203.882 172.125 203.882 172.395C203.882 172.665 204.101 172.884 204.371 172.884V172.395V171.907ZM208.286 172.884C208.555 172.884 208.774 172.665 208.774 172.395C208.774 172.125 208.555 171.907 208.286 171.907V172.395V172.884ZM212.201 171.907C211.931 171.907 211.712 172.125 211.712 172.395C211.712 172.665 211.931 172.884 212.201 172.884V172.395V171.907ZM216.115 172.884C216.385 172.884 216.604 172.665 216.604 172.395C216.604 172.125 216.385 171.907 216.115 171.907V172.395V172.884ZM220.03 171.907C219.761 171.907 219.542 172.125 219.542 172.395C219.542 172.665 219.761 172.884 220.03 172.884V172.395V171.907ZM223.945 172.884C224.215 172.884 224.433 172.665 224.433 172.395C224.433 172.125 224.215 171.907 223.945 171.907V172.395V172.884ZM227.86 171.907C227.59 171.907 227.372 172.125 227.372 172.395C227.372 172.665 227.59 172.884 227.86 172.884V172.395V171.907ZM231.775 172.884C232.045 172.884 232.263 172.665 232.263 172.395C232.263 172.125 232.045 171.907 231.775 171.907V172.395V172.884ZM235.69 171.907C235.42 171.907 235.201 172.125 235.201 172.395C235.201 172.665 235.42 172.884 235.69 172.884V172.395V171.907ZM239.604 172.884C239.874 172.884 240.093 172.665 240.093 172.395C240.093 172.125 239.874 171.907 239.604 171.907V172.395V172.884ZM243.519 171.907C243.25 171.907 243.031 172.125 243.031 172.395C243.031 172.665 243.25 172.884 243.519 172.884V172.395V171.907ZM247.434 172.884C247.704 172.884 247.923 172.665 247.923 172.395C247.923 172.125 247.704 171.907 247.434 171.907V172.395V172.884ZM251.349 171.907C251.079 171.907 250.861 172.125 250.861 172.395C250.861 172.665 251.079 172.884 251.349 172.884V172.395V171.907ZM255.264 172.884C255.534 172.884 255.752 172.665 255.752 172.395C255.752 172.125 255.534 171.907 255.264 171.907V172.395V172.884ZM259.179 171.907C258.909 171.907 258.69 172.125 258.69 172.395C258.69 172.665 258.909 172.884 259.179 172.884V172.395V171.907ZM263.094 172.884C263.363 172.884 263.582 172.665 263.582 172.395C263.582 172.125 263.363 171.907 263.094 171.907V172.395V172.884ZM267.008 171.907C266.739 171.907 266.52 172.125 266.52 172.395C266.52 172.665 266.739 172.884 267.008 172.884V172.395V171.907ZM270.923 172.884C271.193 172.884 271.412 172.665 271.412 172.395C271.412 172.125 271.193 171.907 270.923 171.907V172.395V172.884ZM274.838 171.907C274.568 171.907 274.35 172.125 274.35 172.395C274.35 172.665 274.568 172.884 274.838 172.884V172.395V171.907ZM278.753 172.884C279.023 172.884 279.241 172.665 279.241 172.395C279.241 172.125 279.023 171.907 278.753 171.907V172.395V172.884ZM282.668 171.907C282.398 171.907 282.18 172.125 282.18 172.395C282.18 172.665 282.398 172.884 282.668 172.884V172.395V171.907ZM286.583 172.884C286.852 172.884 287.071 172.665 287.071 172.395C287.071 172.125 286.852 171.907 286.583 171.907V172.395V172.884ZM290.498 171.907C290.228 171.907 290.009 172.125 290.009 172.395C290.009 172.665 290.228 172.884 290.498 172.884V172.395V171.907ZM294.412 172.884C294.682 172.884 294.901 172.665 294.901 172.395C294.901 172.125 294.682 171.907 294.412 171.907V172.395V172.884ZM298.327 171.907C298.058 171.907 297.839 172.125 297.839 172.395C297.839 172.665 298.058 172.884 298.327 172.884V172.395V171.907ZM302.242 172.884C302.512 172.884 302.731 172.665 302.731 172.395C302.731 172.125 302.512 171.907 302.242 171.907V172.395V172.884ZM306.157 171.907C305.887 171.907 305.669 172.125 305.669 172.395C305.669 172.665 305.887 172.884 306.157 172.884V172.395V171.907ZM310.072 172.884C310.342 172.884 310.56 172.665 310.56 172.395C310.56 172.125 310.342 171.907 310.072 171.907V172.395V172.884ZM313.987 171.907C313.717 171.907 313.498 172.125 313.498 172.395C313.498 172.665 313.717 172.884 313.987 172.884V172.395V171.907ZM317.902 172.884C318.171 172.884 318.39 172.665 318.39 172.395C318.39 172.125 318.171 171.907 317.902 171.907V172.395V172.884ZM321.816 171.907C321.547 171.907 321.328 172.125 321.328 172.395C321.328 172.665 321.547 172.884 321.816 172.884V172.395V171.907ZM325.731 172.884C326.001 172.884 326.22 172.665 326.22 172.395C326.22 172.125 326.001 171.907 325.731 171.907V172.395V172.884ZM329.646 171.907C329.376 171.907 329.158 172.125 329.158 172.395C329.158 172.665 329.376 172.884 329.646 172.884V172.395V171.907ZM88.8826 172.395V172.884H90.84V172.395V171.907H88.8826V172.395ZM94.7549 172.395V172.884H98.6697V172.395V171.907H94.7549V172.395ZM102.585 172.395V172.884H106.499V172.395V171.907H102.585V172.395ZM110.414 172.395V172.884H114.329V172.395V171.907H110.414V172.395ZM118.244 172.395V172.884H122.159V172.395V171.907H118.244V172.395ZM126.074 172.395V172.884H129.989V172.395V171.907H126.074V172.395ZM133.903 172.395V172.884H137.818V172.395V171.907H133.903V172.395ZM141.733 172.395V172.884H145.648V172.395V171.907H141.733V172.395ZM149.563 172.395V172.884H153.478V172.395V171.907H149.563V172.395ZM157.393 172.395V172.884H161.307V172.395V171.907H157.393V172.395ZM165.222 172.395V172.884H169.137V172.395V171.907H165.222V172.395ZM173.052 172.395V172.884H176.967V172.395V171.907H173.052V172.395ZM180.882 172.395V172.884H184.797V172.395V171.907H180.882V172.395ZM188.711 172.395V172.884H192.626V172.395V171.907H188.711V172.395ZM196.541 172.395V172.884H200.456V172.395V171.907H196.541V172.395ZM204.371 172.395V172.884H208.286V172.395V171.907H204.371V172.395ZM212.201 172.395V172.884H216.115V172.395V171.907H212.201V172.395ZM220.03 172.395V172.884H223.945V172.395V171.907H220.03V172.395ZM227.86 172.395V172.884H231.775V172.395V171.907H227.86V172.395ZM235.69 172.395V172.884H239.604V172.395V171.907H235.69V172.395ZM243.519 172.395V172.884H247.434V172.395V171.907H243.519V172.395ZM251.349 172.395V172.884H255.264V172.395V171.907H251.349V172.395ZM259.179 172.395V172.884H263.094V172.395V171.907H259.179V172.395ZM267.008 172.395V172.884H270.923V172.395V171.907H267.008V172.395ZM274.838 172.395V172.884H278.753V172.395V171.907H274.838V172.395ZM282.668 172.395V172.884H286.583V172.395V171.907H282.668V172.395ZM290.498 172.395V172.884H294.412V172.395V171.907H290.498V172.395ZM298.327 172.395V172.884H302.242V172.395V171.907H298.327V172.395ZM306.157 172.395V172.884H310.072V172.395V171.907H306.157V172.395ZM313.987 172.395V172.884H317.902V172.395V171.907H313.987V172.395ZM321.816 172.395V172.884H325.731V172.395V171.907H321.816V172.395ZM329.646 172.395V172.884H331.604V172.395V171.907H329.646V172.395Z" fill="#E6E3DE" fill-opacity="0.5"/>
<path d="M107.888 98.9512H110.137V110.24C109.137 110.936 107.769 111.495 106.031 111.924C104.293 112.352 102.306 112.566 100.056 112.566C97.0871 112.566 94.5759 111.888 92.5408 110.525C90.4997 109.163 88.9704 107.359 87.9588 105.11C86.9472 102.861 86.4414 100.391 86.4414 97.6956C86.4414 95 86.971 92.5781 88.0243 90.3466C89.0775 88.1091 90.6783 86.3299 92.8145 84.991C94.9508 83.658 97.5632 82.9916 100.646 82.9916C102.591 82.9916 104.406 83.3486 106.102 84.0567C107.798 84.7649 109.215 85.7705 110.351 87.0737L108.768 88.49C107.882 87.3772 106.691 86.5084 105.204 85.8836C103.716 85.2588 102.199 84.9434 100.64 84.9434C98.1106 84.9434 95.9624 85.4968 94.1832 86.6096C92.404 87.7223 91.0591 89.2398 90.1427 91.1737C89.2263 93.1017 88.7681 95.2916 88.7681 97.7373C88.7681 100.183 89.2025 102.426 90.0832 104.384C90.9579 106.342 92.2433 107.877 93.9333 108.984C95.6292 110.097 97.6703 110.65 100.056 110.65C103.442 110.65 106.055 110.192 107.888 109.276V98.9452V98.9512Z" fill="#E6E3DE"/>
<path d="M118.674 83.5807H121.006V111.906H118.674V83.5807Z" fill="#E6E3DE"/>
<path d="M133.342 85.4968V96.3686H145.131V98.2847H133.342V111.906H131.01V83.5807H146.797V85.4968H133.342Z" fill="#E6E3DE"/>
<path d="M172.619 85.4968H162.33V111.906H159.998V85.4968H149.709V83.5807H172.619V85.4968Z" fill="#E6E3DE"/>
<path d="M255.635 83.5807L246.68 112.281H244.68L236.349 87.4962L227.977 112.281H225.977L217.396 83.5807H219.771L227.019 108.823L235.475 83.5807H237.224L245.722 108.823L253.344 83.5807H255.635Z" fill="#E6E3DE"/>
<path d="M269.966 98.5763H264.426V111.906H262.094V83.5807H270.841C272.787 83.5807 274.435 83.908 275.798 84.5625C277.161 85.2171 278.184 86.1038 278.881 87.2284C279.577 88.3531 279.922 89.6206 279.922 91.0428C279.922 93.072 279.285 94.7381 278.006 96.0413C276.726 97.3445 274.882 98.1241 272.466 98.374L282.338 111.912H279.672L269.966 98.5823V98.5763ZM264.426 96.6602H270.841C273.037 96.6602 274.709 96.196 275.864 95.2677C277.018 94.3394 277.589 92.941 277.589 91.0785C277.589 89.3826 277 88.0318 275.816 87.0142C274.638 86.0026 272.977 85.4968 270.841 85.4968H264.426V96.6602Z" fill="#E6E3DE"/>
<path d="M303.456 102.159H291.501L287.752 111.906H285.461L296.499 83.2058H298.499L309.579 111.906H307.205L303.456 102.159ZM302.706 100.242L297.457 86.5382L292.209 100.242H302.706Z" fill="#E6E3DE"/>
<path d="M329.555 84.5983C330.984 85.2767 332.061 86.2169 332.787 87.407C333.507 88.6031 333.87 89.948 333.87 91.4475C333.87 93.8635 333.048 95.7915 331.412 97.2375C329.776 98.6835 327.425 99.4035 324.372 99.4035H317.958V111.9H315.625V83.5748H324.372C326.402 83.5748 328.127 83.914 329.555 84.5983ZM329.704 95.97C330.924 94.9584 331.537 93.4648 331.537 91.4951C331.537 89.6623 330.912 88.2044 329.663 87.1214C328.413 86.0384 326.652 85.4969 324.372 85.4969H317.958V97.4934H324.372C326.705 97.4934 328.484 96.9876 329.704 95.976V95.97Z" fill="#E6E3DE"/>
<path d="M204.7 107.371C203.968 109.746 201.576 111.21 199.326 111.924C197.856 112.388 196.339 112.608 194.798 112.566C193.072 112.519 191.442 112.055 189.93 111.251C187.722 110.073 185.467 108.264 184.2 106.08C183.081 104.164 182.837 101.968 183.724 99.8914C184.551 97.9456 186.229 96.4877 188.026 95.4344C189.168 94.7679 190.347 94.2324 191.584 93.7623L194.53 92.6495C193.84 91.0666 193.381 89.4421 193.483 87.7164C193.637 84.7054 195.857 82.0931 198.731 81.3076C200.487 80.8256 202.581 81.0279 203.914 82.3608C205.063 83.5093 204.991 85.1933 204.354 86.5977C203.67 88.1032 202.254 89.3112 200.879 90.1978C199.237 91.2332 197.541 91.9473 195.702 92.6376C196.631 94.7679 198.059 96.6245 199.564 98.3978L202.052 101.171C203.593 102.885 205.497 104.854 204.717 107.377H204.7V107.371ZM202.117 87.9723C202.754 87.1749 203.206 86.2942 203.402 85.2886C203.688 83.8247 203.295 82.2954 201.796 81.7003C200.778 81.2957 199.648 81.3254 198.63 81.742C196.999 82.4025 195.762 83.8366 195.179 85.4849C194.375 87.6212 194.691 90.18 195.536 92.2687C197.928 91.2809 200.487 90.0015 202.117 87.9723ZM199.57 110.692C200.647 110.127 201.57 109.347 202.26 108.347C203.2 106.979 203.706 105.122 202.807 103.628C202.236 102.676 201.54 101.837 200.802 101.01L199.207 99.2131C197.517 97.3089 195.839 95.2678 194.673 92.9827L193.078 93.6611C192.001 94.1193 190.983 94.637 189.978 95.244C188.062 96.3984 186.288 97.8385 185.485 99.9985C184.527 102.569 185.271 105.253 186.919 107.354C188.068 108.817 189.531 110.008 191.192 110.853C193.822 112.191 196.988 112.049 199.564 110.692H199.57Z" fill="#E6E3DE" stroke="#E6E3DE" stroke-width="0.74383" stroke-miterlimit="10"/>
<path opacity="0.5" d="M122.224 126.711V130.192H126.163V131.234H122.224V135.786H120.855V125.67H126.764V126.711H122.224Z" fill="#E6E3DE"/>
<path opacity="0.5" d="M132.035 135.322C131.285 134.852 130.725 134.215 130.345 133.412C129.97 132.608 129.779 131.722 129.779 130.746C129.779 129.77 129.97 128.889 130.345 128.092C130.72 127.294 131.285 126.658 132.035 126.188C132.784 125.718 133.683 125.479 134.736 125.479C135.789 125.479 136.688 125.718 137.438 126.188C138.188 126.658 138.747 127.294 139.128 128.092C139.503 128.889 139.693 129.77 139.693 130.734C139.693 131.698 139.503 132.608 139.128 133.412C138.753 134.215 138.188 134.852 137.438 135.322C136.688 135.792 135.789 136.03 134.736 136.03C133.683 136.03 132.784 135.792 132.035 135.322ZM136.664 134.411C137.2 134.048 137.604 133.549 137.884 132.906C138.164 132.263 138.301 131.543 138.301 130.74C138.301 129.937 138.164 129.216 137.884 128.586C137.604 127.949 137.2 127.449 136.658 127.086C136.117 126.717 135.474 126.539 134.73 126.539C133.986 126.539 133.332 126.723 132.79 127.086C132.249 127.455 131.838 127.955 131.564 128.586C131.285 129.222 131.148 129.942 131.148 130.74C131.148 131.537 131.285 132.263 131.564 132.906C131.844 133.549 132.249 134.048 132.79 134.411C133.332 134.774 133.98 134.953 134.73 134.953C135.48 134.953 136.129 134.774 136.664 134.411Z" fill="#E6E3DE"/>
<path opacity="0.5" d="M147.161 131.341H145.316V135.792H143.947V125.676H147.339C148.488 125.676 149.362 125.926 149.957 126.42C150.552 126.914 150.85 127.592 150.85 128.455C150.85 129.181 150.654 129.77 150.273 130.234C149.886 130.698 149.315 131.002 148.559 131.15L151.862 135.792H150.273L147.161 131.341ZM145.31 130.299H147.333C148.761 130.299 149.475 129.698 149.475 128.502C149.475 127.937 149.291 127.497 148.928 127.175C148.559 126.86 148.029 126.699 147.339 126.699H145.316V130.299H145.31Z" fill="#E6E3DE"/>
<path opacity="0.5" d="M162.062 134.762V135.792H155.861V125.676H161.764V126.699H157.23V129.925H161.169V130.954H157.23V134.762H162.062Z" fill="#E6E3DE"/>
<path opacity="0.5" d="M174.273 125.67L170.358 135.905H169.037L165.109 125.67H166.508L169.709 134.37L172.911 125.67H174.279H174.273Z" fill="#E6E3DE"/>
<path opacity="0.5" d="M184.318 134.762V135.792H178.117V125.676H184.02V126.699H179.486V129.925H183.425V130.954H179.486V134.762H184.318Z" fill="#E6E3DE"/>
<path opacity="0.5" d="M191.817 131.341H189.972V135.792H188.604V125.676H191.995C193.144 125.676 194.019 125.926 194.614 126.42C195.209 126.914 195.506 127.592 195.506 128.455C195.506 129.181 195.31 129.77 194.923 130.234C194.536 130.698 193.965 131.002 193.209 131.15L196.512 135.792H194.917L191.811 131.341H191.817ZM189.972 130.299H191.995C193.424 130.299 194.138 129.698 194.138 128.502C194.138 127.937 193.953 127.497 193.584 127.175C193.215 126.86 192.686 126.699 191.995 126.699H189.972V130.299Z" fill="#E6E3DE"/>
<path opacity="0.5" d="M203.627 139.285L203.788 138.255C204.038 138.303 204.264 138.327 204.472 138.327C205.019 138.327 205.412 138.142 205.656 137.779C205.9 137.416 206.019 136.839 206.019 136.066V125.67H207.406V136.095C207.406 137.166 207.174 137.988 206.715 138.547C206.251 139.112 205.555 139.398 204.609 139.398C204.323 139.398 203.996 139.356 203.627 139.279V139.285Z" fill="#E6E3DE"/>
<path opacity="0.5" d="M218.695 134.762V135.792H212.494V125.676H218.397V126.699H213.863V129.925H217.802V130.954H213.863V134.762H218.695Z" fill="#E6E3DE"/>
<path opacity="0.5" d="M236.161 125.67L232.876 135.905H231.567L228.871 127.544L226.181 135.905H224.872L221.748 125.67H223.146L225.556 134.251L228.276 125.67H229.484L232.233 134.28L234.762 125.67H236.161Z" fill="#E6E3DE"/>
<path opacity="0.5" d="M246.204 134.762V135.792H240.004V125.676H245.907V126.699H241.373V129.925H245.312V130.954H241.373V134.762H246.204Z" fill="#E6E3DE"/>
<path opacity="0.5" d="M256.689 134.762V135.792H250.482V125.676H251.851V134.762H256.689Z" fill="#E6E3DE"/>
<path opacity="0.5" d="M266.806 134.762V135.792H260.6V125.676H261.968V134.762H266.806Z" fill="#E6E3DE"/>
<path opacity="0.5" d="M276.929 134.762V135.792H270.723V125.676H276.632V126.699H272.097V129.925H276.037V130.954H272.097V134.762H276.929Z" fill="#E6E3DE"/>
<path opacity="0.5" d="M284.422 131.341H282.578V135.792H281.209V125.676H284.601C285.749 125.676 286.624 125.926 287.219 126.42C287.814 126.914 288.112 127.592 288.112 128.455C288.112 129.181 287.915 129.77 287.529 130.234C287.142 130.698 286.571 131.002 285.815 131.15L289.117 135.792H287.523L284.416 131.341H284.422ZM282.584 130.299H284.607C286.035 130.299 286.749 129.698 286.749 128.502C286.749 127.937 286.565 127.497 286.196 127.175C285.827 126.86 285.297 126.699 284.607 126.699H282.584V130.299Z" fill="#E6E3DE"/>
<path opacity="0.5" d="M296.971 131.68V135.786H295.602V131.692L291.871 125.67H293.371L296.304 130.609L299.232 125.67H300.72L296.971 131.68Z" fill="#E6E3DE"/>
<path d="M356.539 74.1619C355.808 76.5362 353.415 78.0001 351.166 78.7142C349.696 79.1783 348.179 79.3985 346.638 79.3568C344.912 79.3092 343.281 78.8451 341.77 78.0417C339.562 76.8635 337.307 75.0545 336.039 72.8706C334.921 70.9545 334.677 68.7587 335.563 66.682C336.391 64.7361 338.069 63.2782 339.866 62.2249C341.008 61.5585 342.187 61.0229 343.424 60.5528L346.37 59.44C345.68 57.8572 345.221 56.2326 345.322 54.5069C345.477 51.4959 347.697 48.8836 350.571 48.0981C352.326 47.6161 354.421 47.8184 355.754 49.1514C356.902 50.2998 356.831 51.9839 356.194 53.3882C355.51 54.8937 354.094 56.1017 352.719 56.9884C351.077 58.0238 349.381 58.7379 347.542 59.4281C348.47 61.5585 349.899 63.4151 351.404 65.1883L353.891 67.9613C355.433 69.6751 357.337 71.6448 356.557 74.1679H356.539V74.1619ZM353.957 54.7628C354.594 53.9654 355.046 53.0847 355.242 52.0791C355.528 50.6152 355.135 49.0859 353.636 48.4908C352.618 48.0862 351.487 48.116 350.47 48.5325C348.839 49.193 347.602 50.6271 347.018 52.2755C346.215 54.4117 346.53 56.9705 347.375 59.0592C349.768 58.0714 352.326 56.792 353.957 54.7628ZM351.41 77.4824C352.487 76.9171 353.409 76.1375 354.1 75.1378C355.04 73.7692 355.546 71.9126 354.647 70.419C354.076 69.4669 353.38 68.6278 352.642 67.8007L351.047 66.0036C349.357 64.0994 347.679 62.0583 346.513 59.7733L344.918 60.4516C343.841 60.9098 342.823 61.4275 341.818 62.0345C339.901 63.1889 338.128 64.629 337.325 66.7891C336.367 69.3597 337.111 72.0435 338.759 74.1441C339.907 75.6079 341.371 76.7981 343.031 77.643C345.662 78.9819 348.827 78.8391 351.404 77.4824H351.41Z" fill="#929286" stroke="#929286" stroke-width="0.74383" stroke-miterlimit="10"/>
<rect x="335.025" y="140.651" width="21.9767" height="31.7442" stroke="#E6E3DE" stroke-opacity="0.5" stroke-width="0.976744" stroke-linecap="round" stroke-dasharray="3.91 3.91"/>
<path d="M356.539 166.953C355.808 169.327 353.415 170.791 351.166 171.505C349.696 171.969 348.179 172.189 346.638 172.148C344.912 172.1 343.281 171.636 341.77 170.833C339.562 169.654 337.307 167.845 336.039 165.661C334.921 163.745 334.677 161.55 335.563 159.473C336.391 157.527 338.069 156.069 339.866 155.016C341.008 154.349 342.187 153.814 343.424 153.344L346.37 152.231C345.68 150.648 345.221 149.023 345.322 147.298C345.477 144.287 347.697 141.674 350.571 140.889C352.326 140.407 354.421 140.609 355.754 141.942C356.902 143.091 356.831 144.775 356.194 146.179C355.51 147.685 354.094 148.892 352.719 149.779C351.077 150.815 349.381 151.529 347.542 152.219C348.47 154.349 349.899 156.206 351.404 157.979L353.891 160.752C355.433 162.466 357.337 164.436 356.557 166.959H356.539V166.953ZM353.957 147.554C354.594 146.756 355.046 145.876 355.242 144.87C355.528 143.406 355.135 141.877 353.636 141.282C352.618 140.877 351.487 140.907 350.47 141.323C348.839 141.984 347.602 143.418 347.018 145.066C346.215 147.203 346.53 149.761 347.375 151.85C349.768 150.862 352.326 149.583 353.957 147.554ZM351.41 170.273C352.487 169.708 353.409 168.928 354.1 167.929C355.04 166.56 355.546 164.703 354.647 163.21C354.076 162.258 353.38 161.419 352.642 160.591L351.047 158.794C349.357 156.89 347.679 154.849 346.513 152.564L344.918 153.242C343.841 153.701 342.823 154.218 341.818 154.825C339.901 155.98 338.128 157.42 337.325 159.58C336.367 162.151 337.111 164.834 338.759 166.935C339.907 168.399 341.371 169.589 343.031 170.434C345.662 171.773 348.827 171.63 351.404 170.273H351.41Z" fill="#929286" stroke="#929286" stroke-width="0.74383" stroke-miterlimit="10"/>
<rect x="63.4883" y="47.8602" width="21.9767" height="31.7442" stroke="#E6E3DE" stroke-opacity="0.5" stroke-width="0.976744" stroke-linecap="round" stroke-dasharray="3.91 3.91"/>
<path d="M85.0023 74.1619C84.2704 76.5362 81.8782 78.0001 79.6289 78.7142C78.1591 79.1783 76.6417 79.3985 75.1005 79.3568C73.3748 79.3092 71.7443 78.8451 70.2328 78.0417C68.0252 76.8635 65.7699 75.0545 64.5024 72.8706C63.3837 70.9545 63.1397 68.7587 64.0263 66.682C64.8535 64.7361 66.5315 63.2782 68.3286 62.2249C69.4712 61.5585 70.6494 61.0229 71.8871 60.5528L74.8327 59.44C74.1424 57.8572 73.6842 56.2326 73.7854 54.5069C73.9401 51.4959 76.1597 48.8836 79.0338 48.0981C80.7893 47.6161 82.8839 47.8184 84.2169 49.1514C85.3653 50.2998 85.2939 51.9839 84.6572 53.3882C83.9729 54.8937 82.5566 56.1017 81.182 56.9884C79.5396 58.0238 77.8437 58.7379 76.005 59.4281C76.9333 61.5585 78.3614 63.4151 79.8669 65.1883L82.3543 67.9613C83.8955 69.6751 85.7997 71.6448 85.0202 74.1679H85.0023V74.1619ZM82.4198 54.7628C83.0565 53.9654 83.5087 53.0847 83.7051 52.0791C83.9907 50.6152 83.598 49.0859 82.0984 48.4908C81.0809 48.0862 79.9502 48.116 78.9327 48.5325C77.3022 49.193 76.0645 50.6271 75.4813 52.2755C74.678 54.4117 74.9933 56.9705 75.8383 59.0592C78.2305 58.0714 80.7893 56.792 82.4198 54.7628ZM79.8729 77.4824C80.9499 76.9171 81.8723 76.1375 82.5626 75.1378C83.5028 73.7692 84.0086 71.9126 83.11 70.419C82.5388 69.4669 81.8425 68.6278 81.1047 67.8007L79.5099 66.0036C77.8199 64.0994 76.1418 62.0583 74.9755 59.7733L73.3807 60.4516C72.3037 60.9098 71.2861 61.4275 70.2804 62.0345C68.3643 63.1889 66.5911 64.629 65.7877 66.7891C64.8297 69.3597 65.5735 72.0435 67.2218 74.1441C68.3703 75.6079 69.8342 76.7981 71.4944 77.643C74.1246 78.9819 77.2903 78.8391 79.8669 77.4824H79.8729Z" fill="#929286" stroke="#929286" stroke-width="0.74383" stroke-miterlimit="10"/>
<rect x="63.4883" y="140.651" width="21.9767" height="31.7442" stroke="#E6E3DE" stroke-opacity="0.5" stroke-width="0.976744" stroke-linecap="round" stroke-dasharray="3.91 3.91"/>
<path d="M85.0023 166.953C84.2704 169.327 81.8782 170.791 79.6289 171.505C78.1591 171.969 76.6417 172.189 75.1005 172.148C73.3748 172.1 71.7443 171.636 70.2328 170.833C68.0252 169.654 65.7699 167.845 64.5024 165.661C63.3837 163.745 63.1397 161.55 64.0263 159.473C64.8535 157.527 66.5315 156.069 68.3286 155.016C69.4712 154.349 70.6494 153.814 71.8871 153.344L74.8327 152.231C74.1424 150.648 73.6842 149.023 73.7854 147.298C73.9401 144.287 76.1597 141.674 79.0338 140.889C80.7893 140.407 82.8839 140.609 84.2169 141.942C85.3653 143.091 85.2939 144.775 84.6572 146.179C83.9729 147.685 82.5566 148.892 81.182 149.779C79.5396 150.815 77.8437 151.529 76.005 152.219C76.9333 154.349 78.3614 156.206 79.8669 157.979L82.3543 160.752C83.8955 162.466 85.7997 164.436 85.0202 166.959H85.0023V166.953ZM82.4198 147.554C83.0565 146.756 83.5087 145.876 83.7051 144.87C83.9907 143.406 83.598 141.877 82.0984 141.282C81.0809 140.877 79.9502 140.907 78.9327 141.323C77.3022 141.984 76.0645 143.418 75.4813 145.066C74.678 147.203 74.9933 149.761 75.8383 151.85C78.2305 150.862 80.7893 149.583 82.4198 147.554ZM79.8729 170.273C80.9499 169.708 81.8723 168.928 82.5626 167.929C83.5028 166.56 84.0086 164.703 83.11 163.21C82.5388 162.258 81.8425 161.419 81.1047 160.591L79.5099 158.794C77.8199 156.89 76.1418 154.849 74.9755 152.564L73.3807 153.242C72.3037 153.701 71.2861 154.218 70.2804 154.825C68.3643 155.98 66.5911 157.42 65.7877 159.58C64.8297 162.151 65.5735 164.834 67.2218 166.935C68.3703 168.399 69.8342 169.589 71.4944 170.434C74.1246 171.773 77.2903 171.63 79.8669 170.273H79.8729Z" fill="#929286" stroke="#929286" stroke-width="0.74383" stroke-miterlimit="10"/>
</svg>
