<svg width="273" height="220" viewBox="0 0 273 220" fill="none" xmlns="http://www.w3.org/2000/svg">
<rect width="273" height="220" fill="#E6E3DE"/>
<path d="M85.6612 111.575H86.7793V119.513C86.2824 120.003 85.602 120.396 84.7382 120.698C83.8744 120.999 82.8864 121.15 81.7682 121.15C80.2921 121.15 79.0438 120.672 78.0321 119.714C77.0175 118.756 76.2572 117.488 75.7543 115.906C75.2514 114.324 75 112.588 75 110.692C75 108.796 75.2633 107.093 75.7869 105.524C76.3105 103.95 77.1062 102.699 78.1682 101.758C79.2302 100.82 80.5288 100.352 82.0611 100.352C83.0284 100.352 83.9307 100.603 84.7737 101.101C85.6168 101.599 86.3208 102.306 86.8858 103.222L86.099 104.218C85.6582 103.436 85.0666 102.825 84.327 102.385C83.5875 101.946 82.8332 101.724 82.0581 101.724C80.8009 101.724 79.733 102.113 78.8486 102.896C77.9641 103.678 77.2955 104.745 76.84 106.106C76.3844 107.461 76.1566 109.001 76.1566 110.721C76.1566 112.441 76.3726 114.019 76.8104 115.396C77.2452 116.772 77.8842 117.852 78.7243 118.63C79.5674 119.413 80.582 119.802 81.7682 119.802C83.4514 119.802 84.7501 119.48 85.6612 118.835V111.571V111.575Z" fill="#26260E"/>
<path d="M91.0234 100.766H92.183V120.685H91.0234V100.766Z" fill="#26260E"/>
<path d="M98.3158 102.113V109.759H104.176V111.106H98.3158V120.685H97.1562V100.766H105.004V102.113H98.3158Z" fill="#26260E"/>
<path d="M117.84 102.113H112.725V120.685H111.566V102.113H106.451V100.766H117.84V102.113Z" fill="#26260E"/>
<path d="M159.111 100.766L154.659 120.949H153.665L149.523 103.519L145.361 120.949H144.367L140.102 100.766H141.282L144.885 118.517L149.088 100.766H149.958L154.182 118.517L157.972 100.766H159.111Z" fill="#26260E"/>
<path d="M166.234 111.311H163.48V120.685H162.32V100.766H166.669C167.636 100.766 168.456 100.996 169.133 101.456C169.81 101.917 170.319 102.54 170.665 103.331C171.011 104.122 171.183 105.013 171.183 106.013C171.183 107.44 170.866 108.612 170.23 109.529C169.594 110.445 168.677 110.993 167.476 111.169L172.384 120.689H171.059L166.234 111.315V111.311ZM163.48 109.964H166.669C167.76 109.964 168.592 109.637 169.165 108.985C169.739 108.332 170.023 107.348 170.023 106.039C170.023 104.846 169.73 103.896 169.142 103.18C168.556 102.469 167.731 102.113 166.669 102.113H163.48V109.964Z" fill="#26260E"/>
<path d="M182.881 113.83H176.938L175.074 120.685H173.936L179.423 100.502H180.417L185.925 120.685H184.745L182.881 113.83ZM182.508 112.483L179.899 102.846L177.29 112.483H182.508Z" fill="#26260E"/>
<path d="M195.855 101.481C196.565 101.959 197.1 102.62 197.461 103.457C197.819 104.298 197.999 105.244 197.999 106.298C197.999 107.997 197.591 109.353 196.778 110.37C195.964 111.387 194.796 111.893 193.278 111.893H190.089V120.681H188.93V100.762H193.278C194.287 100.762 195.145 101 195.855 101.481ZM195.929 109.478C196.535 108.767 196.84 107.717 196.84 106.332C196.84 105.043 196.529 104.017 195.908 103.256C195.287 102.494 194.411 102.113 193.278 102.113H190.089V110.55H193.278C194.438 110.55 195.322 110.194 195.929 109.483V109.478Z" fill="#26260E"/>
<path d="M133.787 117.496C133.423 119.166 132.234 120.195 131.116 120.698C130.385 121.024 129.631 121.179 128.864 121.149C128.007 121.116 127.196 120.79 126.445 120.225C125.347 119.396 124.226 118.124 123.596 116.588C123.04 115.241 122.919 113.697 123.359 112.236C123.77 110.868 124.605 109.842 125.498 109.102C126.066 108.633 126.652 108.256 127.267 107.926L128.731 107.143C128.388 106.03 128.16 104.888 128.211 103.674C128.288 101.557 129.391 99.7197 130.82 99.1673C131.692 98.8283 132.734 98.9706 133.396 99.908C133.967 100.716 133.932 101.9 133.615 102.887C133.275 103.946 132.571 104.796 131.888 105.419C131.071 106.147 130.228 106.65 129.314 107.135C129.775 108.633 130.485 109.939 131.234 111.186L132.47 113.136C133.237 114.341 134.183 115.726 133.796 117.5H133.787V117.496ZM132.503 103.854C132.819 103.293 133.044 102.674 133.142 101.967C133.284 100.937 133.089 99.8619 132.343 99.4435C131.837 99.1589 131.275 99.1798 130.769 99.4728C129.959 99.9373 129.344 100.946 129.054 102.105C128.654 103.607 128.811 105.407 129.231 106.875C130.42 106.181 131.692 105.281 132.503 103.854ZM131.237 119.831C131.772 119.434 132.231 118.886 132.574 118.183C133.041 117.22 133.293 115.914 132.846 114.864C132.562 114.195 132.216 113.604 131.849 113.023L131.056 111.759C130.216 110.42 129.382 108.985 128.802 107.378L128.009 107.855C127.474 108.177 126.968 108.541 126.468 108.968C125.516 109.78 124.634 110.792 124.235 112.311C123.759 114.119 124.128 116.007 124.948 117.484C125.519 118.513 126.246 119.35 127.072 119.944C128.379 120.886 129.953 120.785 131.234 119.831H131.237Z" fill="#26260E" stroke="#26260E" stroke-width="0.523087" stroke-miterlimit="10"/>
</svg>
