<svg width="273" height="220" viewBox="0 0 273 220" fill="none" xmlns="http://www.w3.org/2000/svg">
<rect width="273" height="220" fill="#26260E"/>
<path d="M73.967 75.4148L75.3369 76.2057L71.3677 83.0806C70.5141 83.1531 69.4838 83.0125 68.275 82.6625C67.0661 82.3124 65.7803 81.744 64.4104 80.9531C62.602 79.9091 61.3112 78.6129 60.5509 77.0675C59.787 75.5199 59.4896 73.884 59.6645 72.1585C59.8393 70.4329 60.3995 68.751 61.3474 67.1093C62.2952 65.4676 63.4693 64.1789 64.8954 63.1902C66.3236 62.1979 67.9241 61.6771 69.6959 61.6129C71.4656 61.5522 73.2909 62.0649 75.1682 63.1487C76.3533 63.8329 77.3331 64.6885 78.1169 65.7161C78.9008 66.7437 79.4097 67.8541 79.6437 69.0475L78.1817 69.3534C78.033 68.364 77.6137 67.4164 76.9273 66.5128C76.241 65.6091 75.4278 64.8835 74.4783 64.3353C72.9381 63.4461 71.4352 63.0278 69.9603 63.0799C68.4855 63.132 67.1329 63.5832 65.8948 64.4388C64.6587 65.2908 63.6097 66.4633 62.7497 67.9528C61.8898 69.4423 61.3655 70.9613 61.2135 72.4633C61.0579 73.9632 61.3008 75.3501 61.9409 76.6184C62.5825 77.8925 63.6309 78.9472 65.0842 79.7862C67.1463 80.9767 68.8983 81.6162 70.3368 81.7026L73.9691 75.4112L73.967 75.4148Z" fill="#E6E3DE"/>
<path d="M85.9414 69.8472L87.362 70.6674L77.4025 87.9179L75.9818 87.0977L85.9414 69.8472Z" fill="#E6E3DE"/>
<path d="M94.202 76.172L90.3792 82.7931L97.5585 86.9381L96.8848 88.105L89.7055 83.9601L84.9161 92.2555L83.4955 91.4353L93.4551 74.1848L103.07 79.7358L102.396 80.9028L94.202 76.172Z" fill="#E6E3DE"/>
<path d="M118.121 89.9815L111.855 86.3639L102.569 102.447L101.148 101.627L110.434 85.5437L104.168 81.926L104.842 80.759L118.794 88.8146L118.121 89.9815Z" fill="#E6E3DE"/>
<path d="M169.355 118.005L153.809 132.335L152.591 131.632L156.232 113.609L142.419 125.759L141.201 125.056L146.066 104.56L147.512 105.395L143.051 123.316L157.076 110.916L158.142 111.532L154.441 129.893L167.959 117.2L169.355 118.005Z" fill="#E6E3DE"/>
<path d="M172.807 132.176L169.433 130.228L164.746 138.346L163.326 137.526L173.285 120.275L178.613 123.351C179.798 124.035 180.686 124.814 181.286 125.692C181.886 126.57 182.197 127.47 182.226 128.399C182.255 129.329 182.019 130.222 181.519 131.089C180.806 132.324 179.832 133.115 178.594 133.459C177.357 133.803 175.96 133.629 174.4 132.932L175.653 144.648L174.029 143.71L172.805 132.18L172.807 132.176ZM170.107 129.061L174.014 131.317C175.351 132.089 176.532 132.394 177.562 132.235C178.591 132.075 179.431 131.425 180.086 130.29C180.682 129.257 180.798 128.228 180.435 127.191C180.073 126.161 179.24 125.269 177.939 124.518L174.032 122.263L170.107 129.061Z" fill="#E6E3DE"/>
<path d="M191.943 146.134L184.663 141.93L178.952 146.548L177.557 145.742L194.371 132.145L195.589 132.848L192.245 154.223L190.799 153.388L191.943 146.134ZM192.161 144.703L193.783 134.511L185.768 141.012L192.161 144.703Z" fill="#E6E3DE"/>
<path d="M214.015 144.616C214.646 145.531 214.971 146.483 214.995 147.463C215.013 148.444 214.761 149.391 214.234 150.304C213.384 151.776 212.206 152.661 210.701 152.966C209.196 153.272 207.511 152.884 205.652 151.81L201.746 149.555L197.352 157.165L195.931 156.345L205.891 139.094L211.218 142.17C212.454 142.884 213.386 143.697 214.015 144.616ZM210.107 151.594C211.205 151.407 212.104 150.713 212.796 149.513C213.441 148.397 213.573 147.289 213.193 146.19C212.812 145.091 211.93 144.142 210.542 143.341L206.635 141.085L202.417 148.391L206.324 150.647C207.745 151.467 209.006 151.785 210.105 151.598L210.107 151.594Z" fill="#E6E3DE"/>
<path d="M129.968 114.584C128.687 115.772 126.715 115.823 125.094 115.467C124.036 115.233 123.035 114.833 122.111 114.266C121.076 113.63 120.247 112.774 119.609 111.753C118.678 110.26 117.941 108.365 117.937 106.589C117.929 105.029 118.553 103.606 119.823 102.653C121.011 101.758 122.545 101.461 124.01 101.451C124.94 101.447 125.846 101.535 126.765 101.684L128.951 102.042C129.087 100.835 129.379 99.6848 130.047 98.6693C131.2 96.89 133.471 96.0795 135.497 96.6117C136.736 96.9354 137.94 97.7951 138.283 99.0756C138.579 100.179 137.943 101.179 137.062 101.811C136.116 102.487 134.828 102.725 133.679 102.781C132.315 102.834 131.031 102.673 129.669 102.447C129.485 104.071 129.702 105.704 129.995 107.313L130.535 109.876C130.871 111.462 131.338 113.331 129.976 114.594L129.966 114.587L129.968 114.584ZM135.216 101.861C135.884 101.599 136.469 101.222 136.942 100.679C137.631 99.8876 137.93 98.8181 137.225 97.9284C136.748 97.3242 136.049 96.9448 135.283 96.8407C134.058 96.6696 132.8 97.1078 131.865 97.9066C130.624 98.9252 129.917 100.594 129.697 102.164C131.501 102.403 133.509 102.524 135.216 101.861ZM125.676 114.802C126.531 114.837 127.367 114.686 128.139 114.32C129.192 113.817 130.153 112.864 130.131 111.639C130.118 110.858 129.989 110.102 129.831 109.339L129.491 107.684C129.132 105.93 128.827 104.097 128.92 102.295L127.711 102.147C126.894 102.048 126.092 102.005 125.266 102.021C123.693 102.051 122.107 102.304 120.858 103.337C119.371 104.566 118.88 106.462 119.145 108.321C119.33 109.616 119.803 110.856 120.517 111.954C121.648 113.694 123.626 114.721 125.673 114.8L125.676 114.802Z" fill="#E6E3DE" stroke="#E6E3DE" stroke-width="0.523087" stroke-miterlimit="10"/>
</svg>
