<svg width="274" height="220" viewBox="0 0 274 220" fill="none" xmlns="http://www.w3.org/2000/svg">
<rect width="274" height="220" fill="#E6E3DE"/>
<g filter="url(#filter0_d_2063_4730)">
<path d="M65.0817 111.575H66.6635V119.513C65.9604 120.003 64.998 120.396 63.776 120.698C62.5541 120.999 61.1564 121.15 59.5746 121.15C57.4864 121.15 55.7205 120.672 54.2893 119.714C52.854 118.756 51.7785 117.488 51.0671 115.906C50.3557 114.324 50 112.588 50 110.692C50 108.796 50.3724 107.093 51.1131 105.524C51.8538 103.95 52.9795 102.699 54.4818 101.758C55.9841 100.82 57.8212 100.352 59.9889 100.352C61.3573 100.352 62.6336 100.603 63.8262 101.101C65.0189 101.599 66.0148 102.306 66.8141 103.222L65.701 104.218C65.0775 103.436 64.2405 102.825 63.1944 102.385C62.1482 101.946 61.0811 101.724 59.9847 101.724C58.2062 101.724 56.6955 102.113 55.4443 102.896C54.1931 103.678 53.2473 104.745 52.6029 106.106C51.9584 107.461 51.6362 109.001 51.6362 110.721C51.6362 112.441 51.9417 114.019 52.561 115.396C53.1762 116.772 54.0801 117.852 55.2685 118.63C56.4612 119.413 57.8965 119.802 59.5746 119.802C61.9557 119.802 63.7928 119.48 65.0817 118.835V111.571V111.575Z" fill="#26260E"/>
<path d="M72.668 100.766H74.3084V120.685H72.668V100.766Z" fill="#26260E"/>
<path d="M82.9842 102.113V109.759H91.274V111.106H82.9842V120.685H81.3438V100.766H92.4458V102.113H82.9842Z" fill="#26260E"/>
<path d="M110.603 102.113H103.368V120.685H101.728V102.113H94.4922V100.766H110.603V102.113Z" fill="#26260E"/>
<path d="M168.985 100.766L162.687 120.949H161.281L155.422 103.519L149.534 120.949H148.128L142.094 100.766H143.763L148.86 118.517L154.807 100.766H156.037L162.013 118.517L167.374 100.766H168.985Z" fill="#26260E"/>
<path d="M179.062 111.311H175.166V120.685H173.525V100.766H179.677C181.045 100.766 182.204 100.996 183.163 101.456C184.121 101.917 184.841 102.54 185.33 103.331C185.82 104.122 186.063 105.013 186.063 106.013C186.063 107.44 185.615 108.612 184.715 109.529C183.816 110.445 182.518 110.993 180.819 111.169L187.762 120.689H185.887L179.062 111.315V111.311ZM175.166 109.964H179.677C181.221 109.964 182.397 109.637 183.209 108.985C184.021 108.332 184.422 107.348 184.422 106.039C184.422 104.846 184.008 103.896 183.175 103.18C182.347 102.469 181.179 102.113 179.677 102.113H175.166V109.964Z" fill="#26260E"/>
<path d="M202.612 113.83H194.205L191.568 120.685H189.957L197.72 100.502H199.126L206.918 120.685H205.248L202.612 113.83ZM202.084 112.483L198.393 102.846L194.702 112.483H202.084Z" fill="#26260E"/>
<path d="M220.966 101.481C221.971 101.959 222.728 102.62 223.239 103.457C223.745 104.298 224 105.244 224 106.298C224 107.997 223.423 109.353 222.272 110.37C221.121 111.387 219.468 111.893 217.321 111.893H212.81V120.681H211.17V100.762H217.321C218.748 100.762 219.962 101 220.966 101.481ZM221.071 109.478C221.929 108.767 222.36 107.717 222.36 106.332C222.36 105.043 221.92 104.017 221.042 103.256C220.163 102.494 218.924 102.113 217.321 102.113H212.81V110.55H217.321C218.962 110.55 220.213 110.194 221.071 109.483V109.478Z" fill="#26260E"/>
<path d="M133.163 117.496C132.648 119.166 130.966 120.195 129.384 120.698C128.35 121.024 127.283 121.179 126.199 121.149C124.986 121.116 123.839 120.79 122.776 120.225C121.224 119.396 119.638 118.124 118.746 116.588C117.96 115.241 117.788 113.697 118.412 112.236C118.993 110.868 120.173 109.842 121.437 109.102C122.241 108.633 123.069 108.256 123.94 107.926L126.011 107.143C125.526 106.03 125.203 104.888 125.274 103.674C125.383 101.557 126.944 99.7197 128.965 99.1673C130.2 98.8283 131.673 98.9706 132.61 99.908C133.418 100.716 133.368 101.9 132.92 102.887C132.439 103.946 131.443 104.796 130.476 105.419C129.321 106.147 128.128 106.65 126.835 107.135C127.488 108.633 128.493 109.939 129.551 111.186L131.3 113.136C132.384 114.341 133.723 115.726 133.175 117.5H133.163V117.496ZM131.346 103.854C131.794 103.293 132.112 102.674 132.25 101.967C132.451 100.937 132.175 99.8619 131.121 99.4435C130.405 99.1589 129.61 99.1798 128.894 99.4728C127.748 99.9373 126.877 100.946 126.467 102.105C125.902 103.607 126.124 105.407 126.718 106.875C128.4 106.181 130.2 105.281 131.346 103.854ZM129.555 119.831C130.313 119.434 130.961 118.886 131.447 118.183C132.108 117.22 132.464 115.914 131.832 114.864C131.43 114.195 130.941 113.604 130.422 113.023L129.3 111.759C128.112 110.42 126.932 108.985 126.111 107.378L124.99 107.855C124.232 108.177 123.517 108.541 122.81 108.968C121.462 109.78 120.215 110.792 119.65 112.311C118.977 114.119 119.5 116.007 120.659 117.484C121.466 118.513 122.496 119.35 123.663 119.944C125.513 120.886 127.739 120.785 129.551 119.831H129.555Z" fill="#26260E" stroke="#26260E" stroke-width="0.523087" stroke-miterlimit="10"/>
</g>
<defs>
<filter id="filter0_d_2063_4730" x="46" y="98.7388" width="182" height="30.6758" filterUnits="userSpaceOnUse" color-interpolation-filters="sRGB">
<feFlood flood-opacity="0" result="BackgroundImageFix"/>
<feColorMatrix in="SourceAlpha" type="matrix" values="0 0 0 0 0 0 0 0 0 0 0 0 0 0 0 0 0 0 127 0" result="hardAlpha"/>
<feOffset dy="4"/>
<feGaussianBlur stdDeviation="2"/>
<feComposite in2="hardAlpha" operator="out"/>
<feColorMatrix type="matrix" values="0 0 0 0 0 0 0 0 0 0 0 0 0 0 0 0 0 0 0.5 0"/>
<feBlend mode="normal" in2="BackgroundImageFix" result="effect1_dropShadow_2063_4730"/>
<feBlend mode="normal" in="SourceGraphic" in2="effect1_dropShadow_2063_4730" result="shape"/>
</filter>
</defs>
</svg>
