<svg width="163" height="163" viewBox="0 0 163 163" fill="none" xmlns="http://www.w3.org/2000/svg">
<g clip-path="url(#clip0_2070_739)">
<path d="M165.325 -3.04248H-3.04297V165.325H165.325V-3.04248Z" fill="#E6E3DE"/>
<path d="M56.3641 93.3639C55.6744 82.207 62.5308 72.3991 72.927 69.2447C75.3206 68.5144 77.6027 68.3623 79.7631 67.8247C79.0227 66.4555 77.7447 65.8165 76.6899 64.8428L63.687 52.8441C62.7641 51.9921 61.618 50.4809 62.3077 49.2536C62.9568 48.0872 65.959 44.4764 66.8414 44.0403C69.0931 42.9145 64.2043 48.8885 64.3767 49.497C67.2167 49.9737 69.9552 49.426 72.7343 48.8479L69.1133 42.5899C68.5555 42.7116 68.3324 43.097 67.7745 42.884C68.2512 42.0625 69.4379 40.5817 70.5942 40.8251C72.0649 41.1294 73.0588 40.7845 74.4484 40.6121C80.5441 39.8412 86.5891 39.9021 92.7659 40.6729C94.2062 42.4073 100.626 49.7303 98.3748 51.7081C96.6404 53.2295 95.3625 54.8726 93.7904 56.4751C89.9767 60.38 86.0617 63.8285 82.5016 68.0073C93.4861 68.0073 98.8312 74.1132 103.659 82.4504C104.653 84.1645 104.886 85.5946 105.282 87.4913C107.97 100.23 99.9774 111.58 87.9685 115.049C84.2056 116.134 81.3859 115.383 77.7549 114.907C66.4763 113.416 57.0943 105.423 56.3539 93.374L56.3641 93.3639ZM78.6068 42.7623C75.7771 42.2146 73.6877 42.174 70.8985 42.2045C71.7809 44.4866 72.7748 46.3427 74.2557 48.0263L78.6068 42.7725V42.7623ZM87.7352 48.077C88.6886 45.9674 89.5 44.6793 90.5244 42.9753C87.8265 42.4986 85.4227 42.5493 82.9479 42.8739C84.7228 44.6691 85.5444 46.9614 87.7352 48.077ZM96.113 48.9493L92.3095 42.9753L88.8509 48.9087C91.4271 49.355 93.6585 49.2232 96.113 48.9493ZM84.7634 48.929L80.6557 43.2593C78.9111 45.3284 77.2883 47.0019 75.99 49.284C79.0734 49.0305 81.9133 49.7912 84.7533 48.929H84.7634ZM88.3539 58.4935C90.9504 55.9274 93.5064 53.8482 95.6262 50.988C93.0499 50.6634 90.5244 50.349 87.9685 50.9373L83.455 63.3214C85.5545 62.2666 86.6094 60.2076 88.3539 58.4935ZM77.0449 62.084C76.061 58.0878 74.2252 54.8016 72.6633 51.201C70.1175 51.1503 67.947 50.988 65.2896 51.627L77.0449 62.084ZM86.366 51.13L75.2801 51.3633L81.1019 64.9949L86.366 51.13ZM99.5716 103.882C100.961 102.533 101.641 101.204 101.986 99.2669C102.168 98.2425 102.827 97.1673 102.919 95.7068C102.98 94.8853 103.821 94.297 103.75 93.1711C103.578 90.4935 103.811 87.6941 102.401 85.2193C101.884 84.2963 100.606 83.5154 100.495 82.3895C100.271 80.1379 98.598 79.3163 97.3808 77.8254L95.545 75.5838C93.7295 73.3626 91.4778 71.8311 88.4148 71.4355C87.9482 71.3747 87.7352 70.4415 87.1976 70.33C82.3089 69.336 75.1381 69.0621 70.9999 72.0238C69.2959 73.2409 67.4601 74.1132 66.0807 75.665C64.184 77.7949 62.3989 80.1379 61.1514 82.8764C58.8794 87.9071 59.062 93.942 60.5733 99.206C60.9181 100.423 63.1393 102.33 62.5206 102.573L61.8005 102.857C61.5064 102.969 64.7926 106.448 65.7764 107.34C74.4889 115.272 86.6195 115.323 95.5957 108.345C97.1983 107.097 98.1314 105.261 99.5615 103.872L99.5716 103.882Z" fill="#3F2116"/>
<path d="M55.9673 73.7386C55.1762 76.1323 53.4519 77.3595 52.0725 81.8831C47.8126 95.8495 55.7644 112.24 68.1892 117.129L71.6478 118.488C77.0741 120.628 82.4395 121.135 88.0484 119.391C99.7226 115.749 109.145 108.832 111.589 96.1538C112.553 91.1738 112.401 86.1329 110.869 81.2847C110.666 80.6559 109.601 80.4429 109.47 79.8546C108.729 76.6901 102.958 69.0121 98.8706 67.0343L91.1013 63.2816C95.4525 62.6527 100.372 65.3507 103.516 67.6327C110.048 72.3693 113.364 79.6923 114.318 87.5731C115.89 100.627 109.825 112.433 98.0085 118.498C87.0139 124.137 70.2988 123.488 60.572 115.82C56.4846 112.595 52.9448 108.893 50.8148 104.227C47.0824 96.0524 46.6259 87.2891 50.0947 78.9418C52.6811 72.7243 61.1197 63.0584 69.1324 64.2248C65.5521 64.8841 62.6411 66.6185 59.8722 69.0628C59.2332 69.6308 58.7464 69.7525 58.5435 70.6654C58.2798 71.8622 56.4034 72.4708 55.9774 73.7487L55.9673 73.7386Z" fill="#3F2116"/>
</g>
<defs>
<clipPath id="clip0_2070_739">
<rect width="162.282" height="162.282" fill="white"/>
</clipPath>
</defs>
</svg>
