<svg width="163" height="163" viewBox="0 0 163 163" fill="none" xmlns="http://www.w3.org/2000/svg">
<g clip-path="url(#clip0_2070_720)">
<path d="M165.325 -3.04297H-3.04297V165.325H165.325V-3.04297Z" fill="#E6E3DE"/>
<path d="M135.607 82.3681C133.731 79.6702 130.708 78.1184 128.335 75.7044C120.525 67.7323 116.752 63.2189 107.725 55.8756C105.544 54.1006 102.644 52.0214 99.6311 52.0113L70.532 51.9403L40.1954 52.0315C37.5482 52.0315 35.1342 51.9504 32.4768 52.0721C29.5051 52.204 25.945 51.0984 23.5919 52.7821C23.1963 53.0661 23.6325 53.4718 23.7238 54.0195C24.2816 57.3767 23.8759 67.1745 23.3992 70.7345C23.1152 72.8036 24.3323 75.6943 22.8921 76.4651C20.0927 77.9764 21.0258 67.2759 21.0461 66.4138L21.391 52.3865C22.2125 50.2972 27.5171 50.145 29.7383 50.145L99.1646 50.1957C104.165 50.1957 108.06 53.056 111.427 56.1697C115.038 59.4965 118.862 62.1843 121.904 65.9574C124.146 68.7263 126.55 71.3025 129.258 73.6049C130.272 74.467 131.601 74.9336 132.727 75.7957C143.011 83.6461 141.307 89.8534 141.246 100.392C141.236 102.025 140.871 103.232 139.005 103.445C134.461 103.972 129.694 103.495 125.109 102.927C124.937 102.177 125.728 101.862 126.306 101.913C129.227 102.177 131.875 102.035 134.856 102.014C136.195 102.004 138.275 101.994 138.914 100.351C139.887 97.8356 139.451 94.7218 139.198 91.9326C135.769 93.667 131.915 93.4845 129.734 90.462C128.527 88.7783 129.156 86.628 130.039 84.9748C130.921 83.3215 132.99 82.784 135.587 82.3783L135.607 82.3681ZM132.321 89.8027C134.572 90.9082 136.895 90.8778 139.137 89.6708C139.177 87.3583 138.356 85.1472 136.642 83.5853C135.13 83.7881 133.629 84.0721 132.473 85.0154C130.972 86.2426 131.144 88.1697 132.321 89.8027Z" fill="#3F2116"/>
<path d="M105.039 78.494C103.477 78.494 98.7201 78.3925 98.4868 78.4331C96.3163 78.7678 94.1154 78.0375 93.7299 75.4512C93.2634 72.378 93.5981 69.1019 94.1762 65.9983C93.9328 63.4525 93.8821 60.9675 94.1356 58.4014C97.6348 56.8598 101.935 56.2918 105.313 58.8274C110.313 62.5802 114.857 66.9719 118.813 71.8201C120.08 73.3719 120.354 75.8974 118.985 77.145C117.322 78.6562 115.08 78.5244 113.031 78.5143L105.049 78.494H105.039ZM117.281 75.2585C116.713 71.1811 114.431 72.0128 112.981 69.6902C112.058 68.1992 110.516 67.5298 109.38 66.333L103.923 60.572C102.027 58.5739 98.5071 59.5983 96.1135 60.0344C96.9654 65.4505 96.3873 70.3292 96.3366 75.8163L106.114 75.5425C108.325 75.4816 110.394 75.583 112.544 75.4613C114.117 75.3802 115.597 76.2322 117.281 75.2585Z" fill="#3F2116"/>
<path d="M40.6512 111.477C36.513 110.301 33.9469 107.217 33.7948 103.039C33.6731 99.8235 35.0119 97.5515 37.1114 95.3202C38.6429 93.6973 40.1136 93.0381 42.3146 92.8555C47.325 92.4295 51.7574 95.4317 52.731 100.341C53.4715 104.083 52.1022 106.883 49.384 109.134C46.828 111.254 44.2214 112.492 40.6512 111.477ZM41.6147 108.901C44.0388 109.489 46.5846 108.384 48.4813 106.589C51.0271 104.165 50.378 99.4888 48.2176 97.3284C45.3168 94.4276 41.6553 94.529 38.4807 96.5576C36.2594 97.9674 35.7523 101.507 36.6347 103.576C36.9086 104.225 36.1681 107.593 41.6249 108.911L41.6147 108.901Z" fill="#3F2116"/>
<path d="M70.7558 104.368C68.3723 104.449 56.1301 105.413 55.8867 102.035C59.2744 101.183 61.9723 102.207 65.7656 101.7C70.1168 101.112 84.7425 100.96 89.5399 101.061L100.382 101.274C101.143 101.284 101.549 102.228 101.65 102.674C101.782 103.283 100.819 104.033 99.9463 104.033H80.2392L70.7558 104.368Z" fill="#3F2116"/>
<path d="M106.041 108.495C102.299 107.177 102.532 98.7484 106.589 96.0403C109.277 94.2552 112.401 92.8048 115.545 93.4235C118.912 94.0929 121.428 96.4561 122.391 99.3164C123.486 102.562 122.969 105.696 120.657 108.607C116.032 114.429 107.634 111.893 105.605 109.246C105.514 109.124 105.717 108.992 106.041 108.495ZM110.433 109.145C113.293 110.159 116.204 109.682 118.141 107.775C119.967 105.98 120.596 103.302 119.937 100.635C119.095 97.2371 116.285 95.2695 112.786 95.1579C110.007 95.0767 106.64 96.8618 105.93 99.7931C104.946 103.82 106.498 107.745 110.423 109.134L110.433 109.145Z" fill="#3F2116"/>
<path d="M31.372 102.623C30.3071 104.084 28.5524 103.181 27.2034 103.161C24.5562 103.12 21.8583 101.568 21.3207 98.5966C21.199 97.9373 21.0164 96.6999 21.0367 95.9595L21.2903 86.7297C21.3511 84.6707 21.4526 82.7639 21.3106 80.7253C21.2599 80.0457 21.7873 79.427 22.1727 79.3357C24.3838 78.8286 23.7448 85.2184 23.7955 86.6181L24.1606 95.9189C24.2114 97.2273 23.9984 98.9211 24.7996 99.9354C26.7876 102.451 32.9746 100.392 31.3619 102.613L31.372 102.623Z" fill="#3F2116"/>
<path d="M62.0017 70.9272C59.3037 72.6211 56.7883 74.1627 54.0296 75.4813L48.4105 78.1792C44.9113 79.8629 33.9269 83.4432 29.7988 82.6217L33.4705 81.1713C36.7262 79.8832 40.124 79.5079 43.4305 78.1893C47.4267 76.597 51.6765 74.9539 55.3988 72.834C53.9383 72.4993 52.7516 72.9862 51.4128 73.0775C48.4815 73.2803 45.601 72.2965 43.8666 70.0651C42.751 68.6249 42.68 67.4889 42.8118 65.8863C43.0147 63.4014 44.2622 61.8394 46.6254 61.3932C48.7858 60.9875 50.6825 60.5108 52.9139 61.4642C56.4942 62.9957 59.5167 65.1967 62.2045 68.1786L65.795 65.7748C68.5842 63.9085 71.8501 62.2959 75.2378 62.8233C77.9154 63.2391 79.8425 63.6448 81.5262 66.1602C83.2099 68.6756 82.7129 73.118 79.021 74.5583C75.0349 76.1101 70.3186 74.5786 66.5658 73.1079C68.8479 76.2521 71.9009 78.1386 75.0146 80.0962C76.1303 80.796 77.388 81.2321 78.2501 82.3884C71.4647 81.7393 66.1398 76.0695 62.0017 70.9374V70.9272ZM60.1658 69.4464C58.5937 67.7323 57.3969 66.718 55.8147 65.7646C53.4311 63.7361 47.518 61.0483 45.4083 64.1824C44.6882 65.2474 44.8708 66.2515 45.1345 67.4787C46.4023 73.3716 56.5551 71.4445 60.1557 69.4464H60.1658ZM78.0067 72.7833C79.2238 72.4892 80.0352 71.9821 80.4612 71.0794C80.9278 70.0955 80.8162 68.9697 80.1062 67.9047C78.5544 65.5922 75.2378 64.6185 72.4181 65.4198C69.2333 66.3225 66.4847 67.9453 63.807 69.7811C68.6146 72.3878 72.834 73.5947 78.0067 72.7732V72.7833Z" fill="#3F2116"/>
</g>
<defs>
<clipPath id="clip0_2070_720">
<rect width="162.282" height="162.282" fill="white"/>
</clipPath>
</defs>
</svg>
