<svg width="163" height="163" viewBox="0 0 163 163" fill="none" xmlns="http://www.w3.org/2000/svg">
<g clip-path="url(#clip0_2070_712)">
<path d="M165.327 -3.04297H-3.04102V165.325H165.327V-3.04297Z" fill="#E6E3DE"/>
<path d="M60.4726 94.7318C58.9715 93.2206 59.2656 91.2225 59.5192 89.5997L51.9426 86.9727C49.2143 88.3014 45.4311 89.0418 42.7839 86.6583C41.3639 85.3803 41.729 83.1287 42.4086 81.4653L38.6558 79.3962C37.3271 78.6558 35.9984 78.2399 34.7712 77.1344C32.7934 78.0675 29.9332 78.2298 28.5538 76.252C27.6206 74.9131 27.8945 72.5702 28.6045 71.1502C29.7303 68.8783 32.8948 68.1074 34.9538 69.4158C37.0127 70.7242 36.11 73.5135 36.1709 75.2073C37.9763 77.3169 41.1205 78.8485 43.6663 79.8627C44.9037 79.7512 46.2932 78.7876 47.6625 78.8992C50.7052 79.1426 52.7439 81.5667 52.6526 84.7008L59.9147 88.2405C61.5376 85.076 64.6716 83.5039 68.3433 83.9401C72.0149 84.3762 75.0678 86.3033 77.8773 88.484C78.9727 89.3359 79.8856 90.2894 81.2345 90.7153C86.0929 86.709 93.5477 82.1854 98.7914 88.2304L107.037 85.4818C106.48 83.0779 107.798 81.6174 109.532 80.6234C111.865 79.2846 113.985 81.0799 116.044 81.0596C118.61 81.0291 121.338 78.7369 123.499 77.6009C124.686 76.9822 124.807 75.9781 124.584 74.9334C124.077 72.5803 125.507 70.3997 127.891 70.2577C129.179 70.1765 130.071 69.426 130.325 68.1581C131.42 62.6913 128.479 57.8532 123.752 55.0945C119.026 52.3357 114.259 50.9563 108.985 49.7189C106.713 49.1813 104.38 49.4247 102.291 48.3496C109.796 48.2583 117.403 49.1205 123.793 52.9544C126.298 54.4555 128.489 56.0174 130.152 58.4821C135.031 65.7544 131.654 69.0913 133.489 70.8967C134.737 72.1341 134.585 75.0551 132.992 76.6982C131.522 78.2095 128.672 77.5097 126.653 78.2399C123.012 79.5483 121.115 81.6377 117.342 82.8954C118.042 85.786 116.805 88.1797 114.198 89.2142C111.733 90.1981 109.208 89.2142 107.281 87.3886C104.857 88.5245 102.554 89.3055 99.8868 90.1372C100.293 93.3524 99.1058 96.0909 96.0428 97.5413C91.367 99.7626 86.4681 97.0342 82.5429 94.3261C82.4719 95.2085 82.0155 96.4561 82.5429 97.1762C83.2123 98.089 84.47 98.3527 84.754 99.2453C85.1394 100.462 84.9265 101.507 84.612 102.826C86.7116 102.43 89.0139 101.974 90.6063 103.647C92.5537 105.706 92.4624 108.952 90.9207 111.376C89.3791 113.8 86.7521 115.453 84.4092 117.289C83.4253 118.06 82.2082 118.952 80.9201 118.242C78.2628 116.792 75.8691 114.895 73.8507 112.725C72.5727 111.345 70.3718 106.487 73.1813 104.053C74.6723 102.765 76.8124 102.633 78.709 102.978C78.1613 101.71 77.8165 100.696 78.1512 99.5293C78.4048 98.6367 79.2973 97.947 80.5651 97.6022C80.7071 96.2329 80.484 94.884 80.1087 93.4437C73.942 96.6183 66.1322 100.432 60.4726 94.7217V94.7318ZM34.1728 71.5864C33.5034 70.8358 31.5053 71.2922 30.9068 71.8602C29.9737 72.7426 29.8824 73.8279 30.4099 74.5886C30.9677 75.4 31.8095 75.9984 32.9151 75.4101C34.0206 74.8219 35.0856 72.6108 34.1728 71.5965V71.5864ZM125.811 75.4406C127.728 76.7185 129.98 76.5055 131.461 75.0044C132.242 74.2032 132.353 73.0063 131.938 72.0935C130.284 70.6127 125.101 72.6108 125.811 75.4507V75.4406ZM49.4983 85.2485C50.6241 83.5547 50.0155 81.4044 48.3927 80.7959C46.3743 80.0453 43.8184 82.3375 44.3965 84.4269C44.9442 86.4047 48.3927 86.9119 49.4983 85.2485ZM115.324 83.8792C114.837 82.3578 113.113 81.9014 111.835 81.9521C110.658 82.0028 109.37 83.1997 109.309 84.6602C109.228 86.6076 111.155 87.9464 112.738 87.5914C114.32 87.2364 115.922 85.786 115.314 83.8894L115.324 83.8792ZM78.9322 91.8716C74.9258 88.342 67.6029 83.0577 63.414 87.3277C61.9838 88.7882 61.2941 91.2428 62.2678 93.1394C65.0266 98.5455 75.1084 94.7217 78.9322 91.8716ZM95.7993 94.8637C97.0976 93.3119 97.6149 91.5369 96.8237 89.6605C94.5417 84.2646 85.5857 88.8897 82.9689 92.2063C85.9204 95.3302 92.6247 98.6469 95.7993 94.8637ZM80.413 101.507C81.1534 102.349 82.0155 102.116 82.6748 101.609C83.2225 101.193 83.2529 100.28 82.8776 99.7727C82.4212 99.1439 81.6707 99.083 80.9201 99.2757C80.3521 99.4177 80.058 99.9248 79.916 100.402C79.845 100.655 79.9971 101.02 80.413 101.497V101.507ZM81.8228 116.67C84.5816 115.088 91.0425 110.098 89.8355 106.69C89.4906 105.726 88.8922 104.631 87.5737 104.357C85.2409 103.87 83.1616 105.24 81.975 107.359C80.2608 105.483 77.6643 103.667 75.5648 105.422C71.6498 108.698 78.8612 114.784 81.8127 116.67H81.8228Z" fill="#3F2116"/>
<path d="M68.5246 46.2602C58.1284 47.3353 36.555 53.1268 32.8935 64.4662C32.0923 62.8028 32.6095 61.2713 33.4514 59.8818C39.1211 50.4998 58.0168 44.4447 68.5651 44.0491L76.0504 43.7651L81.2637 44.7185C82.6634 44.9721 84.1442 44.6577 85.3715 45.317C82.0954 45.6111 79.154 45.1648 76.02 45.4894L68.5144 46.2704L68.5246 46.2602Z" fill="#3F2116"/>
<path d="M111.754 54.8308C107.413 53.5426 103.559 52.3154 98.7916 52.0517C93.629 51.7677 88.3041 49.4754 83.1517 50.2361C80.7377 50.5911 78.4252 50.0333 75.991 50.0333C74.2769 50.0333 72.5121 50.2463 70.7574 50.3579C68.6883 50.4897 66.822 51.7271 64.6211 50.865C74.6014 48.4409 85.7887 48.2786 96.0734 49.9217L101.916 50.8548C108.123 51.8488 113.975 54.0498 119.675 56.7173C121.339 58.117 123.195 58.7154 124.584 60.4599C122.322 59.2631 115.831 57.2853 114.391 56.4536C113.367 55.8653 112.93 55.1756 111.754 54.8206V54.8308Z" fill="#3F2116"/>
<path d="M38.4213 53.2078C31.4736 55.2566 29.4654 61.6059 29.0597 68.5535C27.8324 67.0829 28.0251 65.4398 28.1468 63.5735C28.5018 58.0357 32.6603 53.0861 38.4213 53.2078Z" fill="#3F2116"/>
</g>
<defs>
<clipPath id="clip0_2070_712">
<rect width="162.282" height="162.282" fill="white"/>
</clipPath>
</defs>
</svg>
