<svg width="163" height="163" viewBox="0 0 163 163" fill="none" xmlns="http://www.w3.org/2000/svg">
<g clip-path="url(#clip0_2070_745)">
<path d="M165.327 -3.04248H-3.04102V165.325H165.327V-3.04248Z" fill="#E6E3DE"/>
<path d="M94.9349 93.779C94.6611 93.5457 94.1945 93.7993 94.0424 93.708C93.8294 93.5762 93.8497 93.1502 93.8598 92.8763C93.9004 91.3549 92.3384 90.3711 92.0747 89.0526C91.8516 87.9369 91.5777 87.6326 90.9286 86.7197C90.6953 86.385 88.2205 79.7011 86.3238 76.9118C84.559 74.3153 83.2506 71.4957 81.2424 69.0209C80.3295 68.9296 79.437 68.9296 78.3213 68.6456C76.1609 71.2015 74.4671 74.0618 73.4934 77.3987L69.0104 92.7242C68.6655 93.9007 68.1077 94.8643 68.2598 96.1118C67.7933 96.0611 67.7223 95.7771 67.3876 95.6047C67.7628 97.7448 66.5051 99.5299 66.1299 101.396C65.8154 102.968 65.7749 104.459 64.7708 105.92C64.2433 106.691 64.578 107.857 64.3448 108.76C63.2088 113.06 64.5578 114.886 63.5131 115.9C61.515 117.847 57.5391 111.458 56.9102 110.859C55.896 109.916 55.2265 109.409 54.5166 108.131C51.6462 102.999 38.5825 108.942 36.7264 104.449C40.2256 103.242 42.7816 100.859 45.0332 98.2722C45.1448 98.1505 45.8041 98.4142 45.9663 98.4142C46.4025 98.4142 45.7331 97.6941 45.9258 97.4709C52.5083 89.5495 57.0624 82.1251 64.6896 74.7007C54.2833 77.8551 42.031 78.9201 37.8421 66.7591C35.7629 63.4221 35.7933 59.5172 36.7365 55.9673C37.9334 51.4336 40.4487 48.1981 45.0129 46.7071C51.6259 44.5366 59.811 47.6706 64.9736 51.5451C68.5134 54.2025 71.83 56.6874 75.0858 59.6187C75.7451 60.2069 76.8608 60.8865 77.6519 61.2922C79.8833 60.6532 82.0335 60.7242 84.204 61.4748C92.592 55.0849 104.327 46.1898 115.565 48.7863C117.867 49.3138 120.646 50.4396 122.391 52.0015C123.801 53.2592 124.511 55.6833 125.282 57.4076C126.397 59.9026 126.255 62.773 126.032 65.329C125.779 68.3413 121.772 72.7736 119.49 73.8893C116.042 75.5831 112.096 76.9727 108.12 76.1308C103.374 75.1267 106.477 77.2364 96.0912 73.4431C95.1378 73.0982 94.3162 72.7939 93.4338 73.1591L100.645 80.0358L104.489 83.9508L112.137 93.4342C113.384 94.9758 121.722 101.143 124.45 102.167C120.738 104.52 116.62 104.814 112.36 104.459C111.498 104.388 109.733 105.382 109.246 106.062C106.274 110.271 106.69 113.78 103.881 113.435C101.629 113.162 100.118 106.975 99.702 104.814C99.5397 103.993 98.921 103.404 98.6978 102.593C96.2535 93.6776 94.0627 96.7812 94.9451 93.7689L94.9349 93.779ZM73.4731 62.9759C71.6373 60.5416 69.1118 59.2738 66.9616 57.4988C63.0668 54.2735 59.1416 52.0624 54.547 49.9426C49.9017 47.7924 43.9987 47.9445 40.9254 52.7825C40.0126 54.2228 40.114 56.9511 39.8706 58.5435C39.4345 61.3632 40.398 63.199 41.3616 65.6028C42.9337 69.5584 45.8041 73.0171 50.6218 73.3619C59.2836 73.9806 67.986 70.7755 75.1872 65.9882M87.5612 62.702C86.05 63.0164 85.3501 64.4364 85.5936 66.2824C87.3989 66.5461 88.5248 67.682 90.0056 68.1689C96.6693 70.3496 100.706 72.3984 107.806 73.1692C109.084 73.3112 110.676 73.0069 112.015 72.9258C118.841 72.4896 123.273 66.7692 122.077 59.9432C121.722 57.9248 121.143 55.3283 119.967 53.6142C116.346 48.3806 105.017 51.9813 100.321 54.7401L94.3162 58.2697L88.6059 62.134M42.1324 103.688C43.735 103.942 44.9622 104.013 46.088 103.972L49.496 103.84C51.9708 103.749 54.0094 103.668 56.0684 105.108C57.3971 106.031 57.3869 107.259 58.4418 108.435L61.3425 111.691C63.7362 99.7835 66.8196 88.3831 71.1099 77.1654C71.9517 74.9543 73.4833 73.3112 74.0107 71.0291C72.3473 71.8405 70.9172 72.9664 69.5175 74.2545L62.367 80.8472C60.5717 82.5004 59.4256 84.8332 57.6506 86.3546C56.6668 87.2066 56.2408 87.4804 55.5308 88.9511C54.3644 91.3549 50.9666 94.5397 49.2221 97.4405C47.4776 100.341 44.7391 102.177 42.1223 103.698L42.1324 103.688ZM120.677 101.822C117.969 100.25 115.24 99.0836 113.029 96.9942C111.275 95.3308 109.175 93.9007 107.694 91.9736C105.199 88.728 102.775 85.7663 99.8541 82.8655C99.0224 82.0339 98.5051 80.9892 97.5821 80.1676C94.1641 77.135 91.3242 73.7068 87.1352 71.303L91.243 78.5854L98.9818 96.4567C100.828 100.727 102.816 104.449 104.54 109.013C106.315 107.766 106.812 106.214 107.867 104.642C109.946 101.558 116.965 103.769 120.677 101.822Z" fill="#3F2116"/>
</g>
<defs>
<clipPath id="clip0_2070_745">
<rect width="162.282" height="162.282" fill="white"/>
</clipPath>
</defs>
</svg>
