<svg width="163" height="163" viewBox="0 0 163 163" fill="none" xmlns="http://www.w3.org/2000/svg">
<g clip-path="url(#clip0_2070_703)">
<path d="M165.325 -3.04297H-3.04297V165.325H165.325V-3.04297Z" fill="#E6E3DE"/>
<path d="M124.704 114.753C119.582 106.963 112.827 102.501 104.56 99.1739C97.0853 96.1616 88.4945 95.4414 88.2511 86.6884L81.7902 87.4389C79.6907 87.6823 77.7433 87.0129 75.3699 87.0941C73.0676 92.7739 66.0793 96.5876 60.6936 99.3463C54.3646 102.592 39.9823 110.412 36.4324 116.558L33.0042 122.502C30.6714 120.027 39.3738 109.225 40.8749 107.795C45.6318 103.261 51.5956 100.675 57.3059 97.6627L64.2435 94.0113C67.7833 92.1451 70.9275 90.0253 73.3516 86.6782C64.7101 82.9457 63.6146 81.759 58.665 74.9533C57.2451 72.9958 56.8191 71.2107 56.2917 68.9895C54.9224 63.2487 55.8961 56.4228 58.5738 51.2703C64.6492 39.5454 77.9259 34.89 89.9753 40.4786C95.7363 43.1461 100.006 48.6637 100.422 55.4288C99.4891 52.4773 97.9373 50.1546 95.6349 48.1464L93.3021 46.1179C86.8007 40.4481 77.1956 39.0992 69.6799 43.5112C62.8945 47.4973 59.7706 54.5058 59.0708 62.1736C58.807 65.0643 58.9592 66.9305 60.1763 69.6285C61.9107 73.4725 63.8074 77.0934 67.3776 79.9334C74.2137 85.3698 85.0663 86.2015 92.0038 80.8259C94.8235 78.6453 97.0954 75.3388 98.0286 71.9917L101.365 60.0944C103.485 68.6649 99.124 79.9841 91.872 84.244C90.9592 86.7492 92.7544 91.3844 95.5436 92.3682C106.609 96.2833 111.63 97.1454 121.022 105.148C123.791 107.501 125.414 110.229 127.097 113.323C128.943 116.711 130.444 120.118 129.268 124.145C127.716 123.06 126.093 116.853 124.714 114.753H124.704Z" fill="#3F2116"/>
</g>
<defs>
<clipPath id="clip0_2070_703">
<rect width="162.282" height="162.282" fill="white"/>
</clipPath>
</defs>
</svg>
