<svg width="163" height="163" viewBox="0 0 163 163" fill="none" xmlns="http://www.w3.org/2000/svg">
<g clip-path="url(#clip0_2070_732)">
<path d="M165.325 -3.04248H-3.04297V165.325H165.325V-3.04248Z" fill="#E6E3DE"/>
<path d="M79.0614 78.0783C75.4101 80.3706 72.0123 82.4498 68.29 84.2349L60.6931 87.8863C55.9565 90.1582 41.1077 95.0064 35.5293 93.8907L40.4992 91.9332C44.9011 90.1988 49.4957 89.6815 53.9584 87.8964C59.3543 85.7462 65.1052 83.5249 70.1359 80.6546C68.1581 80.2083 66.5556 80.8574 64.7502 80.9791C60.7844 81.253 56.8897 79.9344 54.5467 76.9018C53.0355 74.9544 52.9442 73.4127 53.1267 71.2524C53.4006 67.8951 55.0843 65.7855 58.2792 65.1769C61.2003 64.6292 63.7664 63.9801 66.7787 65.2682C71.6167 67.3373 75.7144 70.3091 79.3454 74.3459L84.1936 71.0901C87.9667 68.5646 92.3787 66.3839 96.9632 67.0939C100.584 67.6517 103.191 68.2096 105.463 71.6073C107.735 75.0051 107.065 81.0096 102.075 82.9569C96.6893 85.0565 90.3096 82.9772 85.2383 80.9994C88.3216 85.2593 92.4497 87.795 96.6589 90.4523C98.16 91.3956 99.864 91.9839 101.03 93.556C91.8614 92.6837 84.6602 85.0159 79.0614 78.0783ZM76.5765 76.0802C74.4465 73.7677 72.8339 72.3985 70.6938 71.1002C67.4786 68.3617 59.476 64.7306 56.626 68.9601C55.6624 70.4004 55.9058 71.7493 56.2608 73.4229C57.9749 81.395 71.708 78.7883 76.5765 76.0802ZM100.706 80.5937C102.349 80.1981 103.444 79.5186 104.022 78.2913C104.651 76.9627 104.499 75.4413 103.546 74.001C101.456 70.8669 96.9733 69.5687 93.1495 70.6438C88.8389 71.8609 85.1267 74.0619 81.5058 76.5468C88.0072 80.0663 93.7175 81.6993 100.696 80.5937H100.706Z" fill="#3F2116"/>
<path d="M110.635 66.5163C111.771 65.9483 112.339 65.1268 113.272 64.3154C116.122 61.8507 117.572 57.8951 115.564 54.6495C113.809 51.8095 111.203 50.6735 108.058 50.3084C97.0841 49.0203 85.1563 54.406 79.1418 63.9705C74.7297 56.2418 67.8327 51.7385 59.6273 50.1968C50.0527 48.3915 39.8594 53.9902 39.6362 64.6095C39.5348 69.3867 41.4518 73.7074 43.7947 77.7949C45.8334 81.3448 47.9633 84.8948 50.7931 87.8057C50.3976 88.6069 49.221 88.8098 48.6733 88.252C44.9915 84.4586 41.9488 80.4219 39.332 75.7055C35.0213 67.916 35.0822 55.9477 43.6527 50.6735C49.718 46.9309 55.6109 46.0891 62.7513 48.219C67.001 49.4869 70.6828 51.4038 73.898 54.5379C75.7845 56.3737 77.7116 57.8748 79.1823 60.6336C80.227 58.5746 84.7405 53.2903 86.1909 52.6108C87.5601 51.9718 88.757 50.6735 90.0856 50.2273C95.7148 48.3205 94.3354 47.6206 99.1836 47.438C100.604 47.722 102.115 47.4888 103.687 47.2453C105.604 46.9411 107.531 48.1886 109.377 48.3205C114.134 48.6552 121.234 54.3959 119.398 61.0697C118.292 65.0761 114.56 67.0539 111.061 68.484C108.92 69.3562 106.74 70.1271 104.366 69.4678C106.77 68.5347 108.586 67.5509 110.624 66.5265L110.635 66.5163Z" fill="#3F2116"/>
<path d="M89.4154 112.553C88.5432 113.233 83.3096 116.245 81.1492 114.886C78.9888 113.527 76.8081 112.624 74.8202 110.951C66.6757 106.194 59.3324 100.392 52.689 93.4444C52.0399 92.7649 53.4801 92.2476 53.9061 92.0549C54.5755 91.7607 55.0116 92.4403 55.6303 93.059C60.012 97.4508 64.7587 101.204 69.9112 104.703C74.0899 107.543 77.9948 110.454 82.559 112.705C86.6871 110.849 100.735 101.822 103.422 99.3474L109.295 93.9414C111.435 91.9737 113.352 89.9858 115.35 87.8761C116.973 86.1722 117.632 84.0016 118.961 82.1557C119.793 80.9994 120.766 80.33 121.385 78.8188C124.326 71.6682 125.432 68.9398 124.022 60.0752C127.46 60.5316 126.791 69.8527 126.487 72.1551C125.929 76.3135 124.418 79.7823 122.247 83.2917C121.486 84.5189 121.669 86.1012 119.975 86.9126C119.052 87.3487 118.565 88.8802 117.947 89.6308L115.807 92.2172C116.07 91.9027 113.808 93.3836 110.096 97.7449C111.323 96.2945 104.67 102.441 105.644 101.609C103.067 103.8 100.349 105.717 97.5397 107.563C94.436 109.602 92.5495 110.129 89.4357 112.543L89.4154 112.553Z" fill="#3F2116"/>
</g>
<defs>
<clipPath id="clip0_2070_732">
<rect width="162.282" height="162.282" fill="white"/>
</clipPath>
</defs>
</svg>
