<svg width="163" height="163" viewBox="0 0 163 163" fill="none" xmlns="http://www.w3.org/2000/svg">
<g clip-path="url(#clip0_2070_707)">
<path d="M165.325 -3.04297H-3.04297V165.325H165.325V-3.04297Z" fill="#E6E3DE"/>
<path d="M68.6055 120.555L91.112 120.524L105.515 120.149L110.992 120.007C111.904 119.987 112.665 119.743 113.588 120.21C114.105 120.291 114.734 119.652 115.292 119.692C116.742 119.794 118.152 119.642 119.359 118.729C120.789 117.644 120.597 114.621 120.444 112.796L119.674 103.353C119.461 100.695 119.359 98.1597 119.4 95.4821C119.42 94.5591 119.095 93.697 119.004 92.7638L117.331 75.6431C117.26 74.9635 117.29 74.3245 117.189 73.716C117.057 72.9451 116.6 72.296 116.793 71.4035C116.884 71.018 116.55 70.6732 116.489 70.3081C115.901 67.103 115.464 63.9486 115.099 60.6827C114.917 59.0903 114.765 57.1531 113.223 57.0212C108.567 56.6257 103.466 56.5445 98.8407 56.6155C100.18 57.8326 101.052 59.2729 101.417 61.0276C101.549 61.6665 101.833 62.0621 102.38 62.3461C103.557 62.9547 104.328 64.1413 104.561 65.328C104.845 66.7581 104.592 68.31 103.466 69.2735C101.244 71.1803 97.7047 70.3892 96.3152 67.7318C95.7168 66.5959 95.7472 65.186 96.1427 64.0399C96.589 62.7315 97.6946 62.0013 98.9218 61.6665C99.4492 59.7597 96.5079 56.9198 95.1488 56.7068C92.9377 56.3518 90.7773 56.6155 88.5054 56.6358L66.0902 56.8082C64.4775 57.2038 61.7897 60.3582 62.023 61.9505C62.0737 62.2751 64.3659 63.0561 64.1631 66.2307C64.0819 67.5087 63.4632 69.0605 62.1041 69.6691C59.9539 70.6428 57.1849 69.6589 56.0185 67.4783C54.8521 65.2976 56.0185 62.8634 57.9558 61.91C58.5542 61.6158 59.1019 61.5246 59.6699 61.1898C60.1973 59.3743 61.2014 57.9645 62.5605 56.7068C60.6131 56.5141 58.9295 56.5547 57.0835 56.5141L44.5878 56.2504C44.4458 56.2504 44.3444 56.1692 44.2937 56.1185C44.2328 56.0577 44.2937 55.8447 44.4661 55.7635C45.9469 55.0434 47.519 54.7087 49.2128 54.6986L64.802 54.6276C65.4816 54.6276 66.0699 53.9379 66.6784 53.6944C62.0737 53.5727 56.5054 50.4894 56.9618 44.9718C57.1342 42.8926 58.2803 40.9452 60.0959 39.7686C64.5586 36.878 71.5165 39.6875 75.6242 42.4463L80.8375 45.9556L86.0711 42.5781C89.5602 40.3265 95.4125 37.9227 99.4391 39.3832C101.61 40.1743 103.395 41.9391 103.902 44.3328C104.439 46.8685 103.425 49.3737 101.599 51.0574C99.6724 52.8323 97.2381 53.5626 94.7126 53.735C95.3618 54.0292 95.9703 54.5566 96.66 54.729L113.375 54.7087C115.667 54.7087 117.584 56.4532 117.889 58.8875L121.043 83.7673C121.367 86.303 121.479 88.7068 122.006 91.1714C122.27 92.3886 122.818 93.4738 122.929 94.7315L123.568 102.48C123.7 104.053 123.832 105.381 123.944 106.994L124.471 114.449C124.694 117.664 123.913 121.143 120.708 122.259C118.457 123.05 116.195 123.364 113.74 123.354L83.9006 123.212L62.4591 123.486L53.6654 123.729C49.01 123.861 44.5067 123.009 40.1149 121.457C39.7498 121.447 39.3745 121.691 38.9688 121.528C37.1735 116.802 37.843 107.957 38.3907 102.795L39.7599 89.8326L42.9548 63.2082C43.1881 61.2406 43.6242 59.4757 44.4052 57.7211C44.7602 58.1268 44.9529 58.6745 44.9326 59.2222L44.6487 66.606C44.5878 68.3201 44.3647 69.8111 44.6689 71.5252C44.9732 73.2393 44.4965 74.8824 44.2734 76.5559C43.7561 80.4304 43.3605 84.1122 43.0867 88.0374L41.9 105.138C41.8189 106.325 41.9 107.339 41.5856 108.505C41.403 109.144 41.7479 109.925 41.687 110.635C41.545 112.309 41.0176 116.822 42.0319 117.857C45.2978 119.479 51.9818 119.845 55.7041 119.976C57.4385 120.037 59.1526 120.321 60.8971 120.22C62.0027 120.149 62.9358 120.271 64.0109 120.382C65.5526 120.534 67.0334 120.585 68.636 120.575L68.6055 120.555ZM78.525 47.4466L73.5348 43.7851C71.0803 41.9797 66.79 40.1033 63.7878 40.9655C62.4388 41.3509 61.3738 42.2434 60.8971 43.3794C59.5076 46.7366 62.236 50.2155 65.5932 51.2602C69.9748 52.6193 74.8331 49.8301 78.525 47.4466ZM99.5405 48.7246C100.261 47.6596 100.524 46.483 100.504 45.1746C100.463 42.8418 98.8204 41.1277 96.589 41.1074C91.8423 40.9452 86.7507 44.6269 82.9573 47.477C84.9453 48.8057 86.8318 49.8301 88.8806 50.7835C92.5015 52.4773 97.0454 52.4063 99.5507 48.7347L99.5405 48.7246ZM91.6698 54.6377C87.7548 53.1265 84.1643 51.2906 80.5434 48.9781C77.0138 51.0979 73.4537 52.7512 69.5691 54.516L91.6698 54.6276V54.6377ZM61.5463 63.6748C61.2623 64.1008 61.242 64.8716 60.6943 65.0136C59.9234 65.2165 59.5279 64.3138 59.4062 63.5531C58.7469 63.7762 58.402 64.5471 58.3412 65.1658C58.2296 66.322 59.3757 67.9753 60.7349 67.6811C61.2014 67.5797 61.6781 67.1537 61.9215 66.5654C62.3272 65.5816 62.2968 64.4051 61.5463 63.6849V63.6748ZM101.61 64.0906C101.072 64.6485 101.021 65.7236 100.281 65.6627C99.5811 65.6019 99.6115 63.9081 99.2261 63.5632C97.9278 64.6586 98.151 66.89 99.4492 67.7826C100.322 68.3911 101.376 68.0868 101.853 67.1537C102.33 66.2206 102.269 64.9426 101.62 64.0906H101.61Z" fill="#3F2116"/>
</g>
<defs>
<clipPath id="clip0_2070_707">
<rect width="162.282" height="162.282" fill="white"/>
</clipPath>
</defs>
</svg>
