<svg width="201" height="220" viewBox="0 0 201 220" fill="none" xmlns="http://www.w3.org/2000/svg">
<rect width="201" height="220" fill="#26260E"/>
<path d="M77.2821 102.21H79.5314V113.498C78.5317 114.195 77.163 114.754 75.4255 115.183C73.6879 115.611 71.7004 115.825 69.451 115.825C66.4816 115.825 63.9705 115.147 61.9353 113.784C59.8943 112.421 58.365 110.618 57.3534 108.369C56.3417 106.12 55.8359 103.65 55.8359 100.955C55.8359 98.2589 56.3655 95.837 57.4188 93.6055C58.4721 91.368 60.0728 89.5888 62.2091 88.2499C64.3454 86.917 66.9577 86.2505 70.0401 86.2505C71.986 86.2505 73.8009 86.6075 75.4969 87.3157C77.1928 88.0238 78.609 89.0294 79.7456 90.3326L78.1627 91.7489C77.2761 90.6361 76.086 89.7673 74.5983 89.1425C73.1107 88.5177 71.5932 88.2023 70.0342 88.2023C67.5051 88.2023 65.357 88.7557 63.5777 89.8685C61.7985 90.9812 60.4536 92.4987 59.5372 94.4326C58.6208 96.3606 58.1626 98.5505 58.1626 100.996C58.1626 103.442 58.597 105.685 59.4777 107.643C60.3525 109.601 61.6378 111.136 63.3278 112.243C65.0237 113.356 67.0648 113.909 69.451 113.909C72.8369 113.909 75.4493 113.451 77.2821 112.534V102.204V102.21Z" fill="#E6E3DE"/>
<path d="M144.698 86.8396L135.742 115.54H133.743L125.412 90.7551L117.039 115.54H115.04L106.459 86.8396H108.833L116.081 112.082L124.537 86.8396H126.287L134.784 112.082L142.407 86.8396H144.698Z" fill="#E6E3DE"/>
<path d="M103.828 110.981C103.132 113.237 100.865 114.623 98.7288 115.301C97.3364 115.742 95.8963 115.95 94.4265 115.908C92.7901 115.867 91.2429 115.426 89.8028 114.659C87.7023 113.54 85.566 111.82 84.358 109.749C83.2988 107.929 83.0608 105.846 83.9058 103.876C84.6912 102.031 86.2801 100.645 87.9879 99.6453C89.0769 99.0145 90.1896 98.5028 91.3678 98.0565L94.1647 96.9972C93.5101 95.4977 93.0757 93.9505 93.1709 92.3141C93.3197 89.4578 95.4262 86.9764 98.1516 86.2266C99.8178 85.7684 101.805 85.9588 103.073 87.2263C104.162 88.3153 104.09 89.916 103.489 91.2489C102.841 92.683 101.496 93.8255 100.193 94.6646C98.6336 95.6464 97.0269 96.3248 95.2774 96.9794C96.1641 98.9967 97.5149 100.764 98.943 102.448L101.305 105.084C102.763 106.715 104.572 108.577 103.834 110.975L103.828 110.981ZM101.383 92.564C101.99 91.8083 102.418 90.9692 102.603 90.0171C102.87 88.6306 102.502 87.1727 101.079 86.6134C100.109 86.2325 99.0382 86.2623 98.0742 86.6491C96.5271 87.2739 95.3488 88.6425 94.8014 90.2016C94.0397 92.2308 94.3372 94.6586 95.1406 96.6402C97.4137 95.7059 99.8416 94.4861 101.389 92.564H101.383ZM98.9668 114.129C99.9903 113.594 100.865 112.856 101.52 111.904C102.412 110.606 102.894 108.845 102.043 107.423C101.502 106.518 100.841 105.727 100.139 104.935L98.6217 103.234C97.015 101.43 95.4262 99.4906 94.3194 97.3186L92.8079 97.9612C91.7844 98.3956 90.8204 98.8836 89.8683 99.4608C88.0474 100.556 86.3693 101.924 85.6017 103.977C84.6912 106.417 85.3994 108.964 86.9644 110.957C88.0533 112.35 89.4458 113.475 91.0168 114.278C93.5101 115.545 96.5152 115.409 98.9668 114.129Z" fill="#E6E3DE" stroke="#E6E3DE" stroke-width="0.74383" stroke-miterlimit="10"/>
<path opacity="0.5" d="M43.8688 126.37V128.589H46.38V129.25H43.8688V132.148H43V125.703H46.7608V126.364H43.8688V126.37Z" fill="#E6E3DE"/>
<path opacity="0.5" d="M50.1176 131.85C49.6416 131.553 49.2786 131.148 49.0465 130.63C48.8025 130.118 48.6895 129.553 48.6895 128.934C48.6895 128.315 48.8085 127.75 49.0465 127.244C49.2845 126.739 49.6475 126.334 50.1176 126.03C50.5937 125.733 51.1649 125.584 51.8373 125.584C52.5098 125.584 53.081 125.733 53.5571 126.03C54.0331 126.334 54.3961 126.733 54.6341 127.244C54.8722 127.756 54.9912 128.315 54.9912 128.928C54.9912 129.541 54.8722 130.124 54.6341 130.636C54.3961 131.148 54.0331 131.553 53.5571 131.856C53.081 132.16 52.5098 132.302 51.8373 132.302C51.1649 132.302 50.5937 132.154 50.1176 131.856V131.85ZM53.0632 131.267C53.4024 131.035 53.6642 130.72 53.8368 130.315C54.0093 129.91 54.0986 129.452 54.0986 128.934C54.0986 128.417 54.0093 127.964 53.8368 127.56C53.6642 127.155 53.3964 126.834 53.0572 126.608C52.7121 126.376 52.3074 126.257 51.8254 126.257C51.3434 126.257 50.9328 126.376 50.5877 126.608C50.2426 126.84 49.9807 127.161 49.8082 127.56C49.6356 127.964 49.5463 128.423 49.5463 128.934C49.5463 129.446 49.6356 129.904 49.8082 130.315C49.9807 130.72 50.2426 131.041 50.5877 131.267C50.9328 131.499 51.3434 131.612 51.8254 131.612C52.3074 131.612 52.7121 131.499 53.0572 131.267H53.0632Z" fill="#E6E3DE"/>
<path opacity="0.5" d="M59.7443 129.309H58.5661V132.142H57.6973V125.697H59.8574C60.5893 125.697 61.1486 125.852 61.5235 126.167C61.8984 126.483 62.0888 126.911 62.0888 127.464C62.0888 127.929 61.9639 128.304 61.7199 128.601C61.4759 128.893 61.1129 129.089 60.6309 129.184L62.7315 132.136H61.7199L59.7383 129.303L59.7443 129.309ZM58.5661 128.649H59.8574C60.7618 128.649 61.226 128.268 61.226 127.506C61.226 127.149 61.107 126.863 60.8749 126.667C60.6428 126.465 60.3036 126.364 59.8633 126.364H58.572V128.655L58.5661 128.649Z" fill="#E6E3DE"/>
<path opacity="0.5" d="M69.2364 131.493V132.148H65.2852V125.703H69.046V126.358H66.1599V128.411H68.6711V129.065H66.1599V131.487H69.2364V131.493Z" fill="#E6E3DE"/>
<path opacity="0.5" d="M77.0133 125.703L74.5199 132.219H73.6809L71.1816 125.703H72.0683L74.1034 131.249L76.1385 125.703H77.0073H77.0133Z" fill="#E6E3DE"/>
<path opacity="0.5" d="M83.4044 131.493V132.148H79.4531V125.703H83.2139V126.358H80.3279V128.411H82.839V129.065H80.3279V131.487H83.4044V131.493Z" fill="#E6E3DE"/>
<path opacity="0.5" d="M88.1837 129.309H87.0055V132.142H86.1367V125.697H88.2968C89.0287 125.697 89.5881 125.852 89.963 126.167C90.3379 126.483 90.5283 126.911 90.5283 127.464C90.5283 127.929 90.4033 128.304 90.1593 128.601C89.9154 128.893 89.5524 129.089 89.0704 129.184L91.171 132.136H90.1534L88.1718 129.303L88.1837 129.309ZM87.0115 128.649H88.3027C89.2072 128.649 89.6714 128.268 89.6714 127.506C89.6714 127.149 89.5524 126.863 89.3203 126.667C89.0882 126.465 88.749 126.364 88.3087 126.364H87.0174V128.655L87.0115 128.649Z" fill="#E6E3DE"/>
<path opacity="0.5" d="M95.7053 134.373L95.8064 133.719C95.9611 133.754 96.1099 133.766 96.2408 133.766C96.5859 133.766 96.8418 133.647 96.9906 133.415C97.1394 133.183 97.2227 132.82 97.2227 132.326V125.703H98.1034V132.344C98.1034 133.022 97.9546 133.552 97.663 133.909C97.3714 134.266 96.9192 134.451 96.3182 134.451C96.1337 134.451 95.9254 134.427 95.6934 134.373H95.7053Z" fill="#E6E3DE"/>
<path opacity="0.5" d="M105.299 131.493V132.148H101.348V125.703H105.108V126.358H102.222V128.411H104.734V129.065H102.222V131.487H105.299V131.493Z" fill="#E6E3DE"/>
<path opacity="0.5" d="M116.426 125.703L114.331 132.219H113.498L111.784 126.893L110.071 132.219H109.238L107.25 125.703H108.137L109.672 131.172L111.404 125.703H112.171L113.927 131.19L115.539 125.703H116.426Z" fill="#E6E3DE"/>
<path opacity="0.5" d="M122.822 131.493V132.148H118.871V125.703H122.632V126.358H119.746V128.411H122.257V129.065H119.746V131.487H122.822V131.493Z" fill="#E6E3DE"/>
<path opacity="0.5" d="M129.5 131.493V132.148H125.549V125.703H126.418V131.493H129.5Z" fill="#E6E3DE"/>
<path opacity="0.5" d="M135.938 131.493V132.148H131.986V125.703H132.855V131.493H135.938Z" fill="#E6E3DE"/>
<path opacity="0.5" d="M142.381 131.493V132.148H138.43V125.703H142.19V126.358H139.304V128.411H141.816V129.065H139.304V131.487H142.381V131.493Z" fill="#E6E3DE"/>
<path opacity="0.5" d="M147.154 129.309H145.976V132.142H145.107V125.697H147.268C147.999 125.697 148.559 125.852 148.934 126.167C149.309 126.483 149.499 126.911 149.499 127.464C149.499 127.929 149.374 128.304 149.13 128.601C148.886 128.893 148.523 129.089 148.041 129.184L150.142 132.136H149.124L147.143 129.303L147.154 129.309ZM145.976 128.649H147.268C148.172 128.649 148.636 128.268 148.636 127.506C148.636 127.149 148.517 126.863 148.285 126.667C148.053 126.465 147.714 126.364 147.273 126.364H145.982V128.655L145.976 128.649Z" fill="#E6E3DE"/>
<path opacity="0.5" d="M155.14 129.535V132.148H154.271V129.541L151.891 125.703H152.843L154.711 128.845L156.58 125.703H157.526L155.14 129.529V129.535Z" fill="#E6E3DE"/>
</svg>
