<svg width="420" height="220" viewBox="0 0 420 220" fill="none" xmlns="http://www.w3.org/2000/svg">
<rect width="420" height="220" fill="#26260E"/>
<path d="M107.446 98.8815H109.695V110.17C108.696 110.866 107.327 111.425 105.59 111.854C103.852 112.282 101.864 112.497 99.6151 112.497C96.6457 112.497 94.1345 111.818 92.0994 110.455C90.0583 109.093 88.529 107.29 87.5174 105.04C86.5058 102.791 86 100.322 86 97.6259C86 94.9303 86.5296 92.5084 87.5829 90.2769C88.6361 88.0394 90.2369 86.2602 92.3731 84.9213C94.5094 83.5883 97.1218 82.9219 100.204 82.9219C102.15 82.9219 103.965 83.2789 105.661 83.987C107.357 84.6952 108.773 85.7008 109.91 87.004L108.327 88.4203C107.44 87.3075 106.25 86.4387 104.762 85.8139C103.275 85.1891 101.757 84.8737 100.198 84.8737C97.6692 84.8737 95.521 85.4271 93.7418 86.5399C91.9625 87.6526 90.6177 89.17 89.7013 91.104C88.7849 93.032 88.3267 95.2219 88.3267 97.6676C88.3267 100.113 88.7611 102.357 89.6418 104.314C90.5165 106.272 91.8019 107.807 93.4919 108.914C95.1878 110.027 97.2289 110.58 99.6151 110.58C103.001 110.58 105.613 110.122 107.446 109.206V98.8755V98.8815Z" fill="#E6E3DE"/>
<path d="M118.234 83.511H120.567V111.836H118.234V83.511Z" fill="#E6E3DE"/>
<path d="M132.903 85.4271V96.2989H144.691V98.215H132.903V111.836H130.57V83.511H146.357V85.4271H132.903Z" fill="#E6E3DE"/>
<path d="M172.178 85.4271H161.889V111.836H159.556V85.4271H149.268V83.511H172.178V85.4271Z" fill="#E6E3DE"/>
<path d="M255.196 83.511L246.24 112.211H244.241L235.91 87.4265L227.537 112.211H225.538L216.957 83.511H219.331L226.579 108.754L235.035 83.511H236.785L245.282 108.754L252.905 83.511H255.196Z" fill="#E6E3DE"/>
<path d="M269.525 98.5066H263.985V111.836H261.652V83.511H270.4C272.346 83.511 273.994 83.8383 275.357 84.4928C276.719 85.1474 277.743 86.0341 278.439 87.1587C279.135 88.2834 279.48 89.5509 279.48 90.9731C279.48 93.0023 278.844 94.6684 277.564 95.9716C276.285 97.2748 274.44 98.0544 272.024 98.3043L281.896 111.842H279.231L269.525 98.5126V98.5066ZM263.985 96.5905H270.4C272.596 96.5905 274.268 96.1263 275.422 95.198C276.577 94.2697 277.148 92.8713 277.148 91.0088C277.148 89.3129 276.559 87.9621 275.375 86.9445C274.196 85.9329 272.536 85.4271 270.4 85.4271H263.985V96.5905Z" fill="#E6E3DE"/>
<path d="M303.014 102.089H291.059L287.311 111.836H285.02L296.058 83.1361H298.057L309.137 111.836H306.763L303.014 102.089ZM302.264 100.173L297.016 86.4685L291.768 100.173H302.264Z" fill="#E6E3DE"/>
<path d="M329.114 84.5285C330.542 85.2069 331.619 86.1471 332.345 87.3372C333.065 88.5333 333.428 89.8781 333.428 91.3777C333.428 93.7937 332.607 95.7217 330.971 97.1677C329.334 98.6137 326.984 99.3337 323.931 99.3337H317.516V111.83H315.184V83.505H323.931C325.96 83.505 327.686 83.8442 329.114 84.5285ZM329.263 95.9002C330.483 94.8886 331.096 93.395 331.096 91.4253C331.096 89.5925 330.471 88.1346 329.221 87.0516C327.972 85.9686 326.21 85.4271 323.931 85.4271H317.516V97.4236H323.931C326.264 97.4236 328.043 96.9178 329.263 95.9061V95.9002Z" fill="#E6E3DE"/>
<path d="M204.258 107.302C203.526 109.676 201.134 111.14 198.885 111.854C197.415 112.318 195.898 112.538 194.356 112.497C192.631 112.449 191 111.985 189.489 111.182C187.281 110.003 185.026 108.194 183.758 106.01C182.64 104.094 182.396 101.899 183.282 99.8217C184.109 97.8759 185.787 96.418 187.584 95.3647C188.727 94.6982 189.905 94.1627 191.143 93.6926L194.089 92.5798C193.398 90.9969 192.94 89.3724 193.041 87.6467C193.196 84.6357 195.416 82.0234 198.29 81.2379C200.045 80.7559 202.14 80.9582 203.473 82.2911C204.621 83.4396 204.55 85.1236 203.913 86.528C203.229 88.0335 201.812 89.2415 200.438 90.1281C198.796 91.1635 197.1 91.8776 195.261 92.5679C196.189 94.6982 197.617 96.5548 199.123 98.3281L201.61 101.101C203.151 102.815 205.056 104.785 204.276 107.308H204.258V107.302ZM201.676 87.9026C202.312 87.1052 202.765 86.2245 202.961 85.2189C203.247 83.755 202.854 82.2257 201.354 81.6306C200.337 81.226 199.206 81.2557 198.189 81.6723C196.558 82.3328 195.32 83.7669 194.737 85.4152C193.934 87.5515 194.249 90.1103 195.094 92.199C197.486 91.2112 200.045 89.9318 201.676 87.9026ZM199.129 110.622C200.206 110.057 201.128 109.277 201.818 108.278C202.759 106.909 203.264 105.052 202.366 103.559C201.795 102.607 201.098 101.768 200.361 100.94L198.766 99.1434C197.076 97.2392 195.398 95.1981 194.231 92.913L192.637 93.5914C191.56 94.0496 190.542 94.5673 189.536 95.1743C187.62 96.3287 185.847 97.7688 185.044 99.9288C184.086 102.5 184.829 105.183 186.478 107.284C187.626 108.748 189.09 109.938 190.75 110.783C193.38 112.122 196.546 111.979 199.123 110.622H199.129Z" fill="#E6E3DE" stroke="#E6E3DE" stroke-width="0.74383" stroke-miterlimit="10"/>
<path opacity="0.5" d="M121.783 126.641V130.122H125.722V131.164H121.783V135.716H120.414V125.6H126.323V126.641H121.783Z" fill="#E6E3DE"/>
<path opacity="0.5" d="M131.595 135.252C130.845 134.782 130.286 134.145 129.905 133.342C129.53 132.538 129.34 131.652 129.34 130.676C129.34 129.7 129.53 128.819 129.905 128.022C130.28 127.224 130.845 126.588 131.595 126.118C132.345 125.648 133.243 125.41 134.297 125.41C135.35 125.41 136.249 125.648 136.998 126.118C137.748 126.588 138.307 127.224 138.688 128.022C139.063 128.819 139.254 129.7 139.254 130.664C139.254 131.628 139.063 132.538 138.688 133.342C138.313 134.145 137.748 134.782 136.998 135.252C136.249 135.722 135.35 135.96 134.297 135.96C133.243 135.96 132.345 135.722 131.595 135.252ZM136.225 134.341C136.76 133.978 137.165 133.479 137.445 132.836C137.724 132.193 137.861 131.473 137.861 130.67C137.861 129.867 137.724 129.147 137.445 128.516C137.165 127.879 136.76 127.379 136.219 127.016C135.677 126.647 135.035 126.469 134.291 126.469C133.547 126.469 132.892 126.653 132.351 127.016C131.809 127.385 131.399 127.885 131.125 128.516C130.845 129.152 130.708 129.873 130.708 130.67C130.708 131.467 130.845 132.193 131.125 132.836C131.405 133.479 131.809 133.978 132.351 134.341C132.892 134.704 133.541 134.883 134.291 134.883C135.041 134.883 135.689 134.704 136.225 134.341Z" fill="#E6E3DE"/>
<path opacity="0.5" d="M146.721 131.271H144.876V135.722H143.508V125.606H146.9C148.048 125.606 148.923 125.856 149.518 126.35C150.113 126.844 150.411 127.522 150.411 128.385C150.411 129.111 150.214 129.7 149.833 130.164C149.447 130.628 148.875 130.932 148.12 131.08L151.422 135.722H149.833L146.721 131.271ZM144.871 130.229H146.894C148.322 130.229 149.036 129.628 149.036 128.432C149.036 127.867 148.851 127.427 148.488 127.105C148.12 126.79 147.59 126.629 146.9 126.629H144.876V130.229H144.871Z" fill="#E6E3DE"/>
<path opacity="0.5" d="M161.62 134.692V135.722H155.42V125.606H161.323V126.629H156.789V129.855H160.728V130.884H156.789V134.692H161.62Z" fill="#E6E3DE"/>
<path opacity="0.5" d="M173.832 125.6L169.916 135.835H168.595L164.668 125.6H166.066L169.268 134.3L172.469 125.6H173.838H173.832Z" fill="#E6E3DE"/>
<path opacity="0.5" d="M183.876 134.692V135.722H177.676V125.606H183.579V126.629H179.044V129.855H182.984V130.884H179.044V134.692H183.876Z" fill="#E6E3DE"/>
<path opacity="0.5" d="M191.373 131.271H189.529V135.722H188.16V125.606H191.552C192.701 125.606 193.575 125.856 194.17 126.35C194.765 126.844 195.063 127.522 195.063 128.385C195.063 129.111 194.867 129.7 194.48 130.164C194.093 130.628 193.522 130.932 192.766 131.08L196.069 135.722H194.474L191.368 131.271H191.373ZM189.529 130.229H191.552C192.98 130.229 193.694 129.628 193.694 128.432C193.694 127.867 193.51 127.427 193.141 127.105C192.772 126.79 192.242 126.629 191.552 126.629H189.529V130.229Z" fill="#E6E3DE"/>
<path opacity="0.5" d="M203.186 139.215L203.346 138.185C203.596 138.233 203.822 138.257 204.031 138.257C204.578 138.257 204.971 138.072 205.215 137.709C205.459 137.346 205.578 136.769 205.578 135.996V125.6H206.964V136.025C206.964 137.096 206.732 137.918 206.274 138.477C205.81 139.042 205.114 139.328 204.167 139.328C203.882 139.328 203.554 139.286 203.186 139.209V139.215Z" fill="#E6E3DE"/>
<path opacity="0.5" d="M218.253 134.692V135.722H212.053V125.606H217.956V126.629H213.421V129.855H217.361V130.884H213.421V134.692H218.253Z" fill="#E6E3DE"/>
<path opacity="0.5" d="M235.719 125.6L232.434 135.835H231.125L228.43 127.474L225.74 135.835H224.431L221.307 125.6H222.705L225.115 134.181L227.834 125.6H229.042L231.792 134.21L234.321 125.6H235.719Z" fill="#E6E3DE"/>
<path opacity="0.5" d="M245.763 134.692V135.722H239.562V125.606H245.466V126.629H240.931V129.855H244.87V130.884H240.931V134.692H245.763Z" fill="#E6E3DE"/>
<path opacity="0.5" d="M256.248 134.692V135.722H250.041V125.606H251.41V134.692H256.248Z" fill="#E6E3DE"/>
<path opacity="0.5" d="M266.365 134.692V135.722H260.158V125.606H261.527V134.692H266.365Z" fill="#E6E3DE"/>
<path opacity="0.5" d="M276.486 134.692V135.722H270.279V125.606H276.188V126.629H271.654V129.855H275.593V130.884H271.654V134.692H276.486Z" fill="#E6E3DE"/>
<path opacity="0.5" d="M283.979 131.271H282.134V135.722H280.766V125.606H284.157C285.306 125.606 286.181 125.856 286.776 126.35C287.371 126.844 287.668 127.522 287.668 128.385C287.668 129.111 287.472 129.7 287.085 130.164C286.698 130.628 286.127 130.932 285.371 131.08L288.674 135.722H287.079L283.973 131.271H283.979ZM282.14 130.229H284.163C285.592 130.229 286.306 129.628 286.306 128.432C286.306 127.867 286.121 127.427 285.752 127.105C285.383 126.79 284.854 126.629 284.163 126.629H282.14V130.229Z" fill="#E6E3DE"/>
<path opacity="0.5" d="M296.529 131.61V135.716H295.161V131.622L291.43 125.6H292.929L295.863 130.539L298.791 125.6H300.278L296.529 131.61Z" fill="#E6E3DE"/>
</svg>
