<svg width="200" height="220" viewBox="0 0 200 220" fill="none" xmlns="http://www.w3.org/2000/svg">
<rect width="200" height="220" fill="#26260E"/>
<path d="M77.4461 111.21H79.6955V122.498C78.6958 123.195 77.3271 123.754 75.5895 124.183C73.8519 124.611 71.8644 124.825 69.6151 124.825C66.6457 124.825 64.1345 124.147 62.0994 122.784C60.0583 121.421 58.529 119.618 57.5174 117.369C56.5058 115.12 56 112.65 56 109.955C56 107.259 56.5296 104.837 57.5829 102.605C58.6361 100.368 60.2369 98.5888 62.3731 97.2499C64.5094 95.917 67.1218 95.2505 70.2042 95.2505C72.15 95.2505 73.965 95.6075 75.6609 96.3157C77.3569 97.0238 78.7731 98.0294 79.9097 99.3326L78.3268 100.749C77.4402 99.6361 76.25 98.7673 74.7624 98.1425C73.2747 97.5177 71.7573 97.2023 70.1982 97.2023C67.6692 97.2023 65.521 97.7557 63.7418 98.8685C61.9625 99.9812 60.6177 101.499 59.7013 103.433C58.7849 105.361 58.3267 107.55 58.3267 109.996C58.3267 112.442 58.7611 114.685 59.6418 116.643C60.5165 118.601 61.8019 120.136 63.4919 121.243C65.1878 122.356 67.2289 122.909 69.6151 122.909C73.001 122.909 75.6133 122.451 77.4461 121.534V111.204V111.21Z" fill="#E6E3DE"/>
<path d="M144.862 95.8396L135.906 124.54H133.907L125.576 99.7551L117.203 124.54H115.204L106.623 95.8396H108.997L116.245 121.082L124.701 95.8396H126.451L134.948 121.082L142.571 95.8396H144.862Z" fill="#E6E3DE"/>
<path d="M103.993 119.981C103.296 122.237 101.029 123.623 98.8929 124.301C97.5004 124.742 96.0604 124.95 94.5905 124.908C92.9541 124.867 91.407 124.426 89.9669 123.659C87.8663 122.54 85.73 120.82 84.5221 118.749C83.4628 116.929 83.2248 114.846 84.0698 112.876C84.8553 111.031 86.4441 109.645 88.1519 108.645C89.2409 108.015 90.3537 107.503 91.5319 107.056L94.3287 105.997C93.6741 104.498 93.2397 102.951 93.335 101.314C93.4837 98.4578 95.5903 95.9764 98.3157 95.2266C99.9818 94.7684 101.969 94.9588 103.237 96.2263C104.326 97.3153 104.254 98.916 103.653 100.249C103.005 101.683 101.66 102.826 100.357 103.665C98.7977 104.646 97.191 105.325 95.4415 105.979C96.3281 107.997 97.6789 109.764 99.1071 111.448L101.469 114.084C102.927 115.715 104.736 117.577 103.999 119.975L103.993 119.981ZM101.547 101.564C102.154 100.808 102.582 99.9692 102.767 99.0171C103.035 97.6306 102.666 96.1727 101.243 95.6134C100.273 95.2325 99.2023 95.2623 98.2383 95.6491C96.6911 96.2739 95.5129 97.6425 94.9654 99.2016C94.2038 101.231 94.5013 103.659 95.3046 105.64C97.5778 104.706 100.006 103.486 101.553 101.564H101.547ZM99.1309 123.129C100.154 122.594 101.029 121.856 101.684 120.904C102.576 119.606 103.058 117.845 102.207 116.423C101.666 115.518 101.005 114.727 100.303 113.935L98.7857 112.234C97.1791 110.43 95.5903 108.491 94.4834 106.319L92.972 106.961C91.9485 107.396 90.9845 107.884 90.0324 108.461C88.2115 109.556 86.5334 110.924 85.7657 112.977C84.8553 115.417 85.5634 117.964 87.1284 119.957C88.2174 121.35 89.6099 122.475 91.1808 123.278C93.6741 124.545 96.6792 124.409 99.1309 123.129Z" fill="#E6E3DE" stroke="#E6E3DE" stroke-width="0.74383" stroke-miterlimit="10"/>
</svg>
