<svg width="420" height="220" viewBox="0 0 420 220" fill="none" xmlns="http://www.w3.org/2000/svg">
<rect width="420" height="220" fill="#26260E"/>
<path d="M107.446 111.881H109.695V123.17C108.696 123.866 107.327 124.425 105.59 124.854C103.852 125.282 101.864 125.497 99.6151 125.497C96.6457 125.497 94.1345 124.818 92.0994 123.455C90.0583 122.093 88.529 120.29 87.5174 118.04C86.5058 115.791 86 113.322 86 110.626C86 107.93 86.5296 105.508 87.5829 103.277C88.6361 101.039 90.2369 99.2602 92.3731 97.9213C94.5094 96.5883 97.1218 95.9219 100.204 95.9219C102.15 95.9219 103.965 96.2789 105.661 96.987C107.357 97.6952 108.773 98.7008 109.91 100.004L108.327 101.42C107.44 100.307 106.25 99.4387 104.762 98.8139C103.275 98.1891 101.757 97.8737 100.198 97.8737C97.6692 97.8737 95.521 98.4271 93.7418 99.5399C91.9625 100.653 90.6177 102.17 89.7013 104.104C88.7849 106.032 88.3267 108.222 88.3267 110.668C88.3267 113.113 88.7611 115.357 89.6418 117.314C90.5165 119.272 91.8019 120.807 93.4919 121.914C95.1878 123.027 97.2289 123.58 99.6151 123.58C103.001 123.58 105.613 123.122 107.446 122.206V111.876V111.881Z" fill="#E6E3DE"/>
<path d="M118.234 96.511H120.567V124.836H118.234V96.511Z" fill="#E6E3DE"/>
<path d="M132.903 98.4271V109.299H144.691V111.215H132.903V124.836H130.57V96.511H146.357V98.4271H132.903Z" fill="#E6E3DE"/>
<path d="M172.178 98.4271H161.889V124.836H159.556V98.4271H149.268V96.511H172.178V98.4271Z" fill="#E6E3DE"/>
<path d="M255.196 96.511L246.24 125.211H244.241L235.91 100.427L227.537 125.211H225.538L216.957 96.511H219.331L226.579 121.754L235.035 96.511H236.785L245.282 121.754L252.905 96.511H255.196Z" fill="#E6E3DE"/>
<path d="M269.525 111.507H263.985V124.836H261.652V96.511H270.4C272.346 96.511 273.994 96.8383 275.357 97.4928C276.719 98.1474 277.743 99.0341 278.439 100.159C279.135 101.283 279.48 102.551 279.48 103.973C279.48 106.002 278.844 107.668 277.564 108.972C276.285 110.275 274.44 111.054 272.024 111.304L281.896 124.842H279.231L269.525 111.513V111.507ZM263.985 109.59H270.4C272.596 109.59 274.268 109.126 275.422 108.198C276.577 107.27 277.148 105.871 277.148 104.009C277.148 102.313 276.559 100.962 275.375 99.9445C274.196 98.9329 272.536 98.4271 270.4 98.4271H263.985V109.59Z" fill="#E6E3DE"/>
<path d="M303.014 115.089H291.059L287.311 124.836H285.02L296.058 96.1361H298.057L309.137 124.836H306.763L303.014 115.089ZM302.264 113.173L297.016 99.4685L291.768 113.173H302.264Z" fill="#E6E3DE"/>
<path d="M329.114 97.5285C330.542 98.2069 331.619 99.1471 332.345 100.337C333.065 101.533 333.428 102.878 333.428 104.378C333.428 106.794 332.607 108.722 330.971 110.168C329.334 111.614 326.984 112.334 323.931 112.334H317.516V124.83H315.184V96.505H323.931C325.96 96.505 327.686 96.8442 329.114 97.5285ZM329.263 108.9C330.483 107.889 331.096 106.395 331.096 104.425C331.096 102.593 330.471 101.135 329.221 100.052C327.972 98.9686 326.21 98.4271 323.931 98.4271H317.516V110.424H323.931C326.264 110.424 328.043 109.918 329.263 108.906V108.9Z" fill="#E6E3DE"/>
<path d="M204.258 120.302C203.526 122.676 201.134 124.14 198.885 124.854C197.415 125.318 195.898 125.538 194.356 125.497C192.631 125.449 191 124.985 189.489 124.182C187.281 123.003 185.026 121.194 183.758 119.01C182.64 117.094 182.396 114.899 183.282 112.822C184.109 110.876 185.787 109.418 187.584 108.365C188.727 107.698 189.905 107.163 191.143 106.693L194.089 105.58C193.398 103.997 192.94 102.372 193.041 100.647C193.196 97.6357 195.416 95.0234 198.29 94.2379C200.045 93.7559 202.14 93.9582 203.473 95.2911C204.621 96.4396 204.55 98.1236 203.913 99.528C203.229 101.034 201.812 102.241 200.438 103.128C198.796 104.164 197.1 104.878 195.261 105.568C196.189 107.698 197.617 109.555 199.123 111.328L201.61 114.101C203.151 115.815 205.056 117.785 204.276 120.308H204.258V120.302ZM201.676 100.903C202.312 100.105 202.765 99.2245 202.961 98.2189C203.247 96.755 202.854 95.2257 201.354 94.6306C200.337 94.226 199.206 94.2557 198.189 94.6723C196.558 95.3328 195.32 96.7669 194.737 98.4152C193.934 100.552 194.249 103.11 195.094 105.199C197.486 104.211 200.045 102.932 201.676 100.903ZM199.129 123.622C200.206 123.057 201.128 122.277 201.818 121.278C202.759 119.909 203.264 118.052 202.366 116.559C201.795 115.607 201.098 114.768 200.361 113.94L198.766 112.143C197.076 110.239 195.398 108.198 194.231 105.913L192.637 106.591C191.56 107.05 190.542 107.567 189.536 108.174C187.62 109.329 185.847 110.769 185.044 112.929C184.086 115.5 184.829 118.183 186.478 120.284C187.626 121.748 189.09 122.938 190.75 123.783C193.38 125.122 196.546 124.979 199.123 123.622H199.129Z" fill="#E6E3DE" stroke="#E6E3DE" stroke-width="0.74383" stroke-miterlimit="10"/>
</svg>
