<svg width="211" height="28" viewBox="0 0 211 28" fill="none" xmlns="http://www.w3.org/2000/svg">
<path d="M18.2886 15.5656H20.2068V25.1919C19.3542 25.7857 18.1871 26.2627 16.7053 26.628C15.2236 26.9934 13.5287 27.1761 11.6105 27.1761C9.07833 27.1761 6.93687 26.5976 5.20139 25.4355C3.46083 24.2734 2.15667 22.7359 1.29401 20.8177C0.431336 18.8995 0 16.7936 0 14.4948C0 12.1961 0.451635 10.1307 1.34983 8.2278C2.24802 6.31978 3.61306 4.8025 5.43481 3.66073C7.25657 2.52404 9.48429 1.95569 12.1129 1.95569C13.7723 1.95569 15.32 2.26016 16.7662 2.86403C18.2125 3.4679 19.4202 4.32549 20.3894 5.43681L19.0396 6.64455C18.2835 5.69561 17.2686 4.95473 16 4.42191C14.7313 3.88908 13.4373 3.62013 12.1078 3.62013C9.95114 3.62013 8.11924 4.09206 6.60196 5.041C5.08467 5.98993 3.93783 7.28394 3.15635 8.93316C2.37488 10.5773 1.98414 12.4447 1.98414 14.5304C1.98414 16.616 2.35458 18.5291 3.10561 20.1986C3.85157 21.8681 4.94766 23.1773 6.38883 24.1212C7.83507 25.0701 9.57563 25.5421 11.6105 25.5421C14.4979 25.5421 16.7256 25.1513 18.2886 24.3699V15.5605V15.5656Z" fill="#E6E3DE"/>
<path d="M27.4902 2.45813H29.4794V26.6129H27.4902V2.45813Z" fill="#E6E3DE"/>
<path d="M39.999 4.09213V13.3633H50.0516V14.9973H39.999V26.6129H38.0098V2.45813H51.4725V4.09213H39.999Z" fill="#E6E3DE"/>
<path d="M73.49 4.09213H64.7162V26.6129H62.727V4.09213H53.9531V2.45813H73.49V4.09213Z" fill="#E6E3DE"/>
<path d="M144.285 2.45813L136.648 26.9326H134.942L127.838 5.79717L120.698 26.9326H118.993L111.676 2.45813H113.701L119.881 23.9843L127.092 2.45813H128.584L135.831 23.9843L142.331 2.45813H144.285Z" fill="#E6E3DE"/>
<path d="M156.505 15.2459H151.78V26.6129H149.791V2.45813H157.251C158.91 2.45813 160.316 2.73723 161.478 3.29543C162.64 3.85362 163.513 4.60973 164.106 5.56881C164.7 6.5279 164.994 7.60877 164.994 8.82158C164.994 10.552 164.451 11.9729 163.36 13.0842C162.269 14.1955 160.696 14.8603 158.636 15.0734L167.055 26.6179H164.781L156.505 15.251V15.2459ZM151.78 13.6119H157.251C159.123 13.6119 160.549 13.2161 161.533 12.4245C162.518 11.6329 163.005 10.4404 163.005 8.85203C163.005 7.40579 162.503 6.25387 161.493 5.38613C160.488 4.52346 159.072 4.09213 157.251 4.09213H151.78V13.6119Z" fill="#E6E3DE"/>
<path d="M185.064 18.3007H174.869L171.672 26.6127H169.719L179.132 2.13831H180.837L190.286 26.6127H188.261L185.064 18.3007ZM184.425 16.6667L179.949 4.98004L175.473 16.6667H184.425Z" fill="#E6E3DE"/>
<path d="M207.321 3.32582C208.539 3.90432 209.457 4.70609 210.076 5.721C210.69 6.74098 211 7.88782 211 9.1666C211 11.2269 210.3 12.871 208.904 14.1041C207.509 15.3372 205.504 15.9512 202.901 15.9512H197.431V26.6077H195.441V2.453H202.901C204.631 2.453 206.103 2.74225 207.321 3.32582ZM207.448 13.0232C208.488 12.1606 209.011 10.8869 209.011 9.2072C209.011 7.64424 208.478 6.40098 207.412 5.47742C206.347 4.55386 204.845 4.09208 202.901 4.09208H197.431V14.3223H202.901C204.89 14.3223 206.407 13.891 207.448 13.0283V13.0232Z" fill="#E6E3DE"/>
<path d="M100.847 22.746C100.222 24.7708 98.1824 26.0191 96.2642 26.6281C95.0108 27.0239 93.7168 27.2116 92.4025 27.1761C90.9309 27.1355 89.5405 26.7397 88.2516 26.0546C86.3689 25.0499 84.4457 23.5072 83.3648 21.6449C82.4108 20.0109 82.2027 18.1384 82.9588 16.3674C83.6642 14.708 85.0952 13.4647 86.6277 12.5665C87.602 11.9982 88.6068 11.5415 89.6623 11.1406L92.1742 10.1917C91.5855 8.84184 91.1948 7.4565 91.281 5.98489C91.413 3.41718 93.3058 1.18946 95.7568 0.519626C97.2538 0.10859 99.04 0.281122 100.177 1.41782C101.156 2.3972 101.095 3.83329 100.552 5.03088C99.9686 6.31473 98.7609 7.34486 97.5887 8.10097C96.1881 8.98393 94.7419 9.59288 93.1738 10.1815C93.9655 11.9982 95.1834 13.5815 96.4672 15.0937L98.5884 17.4584C99.9027 18.9198 101.526 20.5995 100.862 22.7511H100.847V22.746ZM98.6442 6.20309C99.1871 5.52311 99.5728 4.77208 99.7403 3.91448C99.9838 2.66615 99.6489 1.362 98.3702 0.854543C97.5024 0.509475 96.5383 0.534851 95.6705 0.890068C94.2801 1.45334 93.2246 2.6763 92.7273 4.08194C92.0422 5.90369 92.3112 8.08574 93.0317 9.8669C95.0717 9.02453 97.2538 7.9335 98.6442 6.20309ZM96.4723 25.5776C97.3908 25.0955 98.1773 24.4308 98.766 23.5783C99.5677 22.4111 99.9991 20.8279 99.2328 19.5542C98.7457 18.7422 98.1519 18.0267 97.5227 17.3214L96.1627 15.7889C94.7216 14.165 93.2906 12.4245 92.296 10.4758L90.936 11.0543C90.0175 11.4451 89.1497 11.8866 88.2921 12.4042C86.6581 13.3886 85.1459 14.6167 84.4609 16.4587C83.6439 18.6509 84.2782 20.9395 85.6838 22.7308C86.6632 23.9792 87.9116 24.9941 89.3274 25.7146C91.5703 26.8564 94.2699 26.7346 96.4672 25.5776H96.4723Z" fill="#E6E3DE" stroke="#E6E3DE" stroke-width="0.634316" stroke-miterlimit="10"/>
</svg>
